<?xml version="1.0" encoding="UTF-8"?>
<!DOCTYPE svg PUBLIC "-//W3C//DTD SVG 1.1//EN" "http://www.w3.org/Graphics/SVG/1.1/DTD/svg11.dtd">
<svg xmlns="http://www.w3.org/2000/svg" version="1.1" width="1024px" height="1024px" style="shape-rendering:geometricPrecision; text-rendering:geometricPrecision; image-rendering:optimizeQuality; fill-rule:evenodd; clip-rule:evenodd" xmlns:xlink="http://www.w3.org/1999/xlink">
<g><path style="opacity:0.978" fill="#005b99" d="M 974.5,134.5 C 976.028,134.517 976.528,135.184 976,136.5C 964.572,151.263 951.739,164.763 937.5,177C 841.847,183.124 746.18,188.957 650.5,194.5C 650.5,196.167 650.5,197.833 650.5,199.5C 742.866,194.13 835.2,189.463 927.5,185.5C 906.44,203.049 884.106,218.883 860.5,233C 858.232,234.552 855.732,235.385 853,235.5C 784.452,228.062 715.952,220.395 647.5,212.5C 645.73,213.82 645.397,215.32 646.5,217C 713.904,224.026 781.237,231.526 848.5,239.5C 819.395,256.885 789.062,271.885 757.5,284.5C 712.432,269.699 667.432,254.699 622.5,239.5C 621.05,240.85 620.383,242.516 620.5,244.5C 663.389,258.574 706.056,273.241 748.5,288.5C 719.378,300.891 689.711,311.891 659.5,321.5C 632.167,301.833 604.833,282.167 577.5,262.5C 574.953,263.621 573.953,265.288 574.5,267.5C 599.638,284.805 624.638,302.305 649.5,320C 640.209,317.911 630.876,315.578 621.5,313C 580.738,303.418 541.738,308.084 504.5,327C 497.646,330.592 491.313,334.925 485.5,340C 549.46,451.419 613.293,562.919 677,674.5C 683.5,683.667 691.333,691.5 700.5,698C 720.994,712.748 743.328,724.081 767.5,732C 829.866,747.26 864.033,723.093 870,659.5C 870.5,559.501 870.667,459.501 870.5,359.5C 887.5,359.5 904.5,359.5 921.5,359.5C 921.972,467.515 921.472,575.515 920,683.5C 917.873,710.885 909.206,735.885 894,758.5C 876.337,778.249 854.17,789.416 827.5,792C 799.177,795.705 771.844,792.038 745.5,781C 698.894,754.364 650.894,730.364 601.5,709C 561.221,694.008 519.554,686.008 476.5,685C 416.28,681.913 357.28,688.913 299.5,706C 251.385,722.721 206.719,745.721 165.5,775C 123.125,804.489 84.2916,838.322 49,876.5C 49.3737,873.725 50.3737,871.058 52,868.5C 135.586,724.33 218.919,579.997 302,435.5C 321.188,402.458 339.854,369.125 358,335.5C 359.456,327.955 358.123,320.955 354,314.5C 344.96,302.129 333.127,293.629 318.5,289C 306.21,285.511 293.877,282.178 281.5,279C 269.561,274.03 257.894,268.53 246.5,262.5C 256.817,261.668 267.151,261.168 277.5,261C 267.635,251.131 256.635,242.797 244.5,236C 236.574,233.417 229.074,234.25 222,238.5C 223.051,230.689 225.718,223.356 230,216.5C 233.507,210.502 238.674,207.168 245.5,206.5C 253.873,208.125 262.04,210.458 270,213.5C 274.815,206.687 280.315,200.52 286.5,195C 294.131,189.905 302.464,188.239 311.5,190C 326.168,195.166 340.501,201.166 354.5,208C 375.656,218.411 396.656,229.078 417.5,240C 428.728,243.617 439.728,242.95 450.5,238C 465.361,230.477 478.528,220.643 490,208.5C 499.118,194.324 505.618,178.991 509.5,162.5C 664.685,153.705 819.685,144.372 974.5,134.5 Z M 290.5,207.5 C 301.806,211.379 313.473,213.545 325.5,214C 323.112,215.861 320.446,217.194 317.5,218C 311.5,218.667 305.5,218.667 299.5,218C 293.721,216.731 290.721,213.231 290.5,207.5 Z M 493.5,488.5 C 494.332,481.745 493.165,475.411 490,469.5C 489.282,468.549 488.449,468.383 487.5,469C 483.837,475.777 483.67,482.61 487,489.5C 488.255,490.211 489.421,491.044 490.5,492C 487.164,495.326 483.498,498.159 479.5,500.5C 480.496,495.537 480.663,490.537 480,485.5C 479.74,483.382 478.74,481.716 477,480.5C 470.884,487.665 470.051,495.331 474.5,503.5C 470.381,507.063 465.714,509.229 460.5,510C 466.07,504.238 467.404,497.738 464.5,490.5C 455.781,495.495 453.115,502.662 456.5,512C 454.541,512.931 452.541,513.764 450.5,514.5C 443.704,495.6 430.371,487.767 410.5,491C 398.926,494.242 391.759,501.742 389,513.5C 385.274,514.158 381.774,513.325 378.5,511C 382.115,502.01 379.782,494.843 371.5,489.5C 368.278,496.466 369.278,502.966 374.5,509C 369.391,507.779 364.725,505.446 360.5,502C 365.307,496.311 365.807,490.144 362,483.5C 361.044,482.421 360.211,481.255 359.5,480C 358.668,479.312 358.002,479.479 357.5,480.5C 354.489,486.243 353.822,492.243 355.5,498.5C 351.823,496.32 348.49,493.653 345.5,490.5C 351.085,486.147 352.919,480.48 351,473.5C 348.569,464.742 345.902,465.076 343,474.5C 342.667,478.833 342.333,483.167 342,487.5C 338.807,484.275 335.974,480.775 333.5,477C 362.079,427.024 390.579,376.858 419,326.5C 447.083,377.448 475.25,427.948 503.5,478C 500.665,482.001 497.332,485.501 493.5,488.5 Z M 594.5,463.5 C 594.204,469.09 595.038,474.757 597,480.5C 598.459,483.756 600.626,486.423 603.5,488.5C 604.328,484.204 604.828,479.871 605,475.5C 605.56,471.698 607.56,469.032 611,467.5C 611.772,467.645 612.439,467.978 613,468.5C 614.393,473.095 614.726,477.761 614,482.5C 608.924,486.621 603.757,490.621 598.5,494.5C 593.13,487.595 588.13,480.429 583.5,473C 587.359,469.968 591.026,466.802 594.5,463.5 Z M 331.5,480.5 C 333.017,480.511 334.184,481.177 335,482.5C 336.919,484.691 338.253,487.024 339,489.5C 335.255,488.703 331.421,488.203 327.5,488C 328.973,485.552 330.307,483.052 331.5,480.5 Z M 509.5,490.5 C 505.154,490.666 500.821,490.499 496.5,490C 499,486.833 501.5,483.667 504,480.5C 506.112,483.727 507.945,487.06 509.5,490.5 Z M 342.5,492.5 C 345.667,495.498 349,498.331 352.5,501C 345.039,500.899 339.039,503.732 334.5,509.5C 340.425,511.932 346.425,512.098 352.5,510C 354.351,508.316 356.018,506.483 357.5,504.5C 362.175,507.84 367.175,510.673 372.5,513C 363.808,513.704 357.142,517.704 352.5,525C 359.357,527.224 366.024,526.558 372.5,523C 374.631,520.552 376.631,518.052 378.5,515.5C 381.727,516.909 385.06,517.909 388.5,518.5C 388.663,520.857 388.497,523.19 388,525.5C 377.006,533.061 378.006,536.061 391,534.5C 404.802,553.05 421.302,555.884 440.5,543C 442.046,540.743 443.712,538.576 445.5,536.5C 454.84,536.945 456.34,534.279 450,528.5C 449.833,526.833 449.667,525.167 449.5,523.5C 449.6,518.284 452.267,516.118 457.5,517C 459.67,522.501 463.67,525.834 469.5,527C 473.486,527.499 477.486,527.666 481.5,527.5C 481.262,523.862 479.596,521.029 476.5,519C 472.186,516.34 467.519,514.673 462.5,514C 467.907,511.548 473.074,508.714 478,505.5C 483.334,513.275 490.501,515.442 499.5,512C 500.5,509.909 499.833,508.243 497.5,507C 492.588,504.105 487.255,502.771 481.5,503C 485.61,500.191 489.443,497.025 493,493.5C 494.251,496.381 496.417,498.214 499.5,499C 504.145,499.817 508.645,499.317 513,497.5C 516.11,499.677 516.776,502.344 515,505.5C 491.766,528.071 467.933,549.904 443.5,571C 435.933,576.904 428.1,582.404 420,587.5C 384.669,561.856 352.003,532.856 322,500.5C 321.316,499.216 321.483,498.049 322.5,497C 327.132,497.393 331.799,497.393 336.5,497C 339.106,496.208 341.106,494.708 342.5,492.5 Z M 424.5,506.5 C 426.179,508 427.512,509.833 428.5,512C 431.22,511.865 433.886,511.532 436.5,511C 430.845,514.509 430.512,518.175 435.5,522C 433.331,522.429 431.331,521.929 429.5,520.5C 427.142,522.024 425.309,524.024 424,526.5C 423.667,523.833 423.333,521.167 423,518.5C 421.184,517.671 419.351,516.837 417.5,516C 419.659,515.088 421.825,514.255 424,513.5C 424.497,511.19 424.663,508.857 424.5,506.5 Z M 407.5,508.5 C 402.17,519.328 404.17,528.495 413.5,536C 418.03,537.632 422.696,538.632 427.5,539C 414.54,544.344 405.373,540.511 400,527.5C 398.776,521.696 399.776,516.362 403,511.5C 404.129,509.859 405.629,508.859 407.5,508.5 Z M 214.5,688.5 C 242.389,638.393 270.556,588.393 299,538.5C 337.447,555.142 374.613,574.142 410.5,595.5C 399.378,604.784 388.378,614.284 377.5,624C 378,624.167 378.5,624.333 379,624.5C 392.719,616.611 406.553,608.944 420.5,601.5C 432.862,607.695 444.862,614.529 456.5,622C 458.402,623.301 460.402,623.968 462.5,624C 451.794,614.291 440.794,604.958 429.5,596C 463.679,575.91 499.012,557.91 535.5,542C 536.5,541.333 537.5,541.333 538.5,542C 560.718,581.28 582.218,620.78 603,660.5C 576.606,647.274 548.773,638.44 519.5,634C 428.859,622.044 341.192,633.377 256.5,668C 242.075,674.046 228.075,680.88 214.5,688.5 Z"/></g>
<g><path style="opacity:0.94" fill="#005b99" d="M 219.5,408.5 C 236.37,416.227 241.703,429.06 235.5,447C 235.63,448.059 236.13,448.892 237,449.5C 239.139,446.061 241.639,442.894 244.5,440C 248.039,438.496 251.705,438.163 255.5,439C 264.963,445.965 273.963,453.465 282.5,461.5C 270.506,480.301 258.006,498.634 245,516.5C 233.495,510.749 222.828,503.749 213,495.5C 212.088,493.341 211.255,491.175 210.5,489C 212.488,483.832 215.154,478.999 218.5,474.5C 214.194,465.694 212.361,456.361 213,446.5C 210.92,443.526 209.753,440.193 209.5,436.5C 210.027,431.334 211.193,426.334 213,421.5C 214.853,425.385 216.52,429.385 218,433.5C 219.079,435.394 220.413,435.727 222,434.5C 222.869,432.419 223.369,430.253 223.5,428C 222.716,421.368 221.383,414.868 219.5,408.5 Z M 245.5,462.5 C 249.621,465.409 253.621,468.575 257.5,472C 253.333,478.167 249.167,484.333 245,490.5C 244.261,491.574 243.261,492.241 242,492.5C 237.011,488.848 232.011,485.181 227,481.5C 225.933,475.808 226.766,470.475 229.5,465.5C 233.019,467.52 235.186,470.52 236,474.5C 235.369,490.987 238.369,491.654 245,476.5C 246.666,471.856 246.833,467.189 245.5,462.5 Z"/></g>
<g><path style="opacity:0.94" fill="#005b99" d="M 620.5,409.5 C 621.239,409.369 621.906,409.536 622.5,410C 618.8,418.23 617.633,426.73 619,435.5C 620.587,436.727 621.921,436.394 623,434.5C 625.225,430.719 626.891,426.719 628,422.5C 632.466,431.27 632.466,439.937 628,448.5C 628.661,458.232 626.827,467.399 622.5,476C 625.037,478.906 627.204,482.073 629,485.5C 629.667,488.5 629.667,491.5 629,494.5C 626.833,498 624,500.833 620.5,503C 612.845,508.646 604.678,513.479 596,517.5C 582.994,499.634 570.494,481.301 558.5,462.5C 567.037,454.465 576.037,446.965 585.5,440C 589.295,439.163 592.961,439.496 596.5,441C 599.286,444.074 601.952,447.241 604.5,450.5C 604.833,449.833 605.167,449.167 605.5,448.5C 599.723,431.143 604.723,418.143 620.5,409.5 Z M 594.5,463.5 C 591.026,466.802 587.359,469.968 583.5,473C 588.13,480.429 593.13,487.595 598.5,494.5C 603.757,490.621 608.924,486.621 614,482.5C 614.726,477.761 614.393,473.095 613,468.5C 612.439,467.978 611.772,467.645 611,467.5C 607.56,469.032 605.56,471.698 605,475.5C 604.828,479.871 604.328,484.204 603.5,488.5C 600.626,486.423 598.459,483.756 597,480.5C 595.038,474.757 594.204,469.09 594.5,463.5 Z"/></g>
<g><path style="opacity:0.947" fill="#005b99" d="M 86.5,842.5 C 95.1731,842.334 103.84,842.5 112.5,843C 123.29,858.079 133.956,873.246 144.5,888.5C 114.5,889.833 84.5,889.833 54.5,888.5C 61.642,878.857 68.9754,869.357 76.5,860C 83.8333,859.667 91.1667,859.333 98.5,859C 94.1143,853.707 90.1143,848.207 86.5,842.5 Z M 98.5,861.5 C 100.017,861.511 101.184,862.177 102,863.5C 105.118,868.286 108.618,872.786 112.5,877C 104.167,877.667 95.8333,877.667 87.5,877C 91.3859,871.954 95.0526,866.787 98.5,861.5 Z"/></g>
<g><path style="opacity:0.984" fill="#005b99" d="M 148.5,842.5 C 156.5,842.5 164.5,842.5 172.5,842.5C 172.5,858.167 172.5,873.833 172.5,889.5C 164.5,889.5 156.5,889.5 148.5,889.5C 148.5,873.833 148.5,858.167 148.5,842.5 Z"/></g>
<g><path style="opacity:0.96" fill="#005b99" d="M 177.5,842.5 C 193.837,842.333 210.17,842.5 226.5,843C 232.826,843.747 238.326,846.247 243,850.5C 246.721,857.171 245.554,862.837 239.5,867.5C 245.824,873.474 248.157,880.808 246.5,889.5C 238.833,889.5 231.167,889.5 223.5,889.5C 223.856,883.061 221.856,877.561 217.5,873C 211.243,871.683 204.909,871.183 198.5,871.5C 198.5,877.5 198.5,883.5 198.5,889.5C 191.5,889.5 184.5,889.5 177.5,889.5C 177.5,873.833 177.5,858.167 177.5,842.5 Z M 198.5,854.5 C 205.947,854.071 213.281,854.571 220.5,856C 219.182,857.908 217.348,858.742 215,858.5C 209.529,857.682 204.029,857.348 198.5,857.5C 198.5,856.5 198.5,855.5 198.5,854.5 Z"/></g>
<g><path style="opacity:0.974" fill="#005b99" d="M 291.5,842.5 C 299.5,842.5 307.5,842.5 315.5,842.5C 315.5,853.5 315.5,864.5 315.5,875.5C 322.5,875.5 329.5,875.5 336.5,875.5C 336.5,864.5 336.5,853.5 336.5,842.5C 344.5,842.5 352.5,842.5 360.5,842.5C 360.5,858.167 360.5,873.833 360.5,889.5C 342.497,889.667 324.497,889.5 306.5,889C 299.735,888.045 294.901,884.545 292,878.5C 291.5,866.505 291.333,854.505 291.5,842.5 Z"/></g>
<g><path style="opacity:0.978" fill="#005b99" d="M 365.5,842.5 C 383.836,842.333 402.17,842.5 420.5,843C 426.793,844.226 431.293,847.726 434,853.5C 434.5,865.495 434.667,877.495 434.5,889.5C 426.5,889.5 418.5,889.5 410.5,889.5C 410.667,878.495 410.5,867.495 410,856.5C 403.256,855.521 396.422,855.188 389.5,855.5C 389.5,866.833 389.5,878.167 389.5,889.5C 381.5,889.5 373.5,889.5 365.5,889.5C 365.5,873.833 365.5,858.167 365.5,842.5 Z"/></g>
<g><path style="opacity:0.945" fill="#005b99" d="M 440.5,842.5 C 448.833,842.5 457.167,842.5 465.5,842.5C 465.5,858.167 465.5,873.833 465.5,889.5C 457.167,889.5 448.833,889.5 440.5,889.5C 440.5,873.833 440.5,858.167 440.5,842.5 Z"/></g>
<g><path style="opacity:0.957" fill="#005b99" d="M 468.5,843.5 C 476.656,842.343 484.99,842.177 493.5,843C 498.667,851.5 503.833,860 509,868.5C 513.833,860.167 518.667,851.833 523.5,843.5C 531.833,842.167 540.167,842.167 548.5,843.5C 539.667,858.5 530.833,873.5 522,888.5C 513.579,889.649 505.079,889.816 496.5,889C 487.303,873.661 477.97,858.495 468.5,843.5 Z"/></g>
<g><path style="opacity:0.958" fill="#005b99" d="M 553.5,842.5 C 576.5,842.5 599.5,842.5 622.5,842.5C 622.5,846.167 622.5,849.833 622.5,853.5C 607.5,853.5 592.5,853.5 577.5,853.5C 577.5,855.833 577.5,858.167 577.5,860.5C 592.5,860.5 607.5,860.5 622.5,860.5C 622.5,864.167 622.5,867.833 622.5,871.5C 607.5,871.5 592.5,871.5 577.5,871.5C 577.5,873.5 577.5,875.5 577.5,877.5C 592.5,877.5 607.5,877.5 622.5,877.5C 622.5,881.5 622.5,885.5 622.5,889.5C 599.5,889.5 576.5,889.5 553.5,889.5C 553.5,873.833 553.5,858.167 553.5,842.5 Z"/></g>
<g><path style="opacity:0.959" fill="#005b99" d="M 626.5,842.5 C 642.837,842.333 659.17,842.5 675.5,843C 681.826,843.747 687.326,846.247 692,850.5C 695.721,857.171 694.554,862.837 688.5,867.5C 694.824,873.474 697.157,880.808 695.5,889.5C 687.833,889.5 680.167,889.5 672.5,889.5C 672.037,873.219 663.703,867.219 647.5,871.5C 647.5,877.5 647.5,883.5 647.5,889.5C 640.5,889.5 633.5,889.5 626.5,889.5C 626.5,873.833 626.5,858.167 626.5,842.5 Z M 647.5,854.5 C 654.947,854.071 662.281,854.571 669.5,856C 668.182,857.908 666.348,858.742 664,858.5C 658.529,857.682 653.029,857.348 647.5,857.5C 647.5,856.5 647.5,855.5 647.5,854.5 Z"/></g>
<g><path style="opacity:0.95" fill="#005b99" d="M 705.5,842.5 C 723.5,842.5 741.5,842.5 759.5,842.5C 759.5,845.833 759.5,849.167 759.5,852.5C 750.161,852.334 740.827,852.5 731.5,853C 738.764,856.318 746.098,859.651 753.5,863C 761.618,870.73 761.285,878.397 752.5,886C 750.043,887.562 747.376,888.562 744.5,889C 730.171,889.5 715.837,889.667 701.5,889.5C 701.5,885.167 701.5,880.833 701.5,876.5C 712.5,876.5 723.5,876.5 734.5,876.5C 735.041,873.348 734.041,870.848 731.5,869C 721.427,866.045 711.927,861.878 703,856.5C 700.421,851.077 701.255,846.41 705.5,842.5 Z"/></g>
<g><path style="opacity:0.984" fill="#005b99" d="M 764.5,842.5 C 772.5,842.5 780.5,842.5 788.5,842.5C 788.5,858.167 788.5,873.833 788.5,889.5C 780.5,889.5 772.5,889.5 764.5,889.5C 764.5,873.833 764.5,858.167 764.5,842.5 Z"/></g>
<g><path style="opacity:0.958" fill="#005b99" d="M 790.5,842.5 C 809.833,842.5 829.167,842.5 848.5,842.5C 848.5,846.167 848.5,849.833 848.5,853.5C 842.833,853.5 837.167,853.5 831.5,853.5C 831.5,865.5 831.5,877.5 831.5,889.5C 823.833,889.5 816.167,889.5 808.5,889.5C 808.5,877.5 808.5,865.5 808.5,853.5C 802.5,853.5 796.5,853.5 790.5,853.5C 790.5,849.833 790.5,846.167 790.5,842.5 Z"/></g>
<g><path style="opacity:0.954" fill="#005b99" d="M 852.5,843.5 C 860.99,842.343 869.657,842.176 878.5,843C 882.044,846.375 885.377,849.875 888.5,853.5C 891.471,850.192 894.471,846.859 897.5,843.5C 905.479,842.335 913.479,842.168 921.5,843C 914.687,851.448 907.52,859.615 900,867.5C 899.5,874.826 899.334,882.159 899.5,889.5C 891.5,889.5 883.5,889.5 875.5,889.5C 875.666,882.492 875.5,875.492 875,868.5C 868.005,859.673 860.505,851.34 852.5,843.5 Z"/></g>
</svg>
