<?xml version="1.0" encoding="UTF-8"?>
<!DOCTYPE svg PUBLIC "-//W3C//DTD SVG 1.1//EN" "http://www.w3.org/Graphics/SVG/1.1/DTD/svg11.dtd">
<svg xmlns="http://www.w3.org/2000/svg" version="1.1" width="406px" height="406px" style="shape-rendering:geometricPrecision; text-rendering:geometricPrecision; image-rendering:optimizeQuality; fill-rule:evenodd; clip-rule:evenodd" xmlns:xlink="http://www.w3.org/1999/xlink">
<g><path style="opacity:0.991" fill="#220668" d="M 182.5,-0.5 C 195.833,-0.5 209.167,-0.5 222.5,-0.5C 299.751,9.91972 355.251,50.2531 389,120.5C 397.343,140.546 402.843,161.213 405.5,182.5C 405.5,195.833 405.5,209.167 405.5,222.5C 395.075,299.756 354.741,355.256 284.5,389C 264.456,397.342 243.79,402.842 222.5,405.5C 209.167,405.5 195.833,405.5 182.5,405.5C 105.243,395.072 49.7427,354.739 16,284.5C 7.65708,264.454 2.15708,243.787 -0.5,222.5C -0.5,209.167 -0.5,195.833 -0.5,182.5C 10.865,101.301 54.1983,44.4672 129.5,12C 146.902,6.06398 164.569,1.89731 182.5,-0.5 Z"/></g>
<g><path style="opacity:1" fill="#bbcaea" d="M 371.5,187.5 C 368.995,188.417 366.662,188.417 364.5,187.5C 366.042,186.699 367.708,186.366 369.5,186.5C 363.614,132.217 337.947,90.0503 292.5,60C 232.755,26.036 173.089,26.036 113.5,60C 68.3379,90.1224 42.3379,132.289 35.5,186.5C 37.5648,186.517 39.5648,186.85 41.5,187.5C 39.2743,188.756 36.941,188.756 34.5,187.5C 40.305,130.418 67.6383,86.5845 116.5,56C 175.527,24.0714 234.194,24.738 292.5,58C 339.351,88.5171 365.685,131.684 371.5,187.5 Z"/></g>
<g><path style="opacity:1" fill="#240969" d="M 364.5,187.5 C 345.91,188.486 327.243,188.82 308.5,188.5C 307.347,180.051 305.013,172.051 301.5,164.5C 301.598,162.447 300.931,160.78 299.5,159.5C 297.659,157.151 296.326,154.485 295.5,151.5C 295.25,149.326 294.25,147.659 292.5,146.5C 292.573,144.973 291.906,143.973 290.5,143.5C 290.573,141.973 289.906,140.973 288.5,140.5C 288.262,138.596 287.262,137.262 285.5,136.5C 284.243,133.573 282.243,131.239 279.5,129.5C 278.952,127.374 278.285,125.374 277.5,123.5C 277.5,122.833 277.167,122.5 276.5,122.5C 273.799,121.751 271.132,120.751 268.5,119.5C 268.611,120.117 268.944,120.617 269.5,121C 255.455,121.798 241.455,121.632 227.5,120.5C 196.511,112.753 168.511,118.586 143.5,138C 142.001,140.328 140.334,142.495 138.5,144.5C 133.558,146.971 128.558,149.471 123.5,152C 120.679,154.141 119.346,156.975 119.5,160.5C 119.5,164.833 119.5,169.167 119.5,173.5C 119.5,174.5 119.5,175.5 119.5,176.5C 119.5,180.167 119.5,183.833 119.5,187.5C 112.588,188.462 105.588,188.795 98.5,188.5C 100.03,180.047 102.03,171.714 104.5,163.5C 100.787,171.338 98.454,179.672 97.5,188.5C 78.757,188.82 60.0903,188.486 41.5,187.5C 39.5648,186.85 37.5648,186.517 35.5,186.5C 42.3379,132.289 68.3379,90.1224 113.5,60C 173.089,26.036 232.755,26.036 292.5,60C 337.947,90.0503 363.614,132.217 369.5,186.5C 367.708,186.366 366.042,186.699 364.5,187.5 Z"/></g>
<g><path style="opacity:1" fill="#fafafb" d="M 220.5,122.5 C 231.167,122.5 241.833,122.5 252.5,122.5C 250.302,123.165 247.969,123.832 245.5,124.5C 247.833,125.167 250.167,125.833 252.5,126.5C 211.188,127.832 211.188,128.499 252.5,128.5C 252.177,134.69 252.51,140.69 253.5,146.5C 257.808,148.141 260.808,151.141 262.5,155.5C 267.305,156.487 272.305,156.821 277.5,156.5C 277.818,166.083 277.485,175.583 276.5,185C 261.17,185.5 245.837,185.667 230.5,185.5C 229.362,182.696 229.195,179.696 230,176.5C 230.671,177.252 231.504,177.586 232.5,177.5C 233.386,178.776 234.386,178.776 235.5,177.5C 238.217,173.9 240.55,170.067 242.5,166C 239.987,162.605 238.987,158.772 239.5,154.5C 236.779,154.037 234.112,153.371 231.5,152.5C 230.909,151.849 230.243,151.182 229.5,150.5C 229.957,149.702 230.624,149.369 231.5,149.5C 233.78,150.767 236.28,151.767 239,152.5C 241.341,150.984 243.508,149.317 245.5,147.5C 246.5,147.5 247.5,147.5 248.5,147.5C 248.5,142.167 248.5,136.833 248.5,131.5C 239.532,131.813 232.532,135.48 227.5,142.5C 226.833,142.5 226.5,142.833 226.5,143.5C 224.771,145.727 222.438,146.727 219.5,146.5C 219.5,139.167 219.5,131.833 219.5,124.5C 220.338,124.158 220.672,123.492 220.5,122.5 Z"/></g>
<g><path style="opacity:1" fill="#6b6f77" d="M 219.5,124.5 C 219.5,131.833 219.5,139.167 219.5,146.5C 222.438,146.727 224.771,145.727 226.5,143.5C 226.586,144.496 226.252,145.329 225.5,146C 227.91,146.6 229.91,147.766 231.5,149.5C 230.624,149.369 229.957,149.702 229.5,150.5C 230.243,151.182 230.909,151.849 231.5,152.5C 230.177,155.938 229.51,159.771 229.5,164C 229.833,167.833 230.167,171.667 230.5,175.5C 231.522,175.855 232.189,176.522 232.5,177.5C 231.504,177.586 230.671,177.252 230,176.5C 229.195,179.696 229.362,182.696 230.5,185.5C 229.659,187.379 229.325,189.379 229.5,191.5C 229.5,192.833 228.833,193.5 227.5,193.5C 228.649,178.574 228.816,163.574 228,148.5C 216.915,147.513 205.748,147.179 194.5,147.5C 194.5,146.833 194.833,146.5 195.5,146.5C 203.167,146.5 210.833,146.5 218.5,146.5C 218.175,138.981 218.508,131.648 219.5,124.5 Z"/></g>
<g><path style="opacity:1" fill="#230867" d="M 279.5,129.5 C 280.757,132.427 282.757,134.761 285.5,136.5C 285.738,138.404 286.738,139.738 288.5,140.5C 288.427,142.027 289.094,143.027 290.5,143.5C 290.427,145.027 291.094,146.027 292.5,146.5C 292.75,148.674 293.75,150.341 295.5,151.5C 296.326,154.485 297.659,157.151 299.5,159.5C 299.402,161.553 300.069,163.22 301.5,164.5C 303.801,172.369 305.467,180.369 306.5,188.5C 301.833,188.5 297.167,188.5 292.5,188.5C 290.457,177.364 286.457,167.031 280.5,157.5C 282.265,156.539 284.265,156.205 286.5,156.5C 286.768,154.901 286.434,153.568 285.5,152.5C 285.66,150.801 285.494,149.134 285,147.5C 282.581,143.664 280.415,139.664 278.5,135.5C 278.205,133.265 278.539,131.265 279.5,129.5 Z"/></g>
<g><path style="opacity:1" fill="#bdccec" d="M 183.5,41.5 C 253.512,37.2528 307.012,64.5861 344,123.5C 352.587,139.593 358.587,156.593 362,174.5C 362.808,176.579 362.641,178.579 361.5,180.5C 350.144,119.322 315.811,76.8223 258.5,53C 188.137,31.1255 128.304,47.2921 79,101.5C 60.7568,124.888 49.0901,151.221 44,180.5C 46.5963,156.292 54.5963,133.959 68,113.5C 96.1696,73.1537 134.67,49.1537 183.5,41.5 Z"/></g>
<g><path style="opacity:1" fill="#817fb9" d="M 119.5,137.5 C 119.262,139.404 118.262,140.738 116.5,141.5C 116.738,139.596 117.738,138.262 119.5,137.5 Z"/></g>
<g><path style="opacity:1" fill="#8381ba" d="M 285.5,136.5 C 287.262,137.262 288.262,138.596 288.5,140.5C 286.738,139.738 285.738,138.404 285.5,136.5 Z"/></g>
<g><path style="opacity:1" fill="#7387b5" d="M 245.5,147.5 C 247.318,143.827 247.984,139.827 247.5,135.5C 244.079,135.974 240.745,135.974 237.5,135.5C 236.494,135.938 236.494,136.604 237.5,137.5C 235.063,138.803 232.896,140.47 231,142.5C 230.667,141.833 230.333,141.167 230,140.5C 229.292,141.381 228.458,142.047 227.5,142.5C 232.532,135.48 239.532,131.813 248.5,131.5C 248.5,136.833 248.5,142.167 248.5,147.5C 247.5,147.5 246.5,147.5 245.5,147.5 Z"/></g>
<g><path style="opacity:1" fill="#94b2f4" d="M 245.5,147.5 C 243.508,149.317 241.341,150.984 239,152.5C 236.28,151.767 233.78,150.767 231.5,149.5C 229.91,147.766 227.91,146.6 225.5,146C 226.252,145.329 226.586,144.496 226.5,143.5C 226.5,142.833 226.833,142.5 227.5,142.5C 228.458,142.047 229.292,141.381 230,140.5C 230.333,141.167 230.667,141.833 231,142.5C 232.896,140.47 235.063,138.803 237.5,137.5C 236.494,136.604 236.494,135.938 237.5,135.5C 240.745,135.974 244.079,135.974 247.5,135.5C 247.984,139.827 247.318,143.827 245.5,147.5 Z"/></g>
<g><path style="opacity:1" fill="#8989bf" d="M 119.5,137.5 C 120.373,135.114 121.873,133.114 124,131.5C 123.573,134.121 122.073,136.121 119.5,137.5 Z"/></g>
<g><path style="opacity:1" fill="#8989bf" d="M 279.5,129.5 C 282.243,131.239 284.243,133.573 285.5,136.5C 282.757,134.761 280.757,132.427 279.5,129.5 Z"/></g>
<g><path style="opacity:1" fill="#87878e" d="M 277.5,123.5 C 278.285,125.374 278.952,127.374 279.5,129.5C 278.539,131.265 278.205,133.265 278.5,135.5C 277.5,135.167 276.833,134.5 276.5,133.5C 277.479,130.375 277.813,127.042 277.5,123.5 Z"/></g>
<g><path style="opacity:1" fill="#5c5f65" d="M 269.5,127.5 C 271.527,127.338 273.527,127.505 275.5,128C 274.263,128.232 273.263,128.732 272.5,129.5C 270.973,129.573 269.973,128.906 269.5,127.5 Z"/></g>
<g><path style="opacity:1" fill="#808082" d="M 252.5,122.5 C 252.833,122.5 253.167,122.5 253.5,122.5C 253.5,130.5 253.5,138.5 253.5,146.5C 252.51,140.69 252.177,134.69 252.5,128.5C 211.188,128.499 211.188,127.832 252.5,126.5C 250.167,125.833 247.833,125.167 245.5,124.5C 247.969,123.832 250.302,123.165 252.5,122.5 Z"/></g>
<g><path style="opacity:1" fill="#766dae" d="M 138.5,118.5 C 135.814,122.373 132.481,125.206 128.5,127C 131.432,123.558 134.765,120.725 138.5,118.5 Z"/></g>
<g><path style="opacity:1" fill="#cce0f9" d="M 314.5,124.5 C 325.955,124.778 330.455,130.445 328,141.5C 325.068,145.204 322.902,144.537 321.5,139.5C 324.667,135.49 323.834,132.823 319,131.5C 314.054,132.101 311.721,134.767 312,139.5C 313.916,140.928 316.083,141.928 318.5,142.5C 321.482,145.959 320.649,147.959 316,148.5C 307.804,145.783 304.47,140.116 306,131.5C 308.441,128.546 311.275,126.213 314.5,124.5 Z"/></g>
<g><path style="opacity:1" fill="#707277" d="M 260.5,123.5 C 262.833,123.5 265.167,123.5 267.5,123.5C 267.5,124.5 267.5,125.5 267.5,126.5C 264.982,125.736 262.649,124.736 260.5,123.5 Z"/></g>
<g><path style="opacity:1" fill="#95b4f8" d="M 253.5,122.5 C 255.806,122.993 258.139,123.326 260.5,123.5C 262.649,124.736 264.982,125.736 267.5,126.5C 268.492,126.328 269.158,126.662 269.5,127.5C 269.973,128.906 270.973,129.573 272.5,129.5C 274.341,130.402 275.674,131.736 276.5,133.5C 276.833,134.5 277.5,135.167 278.5,135.5C 280.415,139.664 282.581,143.664 285,147.5C 285.494,149.134 285.66,150.801 285.5,152.5C 285.5,153.5 285.5,154.5 285.5,155.5C 277.833,155.5 270.167,155.5 262.5,155.5C 260.808,151.141 257.808,148.141 253.5,146.5C 253.5,138.5 253.5,130.5 253.5,122.5 Z"/></g>
<g><path style="opacity:1" fill="#cbdff8" d="M 86.5,122.5 C 94.2239,124.179 101.891,126.179 109.5,128.5C 108.376,129.914 107.376,131.414 106.5,133C 102.509,133.487 99.8423,135.654 98.5,139.5C 100.798,142.652 100.131,145.318 96.5,147.5C 91.7726,142.392 87.2726,137.059 83,131.5C 82.873,128.084 84.0397,125.084 86.5,122.5 Z"/></g>
<g><path style="opacity:1" fill="#2f1772" d="M 89.5,130.5 C 89.56,129.957 89.8933,129.624 90.5,129.5C 92.323,130.747 94.323,131.414 96.5,131.5C 96.6882,133.103 96.1882,134.437 95,135.5C 93.2962,133.627 91.4628,131.96 89.5,130.5 Z"/></g>
<g><path style="opacity:1" fill="#e7e7e7" d="M 260.5,123.5 C 265.64,122.512 270.974,122.179 276.5,122.5C 277.167,122.5 277.5,122.833 277.5,123.5C 277.813,127.042 277.479,130.375 276.5,133.5C 275.674,131.736 274.341,130.402 272.5,129.5C 273.263,128.732 274.263,128.232 275.5,128C 273.527,127.505 271.527,127.338 269.5,127.5C 269.158,126.662 268.492,126.328 267.5,126.5C 267.5,125.5 267.5,124.5 267.5,123.5C 265.167,123.5 262.833,123.5 260.5,123.5 Z"/></g>
<g><path style="opacity:1" fill="#656270" d="M 268.5,119.5 C 271.132,120.751 273.799,121.751 276.5,122.5C 270.974,122.179 265.64,122.512 260.5,123.5C 258.139,123.326 255.806,122.993 253.5,122.5C 253.167,122.5 252.833,122.5 252.5,122.5C 241.833,122.5 231.167,122.5 220.5,122.5C 222.833,121.833 225.167,121.167 227.5,120.5C 241.455,121.632 255.455,121.798 269.5,121C 268.944,120.617 268.611,120.117 268.5,119.5 Z"/></g>
<g><path style="opacity:1" fill="#c7d9fb" d="M 227.5,120.5 C 225.167,121.167 222.833,121.833 220.5,122.5C 220.672,123.492 220.338,124.158 219.5,124.5C 218.508,131.648 218.175,138.981 218.5,146.5C 210.833,146.5 203.167,146.5 195.5,146.5C 177.05,141.568 158.384,141.234 139.5,145.5C 138.893,145.376 138.56,145.043 138.5,144.5C 140.334,142.495 142.001,140.328 143.5,138C 168.511,118.586 196.511,112.753 227.5,120.5 Z"/></g>
<g><path style="opacity:1" fill="#5c6575" d="M 181.5,124.5 C 187.509,124.334 193.509,124.501 199.5,125C 194.167,125.333 188.833,125.667 183.5,126C 176.328,127.774 169.328,129.774 162.5,132C 168.718,128.879 175.051,126.379 181.5,124.5 Z"/></g>
<g><path style="opacity:1" fill="#6f798c" d="M 214.5,122.5 C 218.075,123.207 218.242,124.207 215,125.5C 213.317,124.824 213.15,123.824 214.5,122.5 Z"/></g>
<g><path style="opacity:1" fill="#737d91" d="M 188.5,119.5 C 195.969,119.233 203.302,120.067 210.5,122C 205.528,122.002 200.528,121.835 195.5,121.5C 190.047,121.371 184.714,122.038 179.5,123.5C 178.304,123.154 178.304,122.654 179.5,122C 182.628,121.159 185.628,120.325 188.5,119.5 Z"/></g>
<g><path style="opacity:1" fill="#9ea5d2" d="M 268.5,119.5 C 262.736,116.252 257.069,112.752 251.5,109C 258.017,110.995 263.683,114.495 268.5,119.5 Z"/></g>
<g><path style="opacity:1" fill="#a2aad5" d="M 152.5,109.5 C 148.181,112.996 143.515,115.996 138.5,118.5C 142.479,114.506 147.145,111.506 152.5,109.5 Z"/></g>
<g><path style="opacity:1" fill="#999ecd" d="M 160.5,105.5 C 158.151,107.341 155.485,108.674 152.5,109.5C 154.579,107.127 157.246,105.794 160.5,105.5 Z"/></g>
<g><path style="opacity:1" fill="#6a62a5" d="M 300.5,100.5 C 300.187,104.042 300.521,107.375 301.5,110.5C 301.217,111.289 300.717,111.956 300,112.5C 299.188,108.311 299.355,104.311 300.5,100.5 Z"/></g>
<g><path style="opacity:1" fill="#999ece" d="M 237.5,102.5 C 241.062,102.965 244.395,104.132 247.5,106C 243.852,105.728 240.518,104.562 237.5,102.5 Z"/></g>
<g><path style="opacity:1" fill="#a6afd9" d="M 165.5,103.5 C 164.22,104.931 162.553,105.598 160.5,105.5C 161.78,104.069 163.447,103.402 165.5,103.5 Z"/></g>
<g><path style="opacity:1" fill="#9fa5d2" d="M 237.5,102.5 C 226.012,99.641 214.345,97.9743 202.5,97.5C 189.861,97.6949 177.528,99.6949 165.5,103.5C 177.119,98.1198 189.452,95.7864 202.5,96.5C 214.742,95.9119 226.409,97.9119 237.5,102.5 Z"/></g>
<g><path style="opacity:1" fill="#cbdef8" d="M 300.5,100.5 C 299.355,104.311 299.188,108.311 300,112.5C 300.717,111.956 301.217,111.289 301.5,110.5C 304.467,104.491 307.801,104.158 311.5,109.5C 306.515,114.985 301.348,120.319 296,125.5C 294.667,124.167 293.333,122.833 292,121.5C 292,116.833 292,112.167 292,107.5C 289.667,109.833 287.333,112.167 285,114.5C 283.315,112.983 281.815,111.316 280.5,109.5C 285.485,104.015 290.652,98.6813 296,93.5C 298.582,95.2278 300.082,97.5611 300.5,100.5 Z"/></g>
<g><path style="opacity:1" fill="#cce0f9" d="M 113.5,92.5 C 115.544,93.0312 117.211,94.1978 118.5,96C 116.046,97.7401 114.546,99.9067 114,102.5C 117.5,106 121,109.5 124.5,113C 122.983,114.685 121.316,116.185 119.5,117.5C 115.682,114.182 112.015,110.682 108.5,107C 107.833,106.333 107.167,106.333 106.5,107C 105.315,108.353 103.981,109.52 102.5,110.5C 101.019,109.52 99.6853,108.353 98.5,107C 103.395,101.936 108.395,97.1026 113.5,92.5 Z"/></g>
<g><path style="opacity:1" fill="#cde1fa" d="M 136.5,77.5 C 138.783,77.6079 140.783,78.4412 142.5,80C 146.875,84.1756 151.209,88.3422 155.5,92.5C 153.807,94.0267 151.973,95.3601 150,96.5C 147.21,94.1689 144.376,94.3355 141.5,97C 140.773,98.3988 140.273,99.8988 140,101.5C 138.333,102.5 136.667,103.5 135,104.5C 133.502,96.5188 132.502,88.5188 132,80.5C 133.652,79.6006 135.152,78.6006 136.5,77.5 Z"/></g>
<g><path style="opacity:1" fill="#39237a" d="M 138.5,85.5 C 140.296,86.7927 141.963,88.2927 143.5,90C 142.421,90.956 141.255,91.7894 140,92.5C 138.648,90.4062 138.148,88.0728 138.5,85.5 Z"/></g>
<g><path style="opacity:1" fill="#cbdff8" d="M 266.5,75.5 C 272.743,77.6219 278.41,80.7886 283.5,85C 283.275,86.6209 282.442,87.7875 281,88.5C 277.612,87.223 274.445,85.5564 271.5,83.5C 269.646,84.1756 269.313,85.1756 270.5,86.5C 272.583,87.9587 274.75,89.2921 277,90.5C 277.624,92.4645 277.124,94.1311 275.5,95.5C 272.749,93.7073 269.916,92.0406 267,90.5C 265.049,92.1371 265.216,93.6371 267.5,95C 270.249,96.1227 272.749,97.6227 275,99.5C 274.956,101.279 274.289,102.945 273,104.5C 267.033,101.44 261.533,97.7736 256.5,93.5C 260.291,87.7207 263.624,81.7207 266.5,75.5 Z"/></g>
<g><path style="opacity:1" fill="#cbdff8" d="M 246.5,67.5 C 249.016,67.7553 251.35,68.5886 253.5,70C 251.141,76.0747 248.975,82.2413 247,88.5C 246.612,89.428 245.945,90.0946 245,90.5C 242.736,90.1463 240.902,89.1463 239.5,87.5C 241.842,80.805 244.176,74.1384 246.5,67.5 Z"/></g>
<g><path style="opacity:1" fill="#cadef8" d="M 214.5,61.5 C 220.971,60.3446 226.471,62.0112 231,66.5C 231.495,68.4727 231.662,70.4727 231.5,72.5C 229.194,72.0074 226.861,71.6741 224.5,71.5C 224.2,67.0236 222.033,65.6903 218,67.5C 215.84,71.5193 216.006,75.3527 218.5,79C 219.833,79.6667 221.167,79.6667 222.5,79C 223.56,77.702 224.726,76.5353 226,75.5C 227.44,76.1476 228.94,76.4809 230.5,76.5C 230.673,80.1704 229.007,82.6704 225.5,84C 212.336,85.8387 207.169,80.3387 210,67.5C 211.332,65.34 212.832,63.34 214.5,61.5 Z"/></g>
<g><path style="opacity:1" fill="#cbdff8" d="M 183.5,61.5 C 187.911,61.021 192.078,61.6876 196,63.5C 196.5,64.5 197,65.5 197.5,66.5C 194.361,67.6028 191.194,67.6028 188,66.5C 186.596,66.5093 185.43,67.0093 184.5,68C 188.358,69.2729 192.358,70.2729 196.5,71C 200.601,75.2943 200.268,79.2943 195.5,83C 190.473,84.9386 185.473,84.9386 180.5,83C 179.139,81.4157 178.472,79.5824 178.5,77.5C 181.826,77.3543 184.993,78.021 188,79.5C 190.965,79.5616 191.798,78.3949 190.5,76C 187.5,75.6667 184.5,75.3333 181.5,75C 175.72,69.514 176.387,65.014 183.5,61.5 Z"/></g>
<g><path style="opacity:1" fill="#8280b9" d="M 288.5,140.5 C 289.906,140.973 290.573,141.973 290.5,143.5C 289.094,143.027 288.427,142.027 288.5,140.5 Z"/></g>
<g><path style="opacity:1" fill="#8282ba" d="M 116.5,141.5 C 116.573,143.027 115.906,144.027 114.5,144.5C 114.427,142.973 115.094,141.973 116.5,141.5 Z"/></g>
<g><path style="opacity:1" fill="#96b5fa" d="M 195.5,146.5 C 194.833,146.5 194.5,146.833 194.5,147.5C 193.517,162.422 193.184,177.422 193.5,192.5C 192.549,191.081 192.216,189.415 192.5,187.5C 192.5,186.167 192.5,184.833 192.5,183.5C 192.666,179.154 192.499,174.821 192,170.5C 185.277,172.008 178.444,173.008 171.5,173.5C 170.809,171.978 169.642,170.978 168,170.5C 165.217,171.734 162.384,172.734 159.5,173.5C 148.487,173.064 137.82,170.897 127.5,167C 124.669,164.999 122.003,162.833 119.5,160.5C 119.346,156.975 120.679,154.141 123.5,152C 128.558,149.471 133.558,146.971 138.5,144.5C 138.56,145.043 138.893,145.376 139.5,145.5C 158.384,141.234 177.05,141.568 195.5,146.5 Z"/></g>
<g><path style="opacity:1" fill="#8685bd" d="M 290.5,143.5 C 291.906,143.973 292.573,144.973 292.5,146.5C 291.094,146.027 290.427,145.027 290.5,143.5 Z"/></g>
<g><path style="opacity:1" fill="#8f91c5" d="M 114.5,144.5 C 114.573,146.027 113.906,147.027 112.5,147.5C 112.427,145.973 113.094,144.973 114.5,144.5 Z"/></g>
<g><path style="opacity:1" fill="#fcfcfd" d="M 194.5,147.5 C 205.748,147.179 216.915,147.513 228,148.5C 228.816,163.574 228.649,178.574 227.5,193.5C 219.833,193.5 212.167,193.5 204.5,193.5C 205.164,190.863 205.831,188.197 206.5,185.5C 206.376,184.893 206.043,184.56 205.5,184.5C 205.334,176.493 205.5,168.493 206,160.5C 207.252,169.12 207.752,177.787 207.5,186.5C 210.167,186.5 212.833,186.5 215.5,186.5C 215.216,184.585 215.549,182.919 216.5,181.5C 216.5,182.167 216.833,182.5 217.5,182.5C 217.5,183.833 217.5,185.167 217.5,186.5C 220.167,186.5 222.833,186.5 225.5,186.5C 225.5,184.167 225.5,181.833 225.5,179.5C 227.402,176.663 228.069,173.329 227.5,169.5C 224.223,169.216 221.057,169.549 218,170.5C 217.828,164.319 217.328,158.319 216.5,152.5C 213.833,151.167 211.167,151.167 208.5,152.5C 207.686,154.631 207.186,156.964 207,159.5C 203.725,157.909 200.725,158.242 198,160.5C 197.5,169.16 197.334,177.827 197.5,186.5C 199.167,186.5 200.833,186.5 202.5,186.5C 201.2,187.601 200.7,188.934 201,190.5C 202.316,187.972 203.483,187.972 204.5,190.5C 203.66,191.735 202.66,192.735 201.5,193.5C 200.596,194.209 200.263,195.209 200.5,196.5C 198.836,199.159 197.17,201.825 195.5,204.5C 193.046,205.227 190.713,206.227 188.5,207.5C 185.518,207.037 182.518,206.704 179.5,206.5C 179.517,204.435 179.85,202.435 180.5,200.5C 183.941,199.903 187.275,199.237 190.5,198.5C 193.455,198.019 195.789,196.519 197.5,194C 195.942,193.79 194.609,193.29 193.5,192.5C 193.184,177.422 193.517,162.422 194.5,147.5 Z"/></g>
<g><path style="opacity:1" fill="#9497c9" d="M 292.5,146.5 C 294.25,147.659 295.25,149.326 295.5,151.5C 293.75,150.341 292.75,148.674 292.5,146.5 Z"/></g>
<g><path style="opacity:1" fill="#9295c7" d="M 112.5,147.5 C 111.872,150.09 110.705,152.423 109,154.5C 109.085,151.664 110.251,149.331 112.5,147.5 Z"/></g>
<g><path style="opacity:1" fill="#cbdef8" d="M 75.5,150.5 C 85.956,149.792 90.7893,154.458 90,164.5C 88.85,168.112 88.0166,171.778 87.5,175.5C 79.7157,173.797 72.3824,171.13 65.5,167.5C 66.6229,160.387 69.9562,154.721 75.5,150.5 Z"/></g>
<g><path style="opacity:1" fill="#707786" d="M 216.5,152.5 C 214.167,152.5 211.833,152.5 209.5,152.5C 209.167,184.5 208.833,184.5 208.5,152.5C 211.167,151.167 213.833,151.167 216.5,152.5 Z"/></g>
<g><path style="opacity:1" fill="#c5d5f1" d="M 208.5,152.5 C 208.833,184.5 209.167,184.5 209.5,152.5C 211.833,152.5 214.167,152.5 216.5,152.5C 216.5,162.167 216.5,171.833 216.5,181.5C 215.549,182.919 215.216,184.585 215.5,186.5C 212.833,186.5 210.167,186.5 207.5,186.5C 207.752,177.787 207.252,169.12 206,160.5C 205.5,168.493 205.334,176.493 205.5,184.5C 204.5,185.167 203.5,185.833 202.5,186.5C 200.833,186.5 199.167,186.5 197.5,186.5C 197.334,177.827 197.5,169.16 198,160.5C 200.725,158.242 203.725,157.909 207,159.5C 207.186,156.964 207.686,154.631 208.5,152.5 Z"/></g>
<g><path style="opacity:1" fill="#90aae5" d="M 231.5,152.5 C 234.112,153.371 236.779,154.037 239.5,154.5C 238.987,158.772 239.987,162.605 242.5,166C 240.55,170.067 238.217,173.9 235.5,177.5C 234.386,178.776 233.386,178.776 232.5,177.5C 232.189,176.522 231.522,175.855 230.5,175.5C 230.167,171.667 229.833,167.833 229.5,164C 229.51,159.771 230.177,155.938 231.5,152.5 Z"/></g>
<g><path style="opacity:1" fill="#caddf7" d="M 335.5,153.5 C 337.124,153.36 338.29,154.027 339,155.5C 340.974,161.062 342.474,166.729 343.5,172.5C 341.856,172.286 340.356,172.62 339,173.5C 338.086,169.396 336.419,165.73 334,162.5C 333.5,162.833 333,163.167 332.5,163.5C 333.813,166.405 334.313,169.405 334,172.5C 332.644,173.38 331.144,173.714 329.5,173.5C 329.452,170.687 328.785,168.021 327.5,165.5C 326.675,164.614 325.675,164.281 324.5,164.5C 325.344,168.874 326.344,173.207 327.5,177.5C 325.669,178.052 324.003,178.052 322.5,177.5C 320.652,171.772 318.652,166.106 316.5,160.5C 322.822,157.95 329.155,155.617 335.5,153.5 Z"/></g>
<g><path style="opacity:1" fill="#333647" d="M 285.5,152.5 C 286.434,153.568 286.768,154.901 286.5,156.5C 284.265,156.205 282.265,156.539 280.5,157.5C 280.167,157.5 279.833,157.5 279.5,157.5C 279.158,156.662 278.492,156.328 277.5,156.5C 272.305,156.821 267.305,156.487 262.5,155.5C 270.167,155.5 277.833,155.5 285.5,155.5C 285.5,154.5 285.5,153.5 285.5,152.5 Z"/></g>
<g><path style="opacity:1" fill="#a0a6b2" d="M 277.5,156.5 C 278.492,156.328 279.158,156.662 279.5,157.5C 279.666,166.173 279.5,174.84 279,183.5C 278.626,184.416 278.126,185.25 277.5,186C 261.929,187.469 246.263,187.969 230.5,187.5C 230.768,189.099 230.434,190.432 229.5,191.5C 229.325,189.379 229.659,187.379 230.5,185.5C 245.837,185.667 261.17,185.5 276.5,185C 277.485,175.583 277.818,166.083 277.5,156.5 Z"/></g>
<g><path style="opacity:1" fill="#2e1671" d="M 75.5,157.5 C 82.0264,157.224 85.0264,160.224 84.5,166.5C 81.0534,166.186 77.7201,165.352 74.5,164C 73.1443,161.586 73.4776,159.419 75.5,157.5 Z"/></g>
<g><path style="opacity:1" fill="#8889bf" d="M 104.5,163.5 C 104.755,160.984 105.589,158.65 107,156.5C 107.295,159.242 106.462,161.575 104.5,163.5 Z"/></g>
<g><path style="opacity:1" fill="#727883" d="M 274.5,161.5 C 272.603,160.195 270.269,159.529 267.5,159.5C 264.559,159.621 261.892,160.287 259.5,161.5C 259.5,160.5 259.5,159.5 259.5,158.5C 264.833,158.5 270.167,158.5 275.5,158.5C 275.737,159.791 275.404,160.791 274.5,161.5 Z"/></g>
<g><path style="opacity:1" fill="#c8dafd" d="M 279.5,157.5 C 279.833,157.5 280.167,157.5 280.5,157.5C 286.457,167.031 290.457,177.364 292.5,188.5C 292.5,189.833 292.5,191.167 292.5,192.5C 292.167,192.5 291.833,192.5 291.5,192.5C 272.338,191.338 253.004,191.171 233.5,192C 232.531,196.737 232.197,201.57 232.5,206.5C 226.167,206.5 219.833,206.5 213.5,206.5C 213.5,202.5 213.5,198.5 213.5,194.5C 218.363,194.819 223.03,194.486 227.5,193.5C 228.833,193.5 229.5,192.833 229.5,191.5C 230.434,190.432 230.768,189.099 230.5,187.5C 246.263,187.969 261.929,187.469 277.5,186C 278.126,185.25 278.626,184.416 279,183.5C 279.5,174.84 279.666,166.173 279.5,157.5 Z"/></g>
<g><path style="opacity:1" fill="#8fabea" d="M 274.5,161.5 C 274.737,162.791 274.404,163.791 273.5,164.5C 272.732,163.737 272.232,162.737 272,161.5C 269.5,170.667 263.667,176.5 254.5,179C 255.167,179.333 255.833,179.667 256.5,180C 255.584,180.278 254.918,180.778 254.5,181.5C 250.253,182.602 245.92,182.768 241.5,182C 239.579,181.64 237.912,180.806 236.5,179.5C 238.969,175.199 241.636,171.033 244.5,167C 246.377,166.424 248.211,166.591 250,167.5C 254.151,166.853 257.317,164.853 259.5,161.5C 261.892,160.287 264.559,159.621 267.5,159.5C 270.269,159.529 272.603,160.195 274.5,161.5 Z"/></g>
<g><path style="opacity:1" fill="#8b8cc2" d="M 299.5,159.5 C 300.931,160.78 301.598,162.447 301.5,164.5C 300.069,163.22 299.402,161.553 299.5,159.5 Z"/></g>
<g><path style="opacity:1" fill="#5479f5" d="M 119.5,160.5 C 122.003,162.833 124.669,164.999 127.5,167C 137.82,170.897 148.487,173.064 159.5,173.5C 159.337,175.857 159.503,178.19 160,180.5C 161.372,181.91 162.205,183.577 162.5,185.5C 151.938,185.621 141.604,184.121 131.5,181C 126.967,179.24 122.967,176.74 119.5,173.5C 119.5,169.167 119.5,164.833 119.5,160.5 Z"/></g>
<g><path style="opacity:1" fill="#8d8ec3" d="M 104.5,163.5 C 102.03,171.714 100.03,180.047 98.5,188.5C 98.1667,188.5 97.8333,188.5 97.5,188.5C 98.454,179.672 100.787,171.338 104.5,163.5 Z"/></g>
<g><path style="opacity:1" fill="#8989c0" d="M 301.5,164.5 C 305.013,172.051 307.347,180.051 308.5,188.5C 307.833,188.5 307.167,188.5 306.5,188.5C 305.467,180.369 303.801,172.369 301.5,164.5 Z"/></g>
<g><path style="opacity:1" fill="#17181f" d="M 171.5,173.5 C 170.058,174.82 169.392,176.486 169.5,178.5C 168.768,177.192 167.934,175.858 167,174.5C 164.375,178.176 162.875,182.176 162.5,186.5C 162.5,186.167 162.5,185.833 162.5,185.5C 162.205,183.577 161.372,181.91 160,180.5C 159.503,178.19 159.337,175.857 159.5,173.5C 162.384,172.734 165.217,171.734 168,170.5C 169.642,170.978 170.809,171.978 171.5,173.5 Z"/></g>
<g><path style="opacity:1" fill="#5478f4" d="M 192.5,183.5 C 184.877,184.606 177.21,185.273 169.5,185.5C 168.375,184.652 168.375,183.652 169.5,182.5C 169.5,181.167 169.5,179.833 169.5,178.5C 169.392,176.486 170.058,174.82 171.5,173.5C 178.444,173.008 185.277,172.008 192,170.5C 192.499,174.821 192.666,179.154 192.5,183.5 Z"/></g>
<g><path style="opacity:1" fill="#8e939c" d="M 216.5,152.5 C 217.328,158.319 217.828,164.319 218,170.5C 221.057,169.549 224.223,169.216 227.5,169.5C 228.069,173.329 227.402,176.663 225.5,179.5C 225.5,176.5 225.5,173.5 225.5,170.5C 223.5,170.5 221.5,170.5 219.5,170.5C 219.666,174.846 219.499,179.179 219,183.5C 218.617,182.944 218.117,182.611 217.5,182.5C 216.833,182.5 216.5,182.167 216.5,181.5C 216.5,171.833 216.5,162.167 216.5,152.5 Z"/></g>
<g><path style="opacity:1" fill="#cedffe" d="M 225.5,179.5 C 225.5,181.833 225.5,184.167 225.5,186.5C 222.833,186.5 220.167,186.5 217.5,186.5C 217.5,185.167 217.5,183.833 217.5,182.5C 218.117,182.611 218.617,182.944 219,183.5C 219.499,179.179 219.666,174.846 219.5,170.5C 221.5,170.5 223.5,170.5 225.5,170.5C 225.5,173.5 225.5,176.5 225.5,179.5 Z"/></g>
<g><path style="opacity:1" fill="#607095" d="M 273.5,164.5 C 270.679,173.983 264.346,179.649 254.5,181.5C 254.918,180.778 255.584,180.278 256.5,180C 255.833,179.667 255.167,179.333 254.5,179C 263.667,176.5 269.5,170.667 272,161.5C 272.232,162.737 272.732,163.737 273.5,164.5 Z"/></g>
<g><path style="opacity:1" fill="#8faef4" d="M 119.5,173.5 C 122.967,176.74 126.967,179.24 131.5,181C 141.604,184.121 151.938,185.621 162.5,185.5C 162.5,185.833 162.5,186.167 162.5,186.5C 159.848,186.41 157.515,187.076 155.5,188.5C 153.525,190.137 151.525,191.804 149.5,193.5C 149.511,191.983 150.177,190.816 151.5,190C 141.516,188.841 132.183,185.841 123.5,181C 121.93,179.603 120.596,178.103 119.5,176.5C 119.5,175.5 119.5,174.5 119.5,173.5 Z"/></g>
<g><path style="opacity:1" fill="#eaeaea" d="M 169.5,178.5 C 169.5,179.833 169.5,181.167 169.5,182.5C 168.127,182.343 166.793,182.51 165.5,183C 166.883,184.271 167.883,185.771 168.5,187.5C 166.265,187.795 164.265,187.461 162.5,186.5C 162.875,182.176 164.375,178.176 167,174.5C 167.934,175.858 168.768,177.192 169.5,178.5 Z"/></g>
<g><path style="opacity:1" fill="#5479f5" d="M 119.5,176.5 C 120.596,178.103 121.93,179.603 123.5,181C 132.183,185.841 141.516,188.841 151.5,190C 150.177,190.816 149.511,191.983 149.5,193.5C 148.326,194.514 147.66,195.847 147.5,197.5C 146.599,198.29 145.932,199.29 145.5,200.5C 135.185,200.297 126.519,196.63 119.5,189.5C 119.5,188.833 119.5,188.167 119.5,187.5C 119.5,183.833 119.5,180.167 119.5,176.5 Z"/></g>
<g><path style="opacity:1" fill="#94b4fe" d="M 192.5,183.5 C 192.5,184.833 192.5,186.167 192.5,187.5C 187.614,188.721 182.614,189.388 177.5,189.5C 176.395,188.4 175.062,187.733 173.5,187.5C 172.167,186.833 170.833,186.167 169.5,185.5C 177.21,185.273 184.877,184.606 192.5,183.5 Z"/></g>
<g><path style="opacity:1" fill="#4f5773" d="M 169.5,182.5 C 168.375,183.652 168.375,184.652 169.5,185.5C 170.833,186.167 172.167,186.833 173.5,187.5C 171.833,187.5 170.167,187.5 168.5,187.5C 167.883,185.771 166.883,184.271 165.5,183C 166.793,182.51 168.127,182.343 169.5,182.5 Z"/></g>
<g><path style="opacity:1" fill="#c4d7f8" d="M 168.5,187.5 C 170.167,187.5 171.833,187.5 173.5,187.5C 175.239,190.243 177.573,192.243 180.5,193.5C 181.5,193.833 182.167,194.5 182.5,195.5C 182.586,196.496 182.252,197.329 181.5,198C 176.649,198.174 171.982,198.674 167.5,199.5C 165.99,202.683 164.657,206.016 163.5,209.5C 161.545,210.323 159.545,210.49 157.5,210C 155.574,209.578 154.574,208.411 154.5,206.5C 154.785,204.712 154.452,203.045 153.5,201.5C 151.22,202.136 149.22,203.136 147.5,204.5C 146.761,204.631 146.094,204.464 145.5,204C 147.016,202.103 147.683,199.936 147.5,197.5C 147.66,195.847 148.326,194.514 149.5,193.5C 151.525,191.804 153.525,190.137 155.5,188.5C 159.925,188.293 164.259,187.96 168.5,187.5 Z"/></g>
<g><path style="opacity:1" fill="#6e7583" d="M 162.5,186.5 C 164.265,187.461 166.265,187.795 168.5,187.5C 164.259,187.96 159.925,188.293 155.5,188.5C 157.515,187.076 159.848,186.41 162.5,186.5 Z"/></g>
<g><path style="opacity:1" fill="#5b698e" d="M 173.5,187.5 C 175.062,187.733 176.395,188.4 177.5,189.5C 178.5,190.833 179.5,192.167 180.5,193.5C 177.573,192.243 175.239,190.243 173.5,187.5 Z"/></g>
<g><path style="opacity:1" fill="#959696" d="M 205.5,184.5 C 206.043,184.56 206.376,184.893 206.5,185.5C 205.831,188.197 205.164,190.863 204.5,193.5C 203.5,193.5 202.5,193.5 201.5,193.5C 202.66,192.735 203.66,191.735 204.5,190.5C 203.483,187.972 202.316,187.972 201,190.5C 200.7,188.934 201.2,187.601 202.5,186.5C 203.5,185.833 204.5,185.167 205.5,184.5 Z"/></g>
<g><path style="opacity:1" fill="#204a87" d="M 34.5,187.5 C 36.941,188.756 39.2743,188.756 41.5,187.5C 60.0903,188.486 78.757,188.82 97.5,188.5C 97.8333,188.5 98.1667,188.5 98.5,188.5C 105.588,188.795 112.588,188.462 119.5,187.5C 119.5,188.167 119.5,188.833 119.5,189.5C 119.5,190.833 119.5,192.167 119.5,193.5C 119.5,197.5 119.5,201.5 119.5,205.5C 119.5,206.833 119.5,208.167 119.5,209.5C 119.5,211.833 119.5,214.167 119.5,216.5C 112.5,216.5 105.5,216.5 98.5,216.5C 98.1667,216.5 97.8333,216.5 97.5,216.5C 78.757,216.18 60.0903,216.514 41.5,217.5C 39.3382,216.583 37.0048,216.583 34.5,217.5C 33.1667,207.5 33.1667,197.5 34.5,187.5 Z"/></g>
<g><path style="opacity:1" fill="#5376ed" d="M 192.5,187.5 C 192.216,189.415 192.549,191.081 193.5,192.5C 194.609,193.29 195.942,193.79 197.5,194C 195.789,196.519 193.455,198.019 190.5,198.5C 188.167,198.5 185.833,198.5 183.5,198.5C 183.737,197.209 183.404,196.209 182.5,195.5C 182.167,194.5 181.5,193.833 180.5,193.5C 179.5,192.167 178.5,190.833 177.5,189.5C 182.614,189.388 187.614,188.721 192.5,187.5 Z"/></g>
<g><path style="opacity:1" fill="#234c89" d="M 364.5,187.5 C 366.662,188.417 368.995,188.417 371.5,187.5C 371.5,197.5 371.5,207.5 371.5,217.5C 368.959,216.897 366.626,216.897 364.5,217.5C 345.341,215.841 326.341,216.175 307.5,218.5C 307.167,218.5 306.833,218.5 306.5,218.5C 302.627,216.57 298.294,215.903 293.5,216.5C 293.826,208.316 293.492,200.316 292.5,192.5C 292.5,191.167 292.5,189.833 292.5,188.5C 297.167,188.5 301.833,188.5 306.5,188.5C 307.167,188.5 307.833,188.5 308.5,188.5C 327.243,188.82 345.91,188.486 364.5,187.5 Z"/></g>
<g><path style="opacity:1" fill="#91b2fb" d="M 119.5,189.5 C 126.519,196.63 135.185,200.297 145.5,200.5C 145.167,201.833 144.833,203.167 144.5,204.5C 134.56,204.09 126.227,200.424 119.5,193.5C 119.5,192.167 119.5,190.833 119.5,189.5 Z"/></g>
<g><path style="opacity:1" fill="#9ebcfe" d="M 291.5,192.5 C 292.472,201.75 292.805,211.083 292.5,220.5C 292.167,220.5 291.833,220.5 291.5,220.5C 287.5,220.5 283.5,220.5 279.5,220.5C 279.5,219.167 279.5,217.833 279.5,216.5C 282.833,216.5 286.167,216.5 289.5,216.5C 289.5,215.167 289.5,213.833 289.5,212.5C 286.167,212.5 282.833,212.5 279.5,212.5C 279.5,211.833 279.5,211.167 279.5,210.5C 282.833,210.5 286.167,210.5 289.5,210.5C 289.5,209.167 289.5,207.833 289.5,206.5C 285.5,206.5 281.5,206.5 277.5,206.5C 269.5,206.5 261.5,206.5 253.5,206.5C 253.5,204.5 253.5,202.5 253.5,200.5C 247.833,200.5 242.167,200.5 236.5,200.5C 236.5,202.5 236.5,204.5 236.5,206.5C 235.5,206.5 234.5,206.5 233.5,206.5C 233.2,201.901 233.533,197.401 234.5,193C 253.497,192.5 272.497,192.333 291.5,192.5 Z"/></g>
<g><path style="opacity:1" fill="#5f6a8d" d="M 201.5,193.5 C 202.5,193.5 203.5,193.5 204.5,193.5C 212.167,193.5 219.833,193.5 227.5,193.5C 223.03,194.486 218.363,194.819 213.5,194.5C 213.167,194.5 212.833,194.5 212.5,194.5C 210.833,194.5 209.167,194.5 207.5,194.5C 204.789,194.185 202.456,194.852 200.5,196.5C 200.263,195.209 200.596,194.209 201.5,193.5 Z"/></g>
<g><path style="opacity:1" fill="#5a7df7" d="M 207.5,194.5 C 205.426,196.736 203.092,197.403 200.5,196.5C 202.456,194.852 204.789,194.185 207.5,194.5 Z"/></g>
<g><path style="opacity:1" fill="#8ca8ea" d="M 207.5,194.5 C 209.167,194.5 210.833,194.5 212.5,194.5C 211.71,195.794 210.71,196.961 209.5,198C 204.812,200.277 200.145,202.444 195.5,204.5C 197.17,201.825 198.836,199.159 200.5,196.5C 203.092,197.403 205.426,196.736 207.5,194.5 Z"/></g>
<g><path style="opacity:1" fill="#5478f3" d="M 119.5,193.5 C 126.227,200.424 134.56,204.09 144.5,204.5C 145.323,206.987 146.323,209.321 147.5,211.5C 148.488,212.795 149.488,214.128 150.5,215.5C 150.5,216.5 150.5,217.5 150.5,218.5C 141.322,217.803 132.655,215.303 124.5,211C 122.598,209.27 120.931,207.437 119.5,205.5C 119.5,201.5 119.5,197.5 119.5,193.5 Z"/></g>
<g><path style="opacity:1" fill="#0c0c0c" d="M 167.5,199.5 C 172.032,199.182 176.366,199.515 180.5,200.5C 179.85,202.435 179.517,204.435 179.5,206.5C 178.662,206.842 178.328,207.508 178.5,208.5C 177.766,209.878 177.099,211.378 176.5,213C 172.514,213.499 168.514,213.666 164.5,213.5C 164.953,212.542 165.619,211.708 166.5,211C 169.785,210.241 172.785,208.908 175.5,207C 173.891,206.929 172.224,207.096 170.5,207.5C 169.006,207.291 167.839,206.624 167,205.5C 166.943,207.91 165.776,209.244 163.5,209.5C 164.657,206.016 165.99,202.683 167.5,199.5 Z"/></g>
<g><path style="opacity:1" fill="#414653" d="M 182.5,195.5 C 183.404,196.209 183.737,197.209 183.5,198.5C 185.833,198.5 188.167,198.5 190.5,198.5C 187.275,199.237 183.941,199.903 180.5,200.5C 176.366,199.515 172.032,199.182 167.5,199.5C 171.982,198.674 176.649,198.174 181.5,198C 182.252,197.329 182.586,196.496 182.5,195.5 Z"/></g>
<g><path style="opacity:1" fill="#2a354d" d="M 291.5,192.5 C 291.833,192.5 292.167,192.5 292.5,192.5C 293.492,200.316 293.826,208.316 293.5,216.5C 293.768,218.099 293.434,219.432 292.5,220.5C 292.805,211.083 292.472,201.75 291.5,192.5 Z"/></g>
<g><path style="opacity:1" fill="#c9dcff" d="M 253.5,206.5 C 247.833,206.5 242.167,206.5 236.5,206.5C 236.5,204.5 236.5,202.5 236.5,200.5C 242.167,200.5 247.833,200.5 253.5,200.5C 253.5,202.5 253.5,204.5 253.5,206.5 Z"/></g>
<g><path style="opacity:1" fill="#c9dcff" d="M 262.5,200.5 C 271.5,200.5 280.5,200.5 289.5,200.5C 289.5,201.5 289.5,202.5 289.5,203.5C 280.5,203.5 271.5,203.5 262.5,203.5C 262.5,202.5 262.5,201.5 262.5,200.5 Z"/></g>
<g><path style="opacity:1" fill="#93b2d7" d="M 332.5,206.5 C 332.5,204.167 332.5,201.833 332.5,199.5C 330.167,199.5 327.833,199.5 325.5,199.5C 325.5,201.833 325.5,204.167 325.5,206.5C 324.527,204.052 324.194,201.385 324.5,198.5C 327.5,198.5 330.5,198.5 333.5,198.5C 333.806,201.385 333.473,204.052 332.5,206.5 Z"/></g>
<g><path style="opacity:1" fill="#e5f2ff" d="M 332.5,206.5 C 330.167,206.5 327.833,206.5 325.5,206.5C 325.5,204.167 325.5,201.833 325.5,199.5C 327.833,199.5 330.167,199.5 332.5,199.5C 332.5,201.833 332.5,204.167 332.5,206.5 Z"/></g>
<g><path style="opacity:1" fill="#787c85" d="M 154.5,206.5 C 153.596,205.791 153.263,204.791 153.5,203.5C 151.5,203.833 149.5,204.167 147.5,204.5C 149.22,203.136 151.22,202.136 153.5,201.5C 154.452,203.045 154.785,204.712 154.5,206.5 Z"/></g>
<g><path style="opacity:1" fill="#616a89" d="M 147.5,197.5 C 147.683,199.936 147.016,202.103 145.5,204C 146.094,204.464 146.761,204.631 147.5,204.5C 147.5,206.833 147.5,209.167 147.5,211.5C 146.323,209.321 145.323,206.987 144.5,204.5C 144.833,203.167 145.167,201.833 145.5,200.5C 145.932,199.29 146.599,198.29 147.5,197.5 Z"/></g>
<g><path style="opacity:1" fill="#f5f5f5" d="M 154.5,206.5 C 154.574,208.411 155.574,209.578 157.5,210C 159.545,210.49 161.545,210.323 163.5,209.5C 165.776,209.244 166.943,207.91 167,205.5C 167.839,206.624 169.006,207.291 170.5,207.5C 172.224,207.096 173.891,206.929 175.5,207C 172.785,208.908 169.785,210.241 166.5,211C 165.619,211.708 164.953,212.542 164.5,213.5C 162.973,213.427 161.973,214.094 161.5,215.5C 160.508,215.328 159.842,215.662 159.5,216.5C 156.455,216.492 153.455,216.159 150.5,215.5C 149.488,214.128 148.488,212.795 147.5,211.5C 147.5,209.167 147.5,206.833 147.5,204.5C 149.5,204.167 151.5,203.833 153.5,203.5C 153.263,204.791 153.596,205.791 154.5,206.5 Z"/></g>
<g><path style="opacity:1" fill="#5376f0" d="M 212.5,194.5 C 212.833,194.5 213.167,194.5 213.5,194.5C 213.5,198.5 213.5,202.5 213.5,206.5C 207.31,206.177 201.31,206.51 195.5,207.5C 194.523,210.287 194.19,213.287 194.5,216.5C 194.167,216.5 193.833,216.5 193.5,216.5C 188.47,216.98 183.47,217.647 178.5,218.5C 178.5,215.167 178.5,211.833 178.5,208.5C 178.328,207.508 178.662,206.842 179.5,206.5C 182.373,208.482 185.373,208.815 188.5,207.5C 190.713,206.227 193.046,205.227 195.5,204.5C 200.145,202.444 204.812,200.277 209.5,198C 210.71,196.961 211.71,195.794 212.5,194.5 Z"/></g>
<g><path style="opacity:1" fill="#50586b" d="M 291.5,192.5 C 272.497,192.333 253.497,192.5 234.5,193C 233.533,197.401 233.2,201.901 233.5,206.5C 234.5,206.5 235.5,206.5 236.5,206.5C 242.167,206.5 247.833,206.5 253.5,206.5C 261.5,206.5 269.5,206.5 277.5,206.5C 277.5,206.833 277.5,207.167 277.5,207.5C 250.167,207.5 222.833,207.5 195.5,207.5C 201.31,206.51 207.31,206.177 213.5,206.5C 219.833,206.5 226.167,206.5 232.5,206.5C 232.197,201.57 232.531,196.737 233.5,192C 253.004,191.171 272.338,191.338 291.5,192.5 Z"/></g>
<g><path style="opacity:1" fill="#4b5170" d="M 179.5,206.5 C 182.518,206.704 185.518,207.037 188.5,207.5C 185.373,208.815 182.373,208.482 179.5,206.5 Z"/></g>
<g><path style="opacity:1" fill="#bebebe" d="M 195.5,207.5 C 222.833,207.5 250.167,207.5 277.5,207.5C 277.5,207.833 277.5,208.167 277.5,208.5C 276.167,208.5 274.833,208.5 273.5,208.5C 272.391,208.557 271.391,208.89 270.5,209.5C 245.672,208.502 220.672,208.169 195.5,208.5C 195.821,214.026 195.488,219.36 194.5,224.5C 194.5,221.833 194.5,219.167 194.5,216.5C 194.19,213.287 194.523,210.287 195.5,207.5 Z"/></g>
<g><path style="opacity:1" fill="#c4d8fe" d="M 277.5,207.5 C 277.5,207.167 277.5,206.833 277.5,206.5C 281.5,206.5 285.5,206.5 289.5,206.5C 289.5,207.833 289.5,209.167 289.5,210.5C 286.167,210.5 282.833,210.5 279.5,210.5C 279.715,208.821 279.048,207.821 277.5,207.5 Z"/></g>
<g><path style="opacity:1" fill="#37619b" d="M 58.5,194.5 C 69.0001,192.166 72.8335,196.166 70,206.5C 69.6924,207.308 69.1924,207.975 68.5,208.5C 56.5202,210.49 53.1869,205.823 58.5,194.5 Z"/></g>
<g><path style="opacity:1" fill="#9fbbdb" d="M 59.5,198.5 C 62.5,198.5 65.5,198.5 68.5,198.5C 68.5,201.167 68.5,203.833 68.5,206.5C 65.5,206.5 62.5,206.5 59.5,206.5C 59.5,203.833 59.5,201.167 59.5,198.5 Z"/></g>
<g><path style="opacity:1" fill="#e5f2ff" d="M 60.5,199.5 C 62.8333,199.5 65.1667,199.5 67.5,199.5C 67.5,201.5 67.5,203.5 67.5,205.5C 65.1667,205.5 62.8333,205.5 60.5,205.5C 60.5,203.5 60.5,201.5 60.5,199.5 Z"/></g>
<g><path style="opacity:1" fill="#93b3fc" d="M 119.5,205.5 C 120.931,207.437 122.598,209.27 124.5,211C 132.655,215.303 141.322,217.803 150.5,218.5C 150.5,219.5 150.5,220.5 150.5,221.5C 142.874,221.475 135.54,219.975 128.5,217C 124.7,215.358 121.7,212.858 119.5,209.5C 119.5,208.167 119.5,206.833 119.5,205.5 Z"/></g>
<g><path style="opacity:1" fill="#fafafb" d="M 270.5,209.5 C 269.766,210.708 269.433,212.041 269.5,213.5C 271.167,213.5 272.833,213.5 274.5,213.5C 274.634,211.708 274.301,210.042 273.5,208.5C 274.833,208.5 276.167,208.5 277.5,208.5C 278.461,210.265 278.795,212.265 278.5,214.5C 277.518,217.962 277.185,221.629 277.5,225.5C 277.827,235.015 277.494,244.348 276.5,253.5C 249.5,253.5 222.5,253.5 195.5,253.5C 194.506,244.014 194.173,234.348 194.5,224.5C 195.488,219.36 195.821,214.026 195.5,208.5C 220.672,208.169 245.672,208.502 270.5,209.5 Z"/></g>
<g><path style="opacity:1" fill="#4c5897" d="M 273.5,208.5 C 274.301,210.042 274.634,211.708 274.5,213.5C 272.833,213.5 271.167,213.5 269.5,213.5C 269.433,212.041 269.766,210.708 270.5,209.5C 271.391,208.89 272.391,208.557 273.5,208.5 Z"/></g>
<g><path style="opacity:1" fill="#57607c" d="M 178.5,208.5 C 178.5,211.833 178.5,215.167 178.5,218.5C 178.5,219.833 178.5,221.167 178.5,222.5C 178.81,225.713 178.477,228.713 177.5,231.5C 177.5,225.833 177.5,220.167 177.5,214.5C 172.105,214.267 166.772,214.6 161.5,215.5C 161.973,214.094 162.973,213.427 164.5,213.5C 168.514,213.666 172.514,213.499 176.5,213C 177.099,211.378 177.766,209.878 178.5,208.5 Z"/></g>
<g><path style="opacity:1" fill="#c4d8ff" d="M 279.5,212.5 C 282.833,212.5 286.167,212.5 289.5,212.5C 289.5,213.833 289.5,215.167 289.5,216.5C 286.167,216.5 282.833,216.5 279.5,216.5C 279.5,215.167 279.5,213.833 279.5,212.5 Z"/></g>
<g><path style="opacity:1" fill="#c5d7f8" d="M 177.5,231.5 C 177.5,232.167 177.5,232.833 177.5,233.5C 170.75,233.614 164.083,232.947 157.5,231.5C 155.631,231.507 153.964,231.84 152.5,232.5C 151.352,228.019 151.185,223.352 152,218.5C 154.607,217.877 157.107,217.21 159.5,216.5C 159.842,215.662 160.508,215.328 161.5,215.5C 166.772,214.6 172.105,214.267 177.5,214.5C 177.5,220.167 177.5,225.833 177.5,231.5 Z"/></g>
<g><path style="opacity:1" fill="#69789e" d="M 277.5,208.5 C 277.5,208.167 277.5,207.833 277.5,207.5C 279.048,207.821 279.715,208.821 279.5,210.5C 279.5,211.167 279.5,211.833 279.5,212.5C 279.5,213.833 279.5,215.167 279.5,216.5C 279.5,217.833 279.5,219.167 279.5,220.5C 283.5,220.5 287.5,220.5 291.5,220.5C 291.011,221.995 290.345,223.329 289.5,224.5C 286.316,222.586 282.649,221.92 278.5,222.5C 278.5,219.833 278.5,217.167 278.5,214.5C 278.795,212.265 278.461,210.265 277.5,208.5 Z"/></g>
<g><path style="opacity:1" fill="#c4d5f7" d="M 278.5,214.5 C 278.5,217.167 278.5,219.833 278.5,222.5C 282.649,221.92 286.316,222.586 289.5,224.5C 287.144,232.875 283.478,240.542 278.5,247.5C 278.825,239.981 278.492,232.648 277.5,225.5C 277.185,221.629 277.518,217.962 278.5,214.5 Z"/></g>
<g><path style="opacity:1" fill="#5478f4" d="M 119.5,209.5 C 121.7,212.858 124.7,215.358 128.5,217C 135.54,219.975 142.874,221.475 150.5,221.5C 150.231,225.931 150.564,230.265 151.5,234.5C 140.454,234.151 130.454,230.818 121.5,224.5C 121.167,225.167 120.833,225.833 120.5,226.5C 122.003,230.168 124.67,232.668 128.5,234C 135.901,236.934 143.568,238.434 151.5,238.5C 151.818,243.032 151.485,247.366 150.5,251.5C 139.026,250.788 128.692,247.121 119.5,240.5C 119.5,232.5 119.5,224.5 119.5,216.5C 119.5,214.167 119.5,211.833 119.5,209.5 Z"/></g>
<g><path style="opacity:1" fill="#3e4868" d="M 150.5,215.5 C 153.455,216.159 156.455,216.492 159.5,216.5C 157.107,217.21 154.607,217.877 152,218.5C 151.185,223.352 151.352,228.019 152.5,232.5C 152.795,234.735 152.461,236.735 151.5,238.5C 151.5,237.167 151.5,235.833 151.5,234.5C 150.564,230.265 150.231,225.931 150.5,221.5C 150.5,220.5 150.5,219.5 150.5,218.5C 150.5,217.5 150.5,216.5 150.5,215.5 Z"/></g>
<g><path style="opacity:1" fill="#bdcdec" d="M 41.5,217.5 C 39.5648,218.15 37.5648,218.483 35.5,218.5C 47.6962,299.53 93.6962,349.363 173.5,368C 238.737,376.819 292.57,356.319 335,306.5C 355.097,280.623 366.597,251.29 369.5,218.5C 367.784,218.371 366.117,218.038 364.5,217.5C 366.626,216.897 368.959,216.897 371.5,217.5C 363.528,285.974 327.861,333.807 264.5,361C 201.115,382.826 143.448,372.826 91.5,331C 57.3539,300.541 38.3539,262.707 34.5,217.5C 37.0048,216.583 39.3382,216.583 41.5,217.5 Z"/></g>
<g><path style="opacity:1" fill="#240869" d="M 97.5,216.5 C 98.2053,225.401 100.539,233.734 104.5,241.5C 104.707,244.241 105.707,246.574 107.5,248.5C 108.674,249.514 109.34,250.847 109.5,252.5C 109.75,254.674 110.75,256.341 112.5,257.5C 113.723,261.049 115.723,264.049 118.5,266.5C 119.811,269.382 120.978,272.382 122,275.5C 126.973,278.397 131.807,281.397 136.5,284.5C 135.537,283.637 135.537,282.97 136.5,282.5C 139.791,283.382 143.124,284.048 146.5,284.5C 149.54,285.734 150.873,288.068 150.5,291.5C 153.855,291.909 156.855,291.242 159.5,289.5C 198.193,295.798 233.193,287.298 264.5,264C 267.039,261.63 269.372,259.13 271.5,256.5C 272.82,255.058 274.486,254.392 276.5,254.5C 278.344,252.721 279.01,250.388 278.5,247.5C 283.478,240.542 287.144,232.875 289.5,224.5C 290.345,223.329 291.011,221.995 291.5,220.5C 291.833,220.5 292.167,220.5 292.5,220.5C 293.434,219.432 293.768,218.099 293.5,216.5C 298.294,215.903 302.627,216.57 306.5,218.5C 305.462,225.984 303.795,233.318 301.5,240.5C 305.038,233.691 307.038,226.357 307.5,218.5C 326.341,216.175 345.341,215.841 364.5,217.5C 366.117,218.038 367.784,218.371 369.5,218.5C 366.597,251.29 355.097,280.623 335,306.5C 292.57,356.319 238.737,376.819 173.5,368C 93.6962,349.363 47.6962,299.53 35.5,218.5C 37.5648,218.483 39.5648,218.15 41.5,217.5C 60.0903,216.514 78.757,216.18 97.5,216.5 Z"/></g>
<g><path style="opacity:1" fill="#4c5268" d="M 193.5,216.5 C 193.833,216.5 194.167,216.5 194.5,216.5C 194.5,219.167 194.5,221.833 194.5,224.5C 194.173,234.348 194.506,244.014 195.5,253.5C 195.5,253.833 195.5,254.167 195.5,254.5C 194.833,254.5 194.167,254.5 193.5,254.5C 193.5,252.833 193.5,251.167 193.5,249.5C 193.5,245.5 193.5,241.5 193.5,237.5C 193.5,235.833 193.5,234.167 193.5,232.5C 193.5,228.5 193.5,224.5 193.5,220.5C 193.5,219.167 193.5,217.833 193.5,216.5 Z"/></g>
<g><path style="opacity:1" fill="#9093c6" d="M 306.5,218.5 C 306.833,218.5 307.167,218.5 307.5,218.5C 307.038,226.357 305.038,233.691 301.5,240.5C 303.795,233.318 305.462,225.984 306.5,218.5 Z"/></g>
<g><path style="opacity:1" fill="#6f7a8d" d="M 163.5,223.5 C 165.379,223.393 165.712,223.893 164.5,225C 161.976,226.513 159.309,227.18 156.5,227C 159.069,226.102 161.402,224.935 163.5,223.5 Z"/></g>
<g><path style="opacity:1" fill="#787878" d="M 235.5,221.5 C 237.975,221.747 237.975,222.413 235.5,223.5C 234.537,223.03 234.537,222.363 235.5,221.5 Z"/></g>
<g><path style="opacity:1" fill="#8e8f90" d="M 221.5,223.5 C 221.5,222.833 221.833,222.5 222.5,222.5C 223.833,223.5 225.167,224.5 226.5,225.5C 226.5,226.167 226.167,226.5 225.5,226.5C 224.167,225.5 222.833,224.5 221.5,223.5 Z"/></g>
<g><path style="opacity:1" fill="#9396c8" d="M 97.5,216.5 C 97.8333,216.5 98.1667,216.5 98.5,216.5C 100.022,224.921 102.022,233.255 104.5,241.5C 100.539,233.734 98.2053,225.401 97.5,216.5 Z"/></g>
<g><path style="opacity:1" fill="#5478f5" d="M 193.5,220.5 C 193.5,224.5 193.5,228.5 193.5,232.5C 188.263,233.817 182.93,234.483 177.5,234.5C 177.5,234.167 177.5,233.833 177.5,233.5C 177.5,232.833 177.5,232.167 177.5,231.5C 178.477,228.713 178.81,225.713 178.5,222.5C 183.548,222.158 188.548,221.492 193.5,220.5 Z"/></g>
<g><path style="opacity:1" fill="#a4bdf7" d="M 222.5,222.5 C 221.833,222.5 221.5,222.833 221.5,223.5C 219.801,223.66 218.134,223.494 216.5,223C 217.701,222.097 218.535,220.931 219,219.5C 221.658,218.306 222.824,219.306 222.5,222.5 Z"/></g>
<g><path style="opacity:1" fill="#ccdeff" d="M 266.5,218.5 C 269.167,218.5 271.833,218.5 274.5,218.5C 274.5,229.5 274.5,240.5 274.5,251.5C 271.833,251.5 269.167,251.5 266.5,251.5C 266.5,240.5 266.5,229.5 266.5,218.5 Z"/></g>
<g><path style="opacity:1" fill="#5779ef" d="M 240.5,216.5 C 242.912,216.694 243.912,218.027 243.5,220.5C 242.167,220.5 240.833,220.5 239.5,220.5C 239.433,219.041 239.766,217.708 240.5,216.5 Z"/></g>
<g><path style="opacity:1" fill="#92b2fe" d="M 193.5,216.5 C 193.5,217.833 193.5,219.167 193.5,220.5C 188.548,221.492 183.548,222.158 178.5,222.5C 178.5,221.167 178.5,219.833 178.5,218.5C 183.47,217.647 188.47,216.98 193.5,216.5 Z"/></g>
<g><path style="opacity:1" fill="#230768" d="M 98.5,216.5 C 105.5,216.5 112.5,216.5 119.5,216.5C 119.5,224.5 119.5,232.5 119.5,240.5C 118.259,247.187 118.259,253.854 119.5,260.5C 119.784,262.415 119.451,264.081 118.5,265.5C 116.853,262.527 114.853,259.86 112.5,257.5C 112.25,255.326 111.25,253.659 109.5,252.5C 109.34,250.847 108.674,249.514 107.5,248.5C 107.293,245.759 106.293,243.426 104.5,241.5C 102.022,233.255 100.022,224.921 98.5,216.5 Z"/></g>
<g><path style="opacity:1" fill="#bcccec" d="M 43.5,224.5 C 55.3813,285.076 89.7146,327.576 146.5,352C 204.969,371.08 258.303,361.747 306.5,324C 336.317,297.203 354.817,264.037 362,224.5C 352.117,285.75 318.617,328.584 261.5,353C 191.155,376.455 130.655,361.289 80,307.5C 59.6781,283.514 47.5115,255.847 43.5,224.5 Z"/></g>
<g><path style="opacity:1" fill="#cde1fa" d="M 206.5,322.5 C 208.5,322.5 210.5,322.5 212.5,322.5C 213.089,329.485 213.422,336.485 213.5,343.5C 211.167,343.5 208.833,343.5 206.5,343.5C 206.5,336.5 206.5,329.5 206.5,322.5 Z"/></g>
<g><path style="opacity:1" fill="#cbdff8" d="M 173.5,319.5 C 179.291,318.489 184.124,320.156 188,324.5C 188.495,326.473 188.662,328.473 188.5,330.5C 186.738,330.643 185.071,330.309 183.5,329.5C 181.646,323.93 178.813,323.264 175,327.5C 172.884,336.744 175.55,338.744 183,333.5C 184.44,334.148 185.94,334.481 187.5,334.5C 185.681,341.147 181.348,343.314 174.5,341C 167.947,338.27 165.78,333.437 168,326.5C 169.371,323.734 171.204,321.401 173.5,319.5 Z"/></g>
<g><path style="opacity:1" fill="#cadef8" d="M 244.5,315.5 C 247.423,316.163 248.09,317.83 246.5,320.5C 243.839,321.332 241.172,322.166 238.5,323C 237.269,324.183 237.269,325.349 238.5,326.5C 241.053,325.195 243.72,324.195 246.5,323.5C 247.95,324.85 248.617,326.516 248.5,328.5C 245.762,328.851 243.096,329.518 240.5,330.5C 239.614,331.325 239.281,332.325 239.5,333.5C 242.722,333.15 245.888,332.483 249,331.5C 252.165,331.534 252.998,332.867 251.5,335.5C 245.956,337.635 240.289,339.302 234.5,340.5C 232.667,333.843 231.167,327.176 230,320.5C 234.949,318.896 239.782,317.229 244.5,315.5 Z"/></g>
<g><path style="opacity:1" fill="#716bab" d="M 168.5,302.5 C 188.984,308.315 209.651,308.981 230.5,304.5C 221.745,307.707 212.578,309.04 203,308.5C 190.953,308.91 179.453,306.91 168.5,302.5 Z"/></g>
<g><path style="opacity:1" fill="#c9ddf7" d="M 137.5,305.5 C 149.609,305.418 154.443,311.085 152,322.5C 146.81,329.504 140.643,330.338 133.5,325C 128.698,317.262 130.031,310.762 137.5,305.5 Z"/></g>
<g><path style="opacity:1" fill="#270d6c" d="M 140.5,311.5 C 146.527,312.004 148.027,315.004 145,320.5C 141.197,323.575 138.364,322.908 136.5,318.5C 137.071,315.687 138.404,313.354 140.5,311.5 Z"/></g>
<g><path style="opacity:1" fill="#736dac" d="M 242.5,300.5 C 238.915,302.806 234.915,304.139 230.5,304.5C 234.216,302.595 238.216,301.261 242.5,300.5 Z"/></g>
<g><path style="opacity:1" fill="#6860a4" d="M 168.5,302.5 C 165.689,302.174 163.022,301.341 160.5,300C 163.539,299.736 166.206,300.569 168.5,302.5 Z"/></g>
<g><path style="opacity:1" fill="#cbdff8" d="M 275.5,298.5 C 276.479,299.765 277.479,301.099 278.5,302.5C 277.027,304.395 275.36,306.061 273.5,307.5C 276.291,311.582 278.958,315.749 281.5,320C 279.833,321.167 278.167,322.333 276.5,323.5C 273.53,319.361 270.363,315.361 267,311.5C 265.018,311.99 263.351,312.99 262,314.5C 260.916,313.335 260.083,312.002 259.5,310.5C 264.569,306.091 269.902,302.091 275.5,298.5 Z"/></g>
<g><path style="opacity:1" fill="#7772b1" d="M 242.5,300.5 C 246.829,297.501 251.496,295.334 256.5,294C 252.192,296.988 247.525,299.155 242.5,300.5 Z"/></g>
<g><path style="opacity:1" fill="#7f7db7" d="M 147.5,292.5 C 148.756,292.461 149.756,292.961 150.5,294C 149.002,294.585 148.002,294.085 147.5,292.5 Z"/></g>
<g><path style="opacity:1" fill="#807fb8" d="M 261.5,290.5 C 260.998,292.085 259.998,292.585 258.5,292C 259.244,290.961 260.244,290.461 261.5,290.5 Z"/></g>
<g><path style="opacity:1" fill="#817eb8" d="M 144.5,290.5 C 146.027,290.427 147.027,291.094 147.5,292.5C 145.973,292.573 144.973,291.906 144.5,290.5 Z"/></g>
<g><path style="opacity:1" fill="#8d8fc3" d="M 264.5,288.5 C 264.027,289.906 263.027,290.573 261.5,290.5C 261.973,289.094 262.973,288.427 264.5,288.5 Z"/></g>
<g><path style="opacity:1" fill="#576791" d="M 156.5,278.5 C 156.833,278.5 157.167,278.5 157.5,278.5C 158.219,280.764 158.552,283.097 158.5,285.5C 159.234,286.708 159.567,288.041 159.5,289.5C 156.855,291.242 153.855,291.909 150.5,291.5C 150.873,288.068 149.54,285.734 146.5,284.5C 148.886,284.741 150.886,284.075 152.5,282.5C 152.007,284.806 151.674,287.139 151.5,289.5C 153.467,289.739 155.301,289.406 157,288.5C 157.388,285.151 157.221,281.817 156.5,278.5 Z"/></g>
<g><path style="opacity:1" fill="#8482bb" d="M 141.5,288.5 C 143.027,288.427 144.027,289.094 144.5,290.5C 142.973,290.573 141.973,289.906 141.5,288.5 Z"/></g>
<g><path style="opacity:1" fill="#475471" d="M 173.5,277.5 C 173.833,278.167 174.167,278.833 174.5,279.5C 172.858,281.081 170.858,281.747 168.5,281.5C 168.5,282.833 168.5,284.167 168.5,285.5C 171.633,286.265 174.8,286.932 178,287.5C 179.167,287.167 180.333,286.833 181.5,286.5C 180.807,285.482 180.141,284.482 179.5,283.5C 180.609,283.557 181.609,283.89 182.5,284.5C 184.183,288.661 182.683,290.328 178,289.5C 175.102,289.363 172.269,288.863 169.5,288C 168.244,287.583 167.577,286.75 167.5,285.5C 167.448,283.097 167.781,280.764 168.5,278.5C 168.833,278.5 169.167,278.5 169.5,278.5C 170.568,277.566 171.901,277.232 173.5,277.5 Z"/></g>
<g><path style="opacity:1" fill="#7670af" d="M 136.5,284.5 C 138.754,285.124 140.421,286.457 141.5,288.5C 139.205,287.864 137.539,286.531 136.5,284.5 Z"/></g>
<g><path style="opacity:1" fill="#7873b1" d="M 268.5,285.5 C 267.738,287.262 266.404,288.262 264.5,288.5C 265.262,286.738 266.596,285.738 268.5,285.5 Z"/></g>
<g><path style="opacity:1" fill="#756fae" d="M 268.5,285.5 C 270.202,282.605 272.536,280.772 275.5,280C 273.559,282.454 271.225,284.287 268.5,285.5 Z"/></g>
<g><path style="opacity:1" fill="#c8daf5" d="M 110.5,282.5 C 117.69,283.096 122.023,286.929 123.5,294C 122.407,298.428 120.574,298.595 118,294.5C 117.727,292.899 117.227,291.399 116.5,290C 115.365,289.251 114.365,289.417 113.5,290.5C 117.005,294.208 118.172,298.541 117,303.5C 114.225,306.654 111.058,307.154 107.5,305C 103.711,302.394 101.378,298.894 100.5,294.5C 100.188,291.307 101.522,290.14 104.5,291C 105.863,292.945 106.697,295.112 107,297.5C 108.185,299.559 109.352,299.726 110.5,298C 108.709,295.207 107.375,292.207 106.5,289C 107.205,286.458 108.539,284.292 110.5,282.5 Z"/></g>
<g><path style="opacity:1" fill="#8da6de" d="M 153.5,278.5 C 154.5,278.5 155.5,278.5 156.5,278.5C 157.221,281.817 157.388,285.151 157,288.5C 155.301,289.406 153.467,289.739 151.5,289.5C 151.674,287.139 152.007,284.806 152.5,282.5C 152.833,281.167 153.167,279.833 153.5,278.5 Z"/></g>
<g><path style="opacity:1" fill="#8faef0" d="M 174.5,279.5 C 176.349,280.593 178.016,281.926 179.5,283.5C 180.141,284.482 180.807,285.482 181.5,286.5C 180.333,286.833 179.167,287.167 178,287.5C 174.8,286.932 171.633,286.265 168.5,285.5C 168.5,284.167 168.5,282.833 168.5,281.5C 170.858,281.747 172.858,281.081 174.5,279.5 Z"/></g>
<g><path style="opacity:1" fill="#fefffe" d="M 169.5,278.5 C 172.797,278.329 173.131,278.995 170.5,280.5C 169.702,280.043 169.369,279.376 169.5,278.5 Z"/></g>
<g><path style="opacity:1" fill="#caddf7" d="M 300.5,273.5 C 302.599,278.286 304.432,283.286 306,288.5C 307.684,290.351 309.517,292.018 311.5,293.5C 310.185,295.316 308.685,296.983 307,298.5C 305.127,296.291 302.96,294.458 300.5,293C 295.676,292.886 291.01,292.053 286.5,290.5C 289.245,285.547 293.245,284.213 298.5,286.5C 298.145,283.933 297.479,281.433 296.5,279C 297.65,277.019 298.984,275.186 300.5,273.5 Z"/></g>
<g><path style="opacity:1" fill="#5378f5" d="M 158.5,273.5 C 161.5,273.5 164.5,273.5 167.5,273.5C 167.216,275.415 167.549,277.081 168.5,278.5C 167.781,280.764 167.448,283.097 167.5,285.5C 164.5,285.5 161.5,285.5 158.5,285.5C 158.552,283.097 158.219,280.764 157.5,278.5C 158.451,277.081 158.784,275.415 158.5,273.5 Z"/></g>
<g><path style="opacity:1" fill="#8a8bc0" d="M 285.5,268.5 C 284.627,270.886 283.127,272.886 281,274.5C 281.427,271.879 282.927,269.879 285.5,268.5 Z"/></g>
<g><path style="opacity:1" fill="#9da3d1" d="M 288.5,264.5 C 288.262,266.404 287.262,267.738 285.5,268.5C 285.738,266.596 286.738,265.262 288.5,264.5 Z"/></g>
<g><path style="opacity:1" fill="#9ba1cf" d="M 292.5,258.5 C 292.155,261.198 290.822,263.198 288.5,264.5C 289.34,262.147 290.674,260.147 292.5,258.5 Z"/></g>
<g><path style="opacity:1" fill="#5577f2" d="M 119.5,260.5 C 121.913,262.887 124.58,265.054 127.5,267C 134.916,269.937 142.582,271.771 150.5,272.5C 150.94,274.844 151.94,276.844 153.5,278.5C 153.167,279.833 152.833,281.167 152.5,282.5C 150.886,284.075 148.886,284.741 146.5,284.5C 143.124,284.048 139.791,283.382 136.5,282.5C 135.537,282.97 135.537,283.637 136.5,284.5C 131.807,281.397 126.973,278.397 122,275.5C 120.978,272.382 119.811,269.382 118.5,266.5C 118.5,266.167 118.5,265.833 118.5,265.5C 119.451,264.081 119.784,262.415 119.5,260.5 Z"/></g>
<g><path style="opacity:1" fill="#5579f5" d="M 213.5,260.5 C 213.666,264.846 213.499,269.179 213,273.5C 207.868,278.553 201.701,281.72 194.5,283C 190.534,283.828 186.534,284.328 182.5,284.5C 181.609,283.89 180.609,283.557 179.5,283.5C 178.016,281.926 176.349,280.593 174.5,279.5C 174.167,278.833 173.833,278.167 173.5,277.5C 173.833,276.167 174.167,274.833 174.5,273.5C 185.961,272.975 196.961,270.475 207.5,266C 210.023,264.64 212.023,262.807 213.5,260.5 Z"/></g>
<g><path style="opacity:1" fill="#9498c9" d="M 112.5,257.5 C 114.853,259.86 116.853,262.527 118.5,265.5C 118.5,265.833 118.5,266.167 118.5,266.5C 115.723,264.049 113.723,261.049 112.5,257.5 Z"/></g>
<g><path style="opacity:1" fill="#98b6fd" d="M 119.5,240.5 C 128.692,247.121 139.026,250.788 150.5,251.5C 150.5,252.833 150.5,254.167 150.5,255.5C 139.444,255.615 129.61,252.282 121,245.5C 120.333,249.5 120.333,253.5 121,257.5C 124.453,261.145 128.62,263.645 133.5,265C 139.15,266.363 144.817,267.53 150.5,268.5C 150.5,269.833 150.5,271.167 150.5,272.5C 142.582,271.771 134.916,269.937 127.5,267C 124.58,265.054 121.913,262.887 119.5,260.5C 118.259,253.854 118.259,247.187 119.5,240.5 Z"/></g>
<g><path style="opacity:1" fill="#93b3fb" d="M 213.5,256.5 C 213.5,257.833 213.5,259.167 213.5,260.5C 212.023,262.807 210.023,264.64 207.5,266C 196.961,270.475 185.961,272.975 174.5,273.5C 174.366,271.708 174.699,270.042 175.5,268.5C 187.152,268.737 198.152,266.237 208.5,261C 210.362,259.634 212.028,258.134 213.5,256.5 Z"/></g>
<g><path style="opacity:1" fill="#c2d4f7" d="M 213.5,255.5 C 233.007,255.17 252.341,255.503 271.5,256.5C 269.372,259.13 267.039,261.63 264.5,264C 233.193,287.298 198.193,295.798 159.5,289.5C 159.567,288.041 159.234,286.708 158.5,285.5C 161.5,285.5 164.5,285.5 167.5,285.5C 167.577,286.75 168.244,287.583 169.5,288C 172.269,288.863 175.102,289.363 178,289.5C 182.683,290.328 184.183,288.661 182.5,284.5C 186.534,284.328 190.534,283.828 194.5,283C 201.701,281.72 207.868,278.553 213,273.5C 213.499,269.179 213.666,264.846 213.5,260.5C 213.5,259.167 213.5,257.833 213.5,256.5C 213.5,256.167 213.5,255.833 213.5,255.5 Z"/></g>
<g><path style="opacity:1" fill="#6a7385" d="M 229.5,272.5 C 232.598,272.413 232.932,272.913 230.5,274C 225.98,275.965 221.313,276.965 216.5,277C 221.101,275.943 225.434,274.443 229.5,272.5 Z"/></g>
<g><path style="opacity:1" fill="#989dcc" d="M 292.5,258.5 C 292.795,256.577 293.628,254.91 295,253.5C 295.249,255.668 294.416,257.335 292.5,258.5 Z"/></g>
<g><path style="opacity:1" fill="#a5adbe" d="M 195.5,254.5 C 195.5,254.167 195.5,253.833 195.5,253.5C 222.5,253.5 249.5,253.5 276.5,253.5C 276.5,253.833 276.5,254.167 276.5,254.5C 274.486,254.392 272.82,255.058 271.5,256.5C 252.341,255.503 233.007,255.17 213.5,255.5C 207.69,254.51 201.69,254.177 195.5,254.5 Z"/></g>
<g><path style="opacity:1" fill="#5378f3" d="M 193.5,254.5 C 194.167,254.5 194.833,254.5 195.5,254.5C 201.69,254.177 207.69,254.51 213.5,255.5C 213.5,255.833 213.5,256.167 213.5,256.5C 212.028,258.134 210.362,259.634 208.5,261C 198.152,266.237 187.152,268.737 175.5,268.5C 176.272,264.548 176.605,260.548 176.5,256.5C 182.208,256.16 187.875,255.493 193.5,254.5 Z"/></g>
<g><path style="opacity:1" fill="#989dcd" d="M 109.5,252.5 C 111.25,253.659 112.25,255.326 112.5,257.5C 110.75,256.341 109.75,254.674 109.5,252.5 Z"/></g>
<g><path style="opacity:1" fill="#93b3fc" d="M 193.5,249.5 C 193.5,251.167 193.5,252.833 193.5,254.5C 187.875,255.493 182.208,256.16 176.5,256.5C 176.5,254.833 176.5,253.167 176.5,251.5C 182.295,251.56 187.962,250.893 193.5,249.5 Z"/></g>
<g><path style="opacity:1" fill="#9fa6d3" d="M 299.5,245.5 C 299.496,247.842 298.663,249.842 297,251.5C 296.992,249.179 297.825,247.179 299.5,245.5 Z"/></g>
<g><path style="opacity:1" fill="#5579f6" d="M 150.5,255.5 C 150.5,259.833 150.5,264.167 150.5,268.5C 144.817,267.53 139.15,266.363 133.5,265C 128.62,263.645 124.453,261.145 121,257.5C 120.333,253.5 120.333,249.5 121,245.5C 129.61,252.282 139.444,255.615 150.5,255.5 Z"/></g>
<g><path style="opacity:1" fill="#969bcb" d="M 104.5,241.5 C 106.293,243.426 107.293,245.759 107.5,248.5C 105.707,246.574 104.707,244.241 104.5,241.5 Z"/></g>
<g><path style="opacity:1" fill="#989dcc" d="M 301.5,240.5 C 301.598,242.553 300.931,244.22 299.5,245.5C 299.402,243.447 300.069,241.78 301.5,240.5 Z"/></g>
<g><path style="opacity:1" fill="#caddfe" d="M 197.5,240.5 C 199.833,240.5 202.167,240.5 204.5,240.5C 204.5,244.167 204.5,247.833 204.5,251.5C 202.167,251.5 199.833,251.5 197.5,251.5C 197.5,247.833 197.5,244.167 197.5,240.5 Z"/></g>
<g><path style="opacity:1" fill="#52515d" d="M 277.5,225.5 C 278.492,232.648 278.825,239.981 278.5,247.5C 279.01,250.388 278.344,252.721 276.5,254.5C 276.5,254.167 276.5,253.833 276.5,253.5C 277.494,244.348 277.827,235.015 277.5,225.5 Z"/></g>
<g><path style="opacity:1" fill="#5479f6" d="M 193.5,237.5 C 193.5,241.5 193.5,245.5 193.5,249.5C 187.962,250.893 182.295,251.56 176.5,251.5C 176.5,247.5 176.5,243.5 176.5,239.5C 182.238,239.377 187.904,238.71 193.5,237.5 Z"/></g>
<g><path style="opacity:1" fill="#caddff" d="M 207.5,236.5 C 209.833,236.5 212.167,236.5 214.5,236.5C 214.5,241.5 214.5,246.5 214.5,251.5C 212.167,251.5 209.833,251.5 207.5,251.5C 207.5,246.5 207.5,241.5 207.5,236.5 Z"/></g>
<g><path style="opacity:1" fill="#89909d" d="M 202.5,229.5 C 204.106,230.359 205.773,230.526 207.5,230C 206.345,232.215 204.845,234.048 203,235.5C 199.911,233.796 199.745,231.796 202.5,229.5 Z"/></g>
<g><path style="opacity:1" fill="#ccdeff" d="M 226.5,233.5 C 229.167,233.5 231.833,233.5 234.5,233.5C 234.5,239.5 234.5,245.5 234.5,251.5C 231.833,251.5 229.167,251.5 226.5,251.5C 226.5,245.5 226.5,239.5 226.5,233.5 Z"/></g>
<g><path style="opacity:1" fill="#94b5fe" d="M 193.5,232.5 C 193.5,234.167 193.5,235.833 193.5,237.5C 187.904,238.71 182.238,239.377 176.5,239.5C 176.216,237.585 176.549,235.919 177.5,234.5C 182.93,234.483 188.263,233.817 193.5,232.5 Z"/></g>
<g><path style="opacity:1" fill="#ccdeff" d="M 246.5,232.5 C 249.167,232.5 251.833,232.5 254.5,232.5C 254.5,238.833 254.5,245.167 254.5,251.5C 251.833,251.5 249.167,251.5 246.5,251.5C 246.5,245.167 246.5,238.833 246.5,232.5 Z"/></g>
<g><path style="opacity:1" fill="#06070b" d="M 177.5,233.5 C 177.5,233.833 177.5,234.167 177.5,234.5C 176.549,235.919 176.216,237.585 176.5,239.5C 176.5,243.5 176.5,247.5 176.5,251.5C 176.5,253.167 176.5,254.833 176.5,256.5C 176.605,260.548 176.272,264.548 175.5,268.5C 174.699,270.042 174.366,271.708 174.5,273.5C 174.167,274.833 173.833,276.167 173.5,277.5C 171.901,277.232 170.568,277.566 169.5,278.5C 169.167,278.5 168.833,278.5 168.5,278.5C 167.549,277.081 167.216,275.415 167.5,273.5C 167.768,271.901 167.434,270.568 166.5,269.5C 166.5,265.167 166.5,260.833 166.5,256.5C 166.815,252.629 166.482,248.962 165.5,245.5C 165.664,242.813 165.497,240.146 165,237.5C 163.362,242.386 162.195,247.386 161.5,252.5C 160.566,253.568 160.232,254.901 160.5,256.5C 159.778,256.918 159.278,257.584 159,258.5C 158.169,265.146 157.669,271.813 157.5,278.5C 157.167,278.5 156.833,278.5 156.5,278.5C 155.5,278.5 154.5,278.5 153.5,278.5C 151.94,276.844 150.94,274.844 150.5,272.5C 150.5,271.167 150.5,269.833 150.5,268.5C 150.5,264.167 150.5,259.833 150.5,255.5C 150.5,254.167 150.5,252.833 150.5,251.5C 151.485,247.366 151.818,243.032 151.5,238.5C 152.461,236.735 152.795,234.735 152.5,232.5C 153.964,231.84 155.631,231.507 157.5,231.5C 164.083,232.947 170.75,233.614 177.5,233.5 Z"/></g>
<g><path style="opacity:1" fill="#94b2f5" d="M 166.5,269.5 C 167.434,270.568 167.768,271.901 167.5,273.5C 164.5,273.5 161.5,273.5 158.5,273.5C 158.5,272.167 158.5,270.833 158.5,269.5C 161.167,269.5 163.833,269.5 166.5,269.5 Z"/></g>
<g><path style="opacity:1" fill="#636363" d="M 173.5,260.5 C 174.239,260.369 174.906,260.536 175.5,261C 171.489,269.773 170.823,269.606 173.5,260.5 Z"/></g>
<g><path style="opacity:1" fill="#5476ec" d="M 160.5,256.5 C 162.5,256.5 164.5,256.5 166.5,256.5C 166.5,260.833 166.5,265.167 166.5,269.5C 163.833,269.5 161.167,269.5 158.5,269.5C 158.5,270.833 158.5,272.167 158.5,273.5C 158.784,275.415 158.451,277.081 157.5,278.5C 157.669,271.813 158.169,265.146 159,258.5C 159.278,257.584 159.778,256.918 160.5,256.5 Z"/></g>
<g><path style="opacity:1" fill="#839edf" d="M 165.5,245.5 C 166.482,248.962 166.815,252.629 166.5,256.5C 164.5,256.5 162.5,256.5 160.5,256.5C 160.232,254.901 160.566,253.568 161.5,252.5C 162.833,252.5 164.167,252.5 165.5,252.5C 165.5,250.167 165.5,247.833 165.5,245.5 Z"/></g>
<g><path style="opacity:1" fill="#5375e8" d="M 165.5,245.5 C 165.5,247.833 165.5,250.167 165.5,252.5C 164.167,252.5 162.833,252.5 161.5,252.5C 162.195,247.386 163.362,242.386 165,237.5C 165.497,240.146 165.664,242.813 165.5,245.5 Z"/></g>
<g><path style="opacity:1" fill="#cddfff" d="M 216.5,228.5 C 219.167,228.5 221.833,228.5 224.5,228.5C 224.5,236.167 224.5,243.833 224.5,251.5C 221.833,251.5 219.167,251.5 216.5,251.5C 216.5,243.833 216.5,236.167 216.5,228.5 Z"/></g>
<g><path style="opacity:1" fill="#a4bcf3" d="M 226.5,225.5 C 232.332,225.158 232.666,226.824 227.5,230.5C 225.889,229.68 225.222,228.346 225.5,226.5C 226.167,226.5 226.5,226.167 226.5,225.5 Z"/></g>
<g><path style="opacity:1" fill="#cddeff" d="M 256.5,224.5 C 259.167,224.5 261.833,224.5 264.5,224.5C 264.5,233.5 264.5,242.5 264.5,251.5C 261.833,251.5 259.167,251.5 256.5,251.5C 256.5,242.5 256.5,233.5 256.5,224.5 Z"/></g>
<g><path style="opacity:1" fill="#ccdeff" d="M 236.5,225.5 C 239.167,225.5 241.833,225.5 244.5,225.5C 244.5,234.167 244.5,242.833 244.5,251.5C 241.833,251.5 239.167,251.5 236.5,251.5C 236.5,242.833 236.5,234.167 236.5,225.5 Z"/></g>
<g><path style="opacity:1" fill="#98b3f0" d="M 247.5,224.5 C 252.145,223.669 253.145,224.836 250.5,228C 249.552,228.483 248.552,228.649 247.5,228.5C 247.5,227.167 247.5,225.833 247.5,224.5 Z"/></g>
<g><path style="opacity:1" fill="#95b4fe" d="M 151.5,234.5 C 151.5,235.833 151.5,237.167 151.5,238.5C 143.568,238.434 135.901,236.934 128.5,234C 124.67,232.668 122.003,230.168 120.5,226.5C 120.833,225.833 121.167,225.167 121.5,224.5C 130.454,230.818 140.454,234.151 151.5,234.5 Z"/></g>
</svg>
