<?xml version="1.0" encoding="UTF-8"?>
<!DOCTYPE svg PUBLIC "-//W3C//DTD SVG 1.1//EN" "http://www.w3.org/Graphics/SVG/1.1/DTD/svg11.dtd">
<svg xmlns="http://www.w3.org/2000/svg" version="1.1" width="547px" height="200px" style="shape-rendering:geometricPrecision; text-rendering:geometricPrecision; image-rendering:optimizeQuality; fill-rule:evenodd; clip-rule:evenodd" xmlns:xlink="http://www.w3.org/1999/xlink">
<g><path style="opacity:0.653" fill="#263d7e" d="M 96.5,-0.5 C 97.8333,-0.5 99.1667,-0.5 100.5,-0.5C 113.793,11.3307 129.46,17.8307 147.5,19C 154.833,19.3333 162.167,19.6667 169.5,20C 169.364,53.0015 162.197,84.5015 148,114.5C 136.78,135.386 120.614,151.22 99.5,162C 105.281,162.512 110.948,161.846 116.5,160C 131.146,152.51 146.146,145.843 161.5,140C 154.266,132.071 155.933,126.404 166.5,123C 172.1,120.421 177.766,120.088 183.5,122C 186.166,127.674 190.5,131.508 196.5,133.5C 197.494,136.897 197.16,140.23 195.5,143.5C 192.671,142.253 190.005,140.753 187.5,139C 180.816,139.946 179.649,142.779 184,147.5C 185.424,154.759 182.59,159.592 175.5,162C 165.712,164.596 156.045,167.596 146.5,171C 136.469,175.683 126.469,180.35 116.5,185C 104.172,188.333 91.8385,188.333 79.5,185C 60.937,174.588 41.2704,166.922 20.5,162C 10.955,157.094 9.62166,150.761 16.5,143C 14.9458,141.108 13.1124,139.608 11,138.5C 7.92805,140.287 4.76138,141.953 1.5,143.5C 0.828112,142.051 0.161445,140.718 -0.5,139.5C -0.5,137.5 -0.5,135.5 -0.5,133.5C 5.02629,131.801 9.19296,128.468 12,123.5C 16.7696,120.01 21.9363,119.51 27.5,122C 33.5028,123.509 37.8361,127.009 40.5,132.5C 39.4534,135.43 37.7868,137.93 35.5,140C 41.814,143.44 48.4807,146.107 55.5,148C 63.7116,152.273 72.0449,156.273 80.5,160C 86.0519,161.846 91.7186,162.512 97.5,162C 69.7954,147.952 50.9621,126.119 41,96.5C 32.2195,71.6443 27.7195,46.1443 27.5,20C 47.9916,21.359 67.3249,17.359 85.5,8C 89.5969,5.63042 93.2635,2.79708 96.5,-0.5 Z M 129.5,70.5 C 131.435,69.19 133.435,67.8567 135.5,66.5C 134.5,66.1667 133.5,65.8333 132.5,65.5C 127.823,66.674 123.157,67.5074 118.5,68C 130.707,60.4021 142.707,52.5687 154.5,44.5C 153.635,43.4173 152.635,43.2506 151.5,44C 141.603,49.4478 131.603,54.6144 121.5,59.5C 123.581,55.9128 126.247,52.7461 129.5,50C 129.167,49.5 128.833,49 128.5,48.5C 124.939,50.7788 121.273,52.7788 117.5,54.5C 125.011,46.1556 132.344,37.6556 139.5,29C 139.15,27.7425 138.483,27.4092 137.5,28C 134,31.5 130.5,35 127,38.5C 126.809,32.9171 126.309,27.4171 125.5,22C 116.888,21.8616 108.222,21.3616 99.5,20.5C 99.513,13.7665 98.513,13.2665 96.5,19C 96.8333,19.3333 97.1667,19.6667 97.5,20C 91.0929,20.3246 84.7595,21.1579 78.5,22.5C 76.1296,22.0757 73.7963,21.9091 71.5,22C 70.6911,27.4171 70.1911,32.9171 70,38.5C 66.5,35 63,31.5 59.5,28C 58.5165,27.4092 57.8499,27.7425 57.5,29C 64.9894,37.9892 72.656,46.8225 80.5,55.5C 76.5344,53.2217 72.5344,50.8884 68.5,48.5C 68.1667,49 67.8333,49.5 67.5,50C 70.2852,53.0729 72.9519,56.2395 75.5,59.5C 65.3966,54.6144 55.3966,49.4478 45.5,44C 44.365,43.2506 43.365,43.4173 42.5,44.5C 54.2458,52.9181 66.2458,60.9181 78.5,68.5C 73.8461,67.5037 69.1794,66.5037 64.5,65.5C 63.5,65.8333 62.5,66.1667 61.5,66.5C 63.5654,67.8567 65.5654,69.19 67.5,70.5C 60.3096,69.3621 53.1429,68.0288 46,66.5C 45.1667,66.8333 44.3333,67.1667 43.5,67.5C 49.8157,70.7071 56.149,73.7071 62.5,76.5C 57.7993,76.1142 53.1326,75.4475 48.5,74.5C 45.4649,75.0608 42.4649,75.7275 39.5,76.5C 34.5522,59.2061 31.5522,41.5394 30.5,23.5C 55.7684,25.1885 78.435,18.5218 98.5,3.5C 118.482,18.8227 141.149,25.4894 166.5,23.5C 165.263,41.4999 162.263,59.1666 157.5,76.5C 154.535,75.7275 151.535,75.0608 148.5,74.5C 142.805,75.5753 137.138,76.4086 131.5,77C 161.204,66.3741 160.537,64.2074 129.5,70.5 Z M 88.5,22.5 C 91.1667,22.5 93.8333,22.5 96.5,22.5C 96.8282,27.8746 96.4948,33.2079 95.5,38.5C 94.7065,38.0688 93.8732,37.7355 93,37.5C 87.6559,38.4066 82.3226,39.4066 77,40.5C 75.5962,40.4907 74.4296,39.9907 73.5,39C 74.8333,34.3333 74.8333,29.6667 73.5,25C 78.7472,24.8177 83.7472,23.9843 88.5,22.5 Z M 100.5,22.5 C 104.897,22.4246 109.23,22.9246 113.5,24C 104.868,23.2987 100.868,27.2987 101.5,36C 104.39,37.8918 104.056,38.7251 100.5,38.5C 100.5,33.1667 100.5,27.8333 100.5,22.5 Z M 114.5,25.5 C 117.304,24.3622 120.304,24.1955 123.5,25C 122.529,30.0717 122.195,35.2384 122.5,40.5C 116.834,39.7341 111.168,38.9008 105.5,38C 106.624,37.7508 107.624,37.2508 108.5,36.5C 107.248,34.2646 106.748,31.9313 107,29.5C 113.728,27.896 115.228,30.2293 111.5,36.5C 114.086,37.48 116.753,37.8134 119.5,37.5C 119.52,35.857 118.853,34.5237 117.5,33.5C 118.771,30.0338 117.771,27.3672 114.5,25.5 Z M 82.5,29.5 C 82.62,28.4138 83.2867,27.7472 84.5,27.5C 86.7487,29.1374 88.4154,31.3041 89.5,34C 88.5509,34.6172 87.7175,34.4506 87,33.5C 86.6397,31.5789 85.8064,29.9122 84.5,28.5C 83.8165,28.8627 83.1499,29.1961 82.5,29.5 Z M 81.5,31.5 C 82.6439,33.5351 81.9773,34.3685 79.5,34C 80.0659,33.0053 80.7326,32.172 81.5,31.5 Z M 88.5,42.5 C 90.6618,41.5829 92.9952,41.5829 95.5,42.5C 95.6655,46.5138 95.4988,50.5138 95,54.5C 93.0591,50.2784 90.8924,46.2784 88.5,42.5 Z M 104.5,41.5 C 105.675,41.281 106.675,41.6143 107.5,42.5C 105.941,46.6194 104.107,50.6194 102,54.5C 101.797,50.5787 101.297,46.7454 100.5,43C 102.058,42.79 103.391,42.29 104.5,41.5 Z M 89.5,55.5 C 85.1983,51.6742 80.865,47.8409 76.5,44C 79.7928,43.1744 83.1262,42.6744 86.5,42.5C 87.6564,46.7925 88.6564,51.1259 89.5,55.5 Z M 107.5,55.5 C 108.085,51.4088 109.085,47.4088 110.5,43.5C 113.81,42.6514 117.144,42.818 120.5,44C 115.998,47.6699 111.665,51.5032 107.5,55.5 Z M 97.5,46.5 C 99.3852,50.6155 99.7185,54.9489 98.5,59.5C 97.5078,55.2172 97.1744,50.8839 97.5,46.5 Z M 114.5,53.5 C 111.363,56.2985 109.029,59.6319 107.5,63.5C 105.915,62.9976 105.415,61.9976 106,60.5C 108.436,57.5532 111.269,55.2199 114.5,53.5 Z M 83.5,54.5 C 86.3943,55.8823 88.8943,57.8823 91,60.5C 91.5847,61.9976 91.0847,62.9976 89.5,63.5C 87.7583,60.3566 85.7583,57.3566 83.5,54.5 Z M 93.5,57.5 C 94.2674,58.172 94.9341,59.0053 95.5,60C 93.9387,60.1881 93.272,59.3547 93.5,57.5 Z M 103.5,57.5 C 103.728,59.3547 103.061,60.1881 101.5,60C 102.066,59.0053 102.733,58.172 103.5,57.5 Z M 80.5,59.5 C 83.3929,61.114 86.3929,62.4473 89.5,63.5C 88.6597,65.8525 87.3264,67.8525 85.5,69.5C 83.739,68.9649 82.4057,67.9649 81.5,66.5C 83.2385,67.4339 84.9052,67.4339 86.5,66.5C 84.4773,64.1472 82.4773,61.8138 80.5,59.5 Z M 116.5,59.5 C 114.873,61.6298 113.04,63.6298 111,65.5C 110.333,66.5 110.333,67.5 111,68.5C 111.671,67.7476 112.504,67.4142 113.5,67.5C 112.713,69.1042 111.38,69.7709 109.5,69.5C 109.296,67.3146 108.63,65.3146 107.5,63.5C 110.648,62.4242 113.648,61.0909 116.5,59.5 Z M 121.5,59.5 C 121.027,60.9063 120.027,61.573 118.5,61.5C 118.973,60.0937 119.973,59.427 121.5,59.5 Z M 94.5,62.5 C 101.96,61.4485 106.626,64.6152 108.5,72C 101.804,71.5822 95.1372,71.4155 88.5,71.5C 89.7932,67.8798 91.7932,64.8798 94.5,62.5 Z M 74.5,71.5 C 74.7352,70.9033 75.2352,70.5699 76,70.5C 79.1451,71.4113 82.3117,72.2446 85.5,73C 84,73.5 82.5,74 81,74.5C 79.022,73.0944 76.8553,72.0944 74.5,71.5 Z M 119.5,70.5 C 120.552,70.3505 121.552,70.5172 122.5,71C 120.238,72.0468 118.071,73.2135 116,74.5C 114.5,74 113,73.5 111.5,73C 114.379,72.454 117.046,71.6206 119.5,70.5 Z M 61.5,72.5 C 66.8933,73.3455 72.2266,74.5122 77.5,76C 71.6118,76.9731 66.2785,75.8064 61.5,72.5 Z M 135.5,72.5 C 130.722,75.8064 125.388,76.9731 119.5,76C 124.717,74.2568 130.05,73.0901 135.5,72.5 Z M 88.5,85.5 C 100.189,84.4827 111.522,85.9827 122.5,90C 131.068,90.6955 139.568,90.1955 148,88.5C 153.368,87.3327 155.034,88.9993 153,93.5C 145.3,92.6961 137.633,93.3628 130,95.5C 122.407,94.0806 114.907,92.2473 107.5,90C 101.5,89.3333 95.5,89.3333 89.5,90C 82.0934,92.2473 74.5934,94.0806 67,95.5C 59.3665,93.3628 51.6998,92.6961 44,93.5C 43.6905,92.2341 43.1905,91.0674 42.5,90C 42.8333,89.6667 43.1667,89.3333 43.5,89C 53.7951,89.8554 64.1284,90.1888 74.5,90C 79.3707,88.7093 84.0374,87.2093 88.5,85.5 Z M 86.5,103.5 C 94.5069,103.334 102.507,103.5 110.5,104C 121.533,108.887 132.866,109.72 144.5,106.5C 147.907,106.367 148.24,107.534 145.5,110C 133.253,113.761 121.253,113.095 109.5,108C 97.4551,106.408 85.7884,107.742 74.5,112C 66.4138,112.761 58.4138,112.261 50.5,110.5C 50.67,109.178 50.3366,108.011 49.5,107C 57.4344,108.096 65.4344,108.43 73.5,108C 78.1079,106.965 82.4412,105.465 86.5,103.5 Z M 61.5,126.5 C 69.8201,126.736 77.8201,125.236 85.5,122C 94.1667,120 102.833,120 111.5,122C 119.57,125.551 127.904,126.884 136.5,126C 135.252,129.581 132.752,131.081 129,130.5C 122.577,130.016 116.411,128.516 110.5,126C 102.5,125.333 94.5,125.333 86.5,126C 79.1536,129.27 71.4869,130.603 63.5,130C 62.1772,129.184 61.5106,128.017 61.5,126.5 Z M 15.5,124.5 C 23.6946,123.731 30.6946,126.231 36.5,132C 33.1377,133.915 29.471,134.915 25.5,135C 23.2406,136.715 21.0739,138.548 19,140.5C 17.5,139 16,137.5 14.5,136C 16.7173,134.732 18.7173,133.232 20.5,131.5C 18.2529,130.755 16.4196,129.422 15,127.5C 14.5304,126.423 14.6971,125.423 15.5,124.5 Z M 172.5,124.5 C 175.518,124.335 178.518,124.502 181.5,125C 181.957,125.414 182.291,125.914 182.5,126.5C 180.909,128.633 178.909,130.299 176.5,131.5C 178.283,133.232 180.283,134.732 182.5,136C 181,137.5 179.5,139 178,140.5C 175.766,138.3 173.266,136.467 170.5,135C 166.866,134.844 163.533,133.844 160.5,132C 163.791,128.197 167.791,125.697 172.5,124.5 Z M 11.5,130.5 C 13.2327,131.008 13.566,131.841 12.5,133C 9.62276,134.946 6.62276,136.279 3.5,137C 6.35533,134.969 9.022,132.803 11.5,130.5 Z M 184.5,130.5 C 187.621,132.448 190.621,134.615 193.5,137C 190.377,136.279 187.377,134.946 184.5,133C 183.402,132.23 183.402,131.397 184.5,130.5 Z M 90.5,138.5 C 101.201,137.646 111.535,139.146 121.5,143C 119.957,144.878 118.124,146.378 116,147.5C 104.333,143.5 92.6667,143.5 81,147.5C 78.8762,146.378 77.0429,144.878 75.5,143C 80.617,141.415 85.617,139.915 90.5,138.5 Z M 25.5,139.5 C 42.2707,146.491 58.9374,153.991 75.5,162C 88.9285,167.11 102.595,167.777 116.5,164C 130.036,156.898 144.036,150.898 158.5,146C 162.593,144.206 166.426,142.039 170,139.5C 175.35,142.017 179.183,146.017 181.5,151.5C 180.363,154.47 178.363,156.636 175.5,158C 155.715,162.593 137.048,169.926 119.5,180C 106.282,184.242 92.9483,184.576 79.5,181C 60.5932,170.254 40.5932,162.254 19.5,157C 15.0604,153.987 14.5604,150.487 18,146.5C 20.3959,143.933 22.8959,141.6 25.5,139.5 Z M 48.5,158.5 C 50.9732,158.947 51.1399,159.947 49,161.5C 47.2716,160.648 47.105,159.648 48.5,158.5 Z M 136.5,162.5 C 138.225,162.843 138.725,163.843 138,165.5C 136.961,164.756 136.461,163.756 136.5,162.5 Z M 73.5,169.5 C 73.6716,170.492 73.3382,171.158 72.5,171.5C 70.9689,170.075 71.3023,169.409 73.5,169.5 Z M 102.5,174.5 C 104.465,174.948 104.798,175.948 103.5,177.5C 102.614,176.675 102.281,175.675 102.5,174.5 Z"/></g>
<g><path style="opacity:0.56" fill="#263d7e" d="M 210.5,20.5 C 211.833,20.5 213.167,20.5 214.5,20.5C 214.5,77.1667 214.5,133.833 214.5,190.5C 213.167,190.5 211.833,190.5 210.5,190.5C 210.5,133.833 210.5,77.1667 210.5,20.5 Z"/></g>
<g><path style="opacity:0.822" fill="#263d7e" d="M 268.5,24.5 C 269.794,26.0478 270.461,28.0478 270.5,30.5C 270.167,32.5 269.833,34.5 269.5,36.5C 260.697,34.5667 251.697,33.9 242.5,34.5C 242.5,37.1667 242.5,39.8333 242.5,42.5C 248.724,43.0614 254.724,42.3947 260.5,40.5C 261.833,44.1667 261.833,47.8333 260.5,51.5C 254.561,50.5429 248.561,50.2096 242.5,50.5C 242.334,55.1785 242.501,59.8452 243,64.5C 243.692,65.0253 244.192,65.6919 244.5,66.5C 240.167,67.8333 235.833,67.8333 231.5,66.5C 232.167,65.5 232.833,64.5 233.5,63.5C 232.167,52.5 232.167,41.5 233.5,30.5C 232.147,29.4763 231.48,28.143 231.5,26.5C 244.212,27.1464 256.545,26.4797 268.5,24.5 Z"/></g>
<g><path style="opacity:0.367" fill="#263d7e" d="M 81.5,25.5 C 83.604,25.2011 85.604,25.5344 87.5,26.5C 89.4203,29.3388 91.0869,32.3388 92.5,35.5C 91.5617,36.5529 90.395,37.2196 89,37.5C 87.6043,36.6057 86.1043,35.9391 84.5,35.5C 82.0983,37.049 79.4317,37.7157 76.5,37.5C 77.6109,33.2769 79.2776,29.2769 81.5,25.5 Z M 82.5,29.5 C 83.1499,29.1961 83.8165,28.8627 84.5,28.5C 85.8064,29.9122 86.6397,31.5789 87,33.5C 87.7175,34.4506 88.5509,34.6172 89.5,34C 88.4154,31.3041 86.7487,29.1374 84.5,27.5C 83.2867,27.7472 82.62,28.4138 82.5,29.5 Z M 81.5,31.5 C 80.7326,32.172 80.0659,33.0053 79.5,34C 81.9773,34.3685 82.6439,33.5351 81.5,31.5 Z"/></g>
<g><path style="opacity:0.856" fill="#263d7e" d="M 282.5,33.5 C 292.677,31.4989 300.844,34.4989 307,42.5C 311.317,58.1969 305.317,66.8635 289,68.5C 269.753,65.0733 264.92,54.9066 274.5,38C 277.099,36.205 279.766,34.705 282.5,33.5 Z M 288.5,39.5 C 295.903,39.7357 299.903,43.5691 300.5,51C 299.549,57.6168 295.715,61.1168 289,61.5C 278.373,59.1063 275.54,53.1063 280.5,43.5C 282.84,41.3206 285.507,39.9873 288.5,39.5 Z"/></g>
<g><path style="opacity:0.822" fill="#263d7e" d="M 312.5,33.5 C 321.506,33.3336 330.506,33.5002 339.5,34C 347.3,35.8202 350.133,40.6535 348,48.5C 345.996,51.0897 343.496,53.0897 340.5,54.5C 343.486,58.817 346.82,62.817 350.5,66.5C 346.167,67.8333 341.833,67.8333 337.5,66.5C 337.833,65.8333 338.167,65.1667 338.5,64.5C 336.42,62.0072 334.586,59.3405 333,56.5C 329.817,54.4766 326.317,53.9766 322.5,55C 323.833,58 323.833,61 322.5,64C 323.357,64.6891 324.023,65.5224 324.5,66.5C 320.5,67.8333 316.5,67.8333 312.5,66.5C 313.781,61.5111 314.448,56.3444 314.5,51C 314.333,46.1667 314.167,41.3333 314,36.5C 312.961,35.7562 312.461,34.7562 312.5,33.5 Z M 322.5,41.5 C 327.65,40.3493 332.984,40.1826 338.5,41C 341.167,43 341.167,45 338.5,47C 333.167,47.6667 327.833,47.6667 322.5,47C 323.807,45.0565 323.807,43.2232 322.5,41.5 Z"/></g>
<g><path style="opacity:0.86" fill="#263d7e" d="M 353.5,33.5 C 358.214,33.1734 362.88,33.5067 367.5,34.5C 367.167,35.1667 366.833,35.8333 366.5,36.5C 369.079,41.9918 371.912,47.3252 375,52.5C 378.419,47.3318 381.585,41.9984 384.5,36.5C 384.167,35.8333 383.833,35.1667 383.5,34.5C 388.167,33.1667 392.833,33.1667 397.5,34.5C 397.192,35.3081 396.692,35.9747 396,36.5C 395.833,41.3333 395.667,46.1667 395.5,51C 395.552,56.3444 396.219,61.5111 397.5,66.5C 393.5,67.8333 389.5,67.8333 385.5,66.5C 385.808,65.6919 386.308,65.0253 387,64.5C 387.667,58.5 387.667,52.5 387,46.5C 382.833,53.5 378.667,60.5 374.5,67.5C 370.667,60.5 366.833,53.5 363,46.5C 362.333,52.5 362.333,58.5 363,64.5C 363.692,65.0253 364.192,65.6919 364.5,66.5C 360.833,67.8333 357.167,67.8333 353.5,66.5C 353.808,65.6919 354.308,65.0253 355,64.5C 355.667,55.1667 355.667,45.8333 355,36.5C 353.961,35.7562 353.461,34.7562 353.5,33.5 Z"/></g>
<g><path style="opacity:0.827" fill="#263d7e" d="M 413.5,33.5 C 417.884,33.1744 422.217,33.5078 426.5,34.5C 426.023,35.4776 425.357,36.3109 424.5,37C 429.128,45.7553 433.628,54.5886 438,63.5C 439.074,64.6184 440.24,65.6184 441.5,66.5C 436.833,67.8333 432.167,67.8333 427.5,66.5C 429.679,64.7172 429.679,62.7172 427.5,60.5C 422.167,59.1667 416.833,59.1667 411.5,60.5C 409.321,62.7172 409.321,64.7172 411.5,66.5C 407.5,67.8333 403.5,67.8333 399.5,66.5C 404.755,56.9903 409.755,47.3236 414.5,37.5C 413.754,36.2638 413.421,34.9305 413.5,33.5 Z M 418.5,44.5 C 420.613,46.691 422.28,49.3576 423.5,52.5C 420.554,53.6548 417.554,53.8214 414.5,53C 416.31,50.4078 417.644,47.5744 418.5,44.5 Z"/></g>
<g><path style="opacity:0.862" fill="#263d7e" d="M 442.5,33.5 C 446.884,33.1744 451.217,33.5078 455.5,34.5C 454.674,35.451 454.508,36.451 455,37.5C 460.667,43.1667 466.333,48.8333 472,54.5C 472.667,48.5 472.667,42.5 472,36.5C 471.308,35.9747 470.808,35.3081 470.5,34.5C 474.167,33.1667 477.833,33.1667 481.5,34.5C 481.192,35.3081 480.692,35.9747 480,36.5C 479.333,45.8333 479.333,55.1667 480,64.5C 480.692,65.0253 481.192,65.6919 481.5,66.5C 477.5,67.8333 473.5,67.8333 469.5,66.5C 470.326,65.549 470.492,64.549 470,63.5C 464.333,57.8333 458.667,52.1667 453,46.5C 452.205,53.2177 452.372,59.8843 453.5,66.5C 449.833,67.8333 446.167,67.8333 442.5,66.5C 443.781,61.5111 444.448,56.3444 444.5,51C 444.333,46.1667 444.167,41.3333 444,36.5C 442.961,35.7562 442.461,34.7562 442.5,33.5 Z"/></g>
<g><path style="opacity:0.853" fill="#263d7e" d="M 248.5,71.5 C 257.96,70.126 266.626,72.126 274.5,77.5C 275.609,76.4104 276.609,76.4104 277.5,77.5C 275.518,80.8103 273.185,83.8103 270.5,86.5C 268.654,82.8949 265.654,80.7283 261.5,80C 252.977,77.6135 246.477,80.1135 242,87.5C 239.897,98.7331 244.564,104.733 256,105.5C 259.642,105.287 263.142,104.453 266.5,103C 268.439,102.092 269.439,100.592 269.5,98.5C 270.675,98.281 271.675,98.6143 272.5,99.5C 273.921,102.009 275.588,104.343 277.5,106.5C 271.834,108.666 266.167,110.833 260.5,113C 238.74,114.58 229.573,104.747 233,83.5C 236.594,77.3989 241.761,73.3989 248.5,71.5 Z"/></g>
<g><path style="opacity:0.879" fill="#263d7e" d="M 414.5,77.5 C 419.996,78.7383 425.662,79.4049 431.5,79.5C 437.01,79.4495 442.343,78.7828 447.5,77.5C 448.657,80.7844 448.824,84.1177 448,87.5C 447.5,87 447,86.5 446.5,86C 442.848,85.5014 439.182,85.3347 435.5,85.5C 434.903,94.366 435.57,103.033 437.5,111.5C 433.5,112.833 429.5,112.833 425.5,111.5C 427.43,103.033 428.097,94.366 427.5,85.5C 423.241,85.0025 419.241,85.6692 415.5,87.5C 414.513,84.2317 414.18,80.8984 414.5,77.5 Z"/></g>
<g><path style="opacity:0.855" fill="#263d7e" d="M 279.5,78.5 C 283.367,79.7295 287.2,79.7295 291,78.5C 291.54,80.1346 291.04,81.4679 289.5,82.5C 290.833,85.5 290.833,88.5 289.5,91.5C 295.798,92.4963 302.132,92.8297 308.5,92.5C 308.946,88.1226 308.279,83.9559 306.5,80C 306.833,79.5 307.167,79 307.5,78.5C 310.833,79.8333 314.167,79.8333 317.5,78.5C 317.833,79 318.167,79.5 318.5,80C 317.242,85.1962 316.575,90.5295 316.5,96C 316.552,101.344 317.219,106.511 318.5,111.5C 314.5,112.833 310.5,112.833 306.5,111.5C 308.346,107.418 309.013,103.085 308.5,98.5C 302.132,98.1703 295.798,98.5037 289.5,99.5C 290.833,102.833 290.833,106.167 289.5,109.5C 290.167,110.167 290.833,110.833 291.5,111.5C 287.5,112.833 283.5,112.833 279.5,111.5C 280.781,106.511 281.448,101.344 281.5,96C 281.356,90.0379 280.69,84.2045 279.5,78.5 Z"/></g>
<g><path style="opacity:0.85" fill="#263d7e" d="M 323.5,78.5 C 333.855,79.0247 344.189,79.8581 354.5,81C 359.459,85.9842 359.793,91.3176 355.5,97C 353.779,97.7393 352.113,98.5726 350.5,99.5C 353.367,103.909 356.701,107.909 360.5,111.5C 356.167,112.833 351.833,112.833 347.5,111.5C 347.709,110.914 348.043,110.414 348.5,110C 346.457,106.747 344.29,103.58 342,100.5C 338.927,99.3832 335.76,99.2165 332.5,100C 333.833,103.333 333.833,106.667 332.5,110C 333.308,110.308 333.975,110.808 334.5,111.5C 330.5,112.833 326.5,112.833 322.5,111.5C 323.781,106.511 324.448,101.344 324.5,96C 324.448,90.6556 323.781,85.4889 322.5,80.5C 322.863,79.8165 323.196,79.1499 323.5,78.5 Z M 332.5,86.5 C 337.65,85.3493 342.984,85.1826 348.5,86C 350.602,87.7328 350.935,89.7328 349.5,92C 343.833,92.6667 338.167,92.6667 332.5,92C 333.807,90.0565 333.807,88.2232 332.5,86.5 Z"/></g>
<g><path style="opacity:0.869" fill="#263d7e" d="M 363.5,78.5 C 367.136,79.8268 370.803,79.8268 374.5,78.5C 374.833,79 375.167,79.5 375.5,80C 374.242,85.1962 373.575,90.5295 373.5,96C 373.552,101.344 374.219,106.511 375.5,111.5C 371.5,112.833 367.5,112.833 363.5,111.5C 364.781,106.511 365.448,101.344 365.5,96C 365.356,90.0379 364.69,84.2045 363.5,78.5 Z"/></g>
<g><path style="opacity:0.826" fill="#263d7e" d="M 389.5,78.5 C 397.484,78.0803 405.151,79.4136 412.5,82.5C 410.833,85.1667 409.167,87.8333 407.5,90.5C 404.388,86.9018 400.388,85.2351 395.5,85.5C 391.059,84.5336 388.725,86.2003 388.5,90.5C 394.195,91.087 399.861,91.9203 405.5,93C 412.678,96.5686 414.178,101.735 410,108.5C 400.805,114.831 391.305,115.164 381.5,109.5C 380.914,109.709 380.414,110.043 380,110.5C 379.712,106.726 380.878,103.393 383.5,100.5C 387.919,105.806 393.586,107.639 400.5,106C 403.346,105.121 404.013,103.454 402.5,101C 396.816,100.081 391.149,99.0813 385.5,98C 380.845,95.1034 379.345,90.9367 381,85.5C 383.217,82.3227 386.05,79.9893 389.5,78.5 Z"/></g>
<g><path style="opacity:0.797" fill="#263d7e" d="M 450.5,78.5 C 454.367,79.7295 458.2,79.7295 462,78.5C 462.658,80.108 462.158,81.2747 460.5,82C 461.833,91.3333 461.833,100.667 460.5,110C 461.308,110.308 461.975,110.808 462.5,111.5C 458.5,112.833 454.5,112.833 450.5,111.5C 451.781,106.511 452.448,101.344 452.5,96C 452.356,90.0379 451.69,84.2045 450.5,78.5 Z"/></g>
<g><path style="opacity:0.846" fill="#263d7e" d="M 478.5,78.5 C 482.667,79.8032 486.834,79.8032 491,78.5C 491.595,79.8989 491.428,81.2322 490.5,82.5C 495.088,92.684 500.421,102.351 506.5,111.5C 502.167,112.833 497.833,112.833 493.5,111.5C 494.484,109.402 494.151,107.402 492.5,105.5C 487.533,104.338 482.533,104.171 477.5,105C 475.558,106.972 475.224,109.139 476.5,111.5C 472.5,112.833 468.5,112.833 464.5,111.5C 465.242,110.713 466.075,110.047 467,109.5C 471.644,100.379 476.144,91.2126 480.5,82C 479.027,81.2904 478.36,80.1238 478.5,78.5 Z M 484.5,89.5 C 486.266,92.1879 487.933,95.0212 489.5,98C 486.5,98.6667 483.5,98.6667 480.5,98C 482.246,95.3413 483.58,92.508 484.5,89.5 Z"/></g>
<g><path style="opacity:0.86" fill="#263d7e" d="M 546.5,78.5 C 546.5,79.5 546.5,80.5 546.5,81.5C 545.167,91.1667 545.167,100.833 546.5,110.5C 546.5,111.167 546.5,111.833 546.5,112.5C 542.774,112.823 539.107,112.489 535.5,111.5C 535.709,110.914 536.043,110.414 536.5,110C 530.333,103.833 524.167,97.6667 518,91.5C 517.833,94.6667 517.667,97.8333 517.5,101C 517.584,104.693 518.25,108.193 519.5,111.5C 515.833,112.833 512.167,112.833 508.5,111.5C 509.619,100.493 509.786,89.4928 509,78.5C 512.667,79.8333 516.333,79.8333 520,78.5C 520.684,79.7839 520.517,80.9505 519.5,82C 525.333,87.8333 531.167,93.6667 537,99.5C 537.55,92.4474 537.55,85.4474 537,78.5C 540.165,79.792 543.332,79.792 546.5,78.5 Z"/></g>
<g><path style="opacity:0.857" fill="#263d7e" d="M 249.5,118.5 C 253.182,118.335 256.848,118.501 260.5,119C 266.167,121.167 271.834,123.334 277.5,125.5C 275.445,127.555 273.779,129.888 272.5,132.5C 271.675,133.386 270.675,133.719 269.5,133.5C 268.901,130.832 267.234,128.998 264.5,128C 259.151,126.071 253.818,126.071 248.5,128C 241.93,131.655 239.763,137.155 242,144.5C 247.643,152.521 255.143,154.688 264.5,151C 267.585,150.3 269.585,148.467 270.5,145.5C 272.823,148.126 275.157,150.793 277.5,153.5C 276.807,155.711 275.641,156.045 274,154.5C 263.299,161.4 252.133,162.233 240.5,157C 230.762,148.656 228.928,138.823 235,127.5C 239.015,122.946 243.848,119.946 249.5,118.5 Z"/></g>
<g><path style="opacity:0.79" fill="#263d7e" d="M 424.5,123.5 C 425.376,123.369 426.043,123.702 426.5,124.5C 425.167,127.167 425.167,129.833 426.5,132.5C 424.741,133.754 423.241,133.421 422,131.5C 415.667,132.833 409.333,132.833 403,131.5C 402.503,133.81 402.337,136.143 402.5,138.5C 407.179,138.666 411.845,138.499 416.5,138C 417,137.5 417.5,137 418,136.5C 418.824,139.882 418.657,143.216 417.5,146.5C 416.692,146.192 416.025,145.692 415.5,145C 411.179,144.501 406.846,144.334 402.5,144.5C 402.5,147.167 402.5,149.833 402.5,152.5C 410.223,152.8 417.89,152.467 425.5,151.5C 426.833,154.5 426.833,157.5 425.5,160.5C 414.552,159.522 403.552,159.189 392.5,159.5C 392.36,157.876 393.027,156.71 394.5,156C 393.822,146.197 393.155,136.364 392.5,126.5C 402.817,125.668 413.151,125.168 423.5,125C 424.056,124.617 424.389,124.117 424.5,123.5 Z"/></g>
<g><path style="opacity:0.814" fill="#263d7e" d="M 505.5,123.5 C 506.777,124.694 507.444,126.36 507.5,128.5C 507.167,130.167 506.833,131.833 506.5,133.5C 505.522,133.023 504.689,132.357 504,131.5C 497.333,132.833 490.667,132.833 484,131.5C 483.503,133.81 483.337,136.143 483.5,138.5C 488.179,138.666 492.845,138.499 497.5,138C 498,137.5 498.5,137 499,136.5C 499.824,139.882 499.657,143.216 498.5,146.5C 493.739,144.63 488.739,143.963 483.5,144.5C 483.5,147.167 483.5,149.833 483.5,152.5C 491.223,152.8 498.89,152.467 506.5,151.5C 507.833,154.5 507.833,157.5 506.5,160.5C 495.552,159.522 484.552,159.189 473.5,159.5C 474.69,153.795 475.356,147.962 475.5,142C 475.448,136.656 474.781,131.489 473.5,126.5C 483.817,125.668 494.151,125.168 504.5,125C 505.056,124.617 505.389,124.117 505.5,123.5 Z"/></g>
<g><path style="opacity:0.854" fill="#263d7e" d="M 294.5,124.5 C 307.508,123.855 315.175,129.855 317.5,142.5C 316.608,151.223 311.942,156.723 303.5,159C 291.501,161.583 283.001,157.417 278,146.5C 276.99,134.157 282.49,126.824 294.5,124.5 Z M 293.5,131.5 C 304.339,130.837 309.172,135.837 308,146.5C 307.215,148.286 306.049,149.786 304.5,151C 291.584,155.404 285.751,150.904 287,137.5C 288.914,135.144 291.081,133.144 293.5,131.5 Z"/></g>
<g><path style="opacity:0.824" fill="#263d7e" d="M 447.5,124.5 C 454.047,124.809 460.38,126.143 466.5,128.5C 465.32,131.54 463.653,134.206 461.5,136.5C 456.368,131.436 450.368,130.269 443.5,133C 438.404,137.248 437.237,142.415 440,148.5C 442.869,151.886 446.536,153.219 451,152.5C 453.96,152.557 456.793,152.057 459.5,151C 460.337,149.989 460.67,148.822 460.5,147.5C 457.091,147.249 453.758,147.583 450.5,148.5C 449.167,145.833 449.167,143.167 450.5,140.5C 456.81,141.13 463.144,141.796 469.5,142.5C 468.358,144.117 467.691,145.95 467.5,148C 467.825,150.235 467.992,152.402 468,154.5C 457.733,160.419 447.233,160.919 436.5,156C 426.877,146.346 427.21,137.012 437.5,128C 440.85,126.514 444.184,125.347 447.5,124.5 Z"/></g>
<g><path style="opacity:0.785" fill="#263d7e" d="M 321.5,125.5 C 325.226,125.177 328.893,125.511 332.5,126.5C 331.529,135.112 331.196,143.779 331.5,152.5C 338.891,152.799 346.224,152.465 353.5,151.5C 354.833,154.5 354.833,157.5 353.5,160.5C 342.885,159.523 332.219,159.19 321.5,159.5C 322.811,148.154 322.811,136.821 321.5,125.5 Z"/></g>
<g><path style="opacity:0.814" fill="#263d7e" d="M 356.5,125.5 C 360.555,125.176 364.555,125.509 368.5,126.5C 366.57,134.967 365.903,143.634 366.5,152.5C 373.508,152.666 380.508,152.5 387.5,152C 388.416,151.626 389.25,151.126 390,150.5C 390.824,153.882 390.657,157.216 389.5,160.5C 378.531,159.854 367.531,159.188 356.5,158.5C 356.808,157.692 357.308,157.025 358,156.5C 359.06,145.983 358.56,135.65 356.5,125.5 Z"/></g>
<g><path style="opacity:0.589" fill="#263d7e" d="M 26.5,146.5 C 31.4221,147.524 32.7554,150.024 30.5,154C 28.1913,154.756 26.1913,154.256 24.5,152.5C 25.7472,150.677 26.4139,148.677 26.5,146.5 Z"/></g>
<g><path style="opacity:0.532" fill="#263d7e" d="M 32.5,149.5 C 33.5,149.5 34.5,149.5 35.5,149.5C 35.3505,150.552 35.5172,151.552 36,152.5C 36.8928,151.289 37.7261,151.289 38.5,152.5C 36.5,153.833 34.8333,155.5 33.5,157.5C 33.5553,154.877 33.222,152.211 32.5,149.5 Z"/></g>
<g><path style="opacity:0.544" fill="#263d7e" d="M 164.5,156.5 C 164.179,158.048 163.179,158.715 161.5,158.5C 160.637,156.105 160.637,153.771 161.5,151.5C 163.042,150.253 164.542,150.253 166,151.5C 166.617,152.449 166.451,153.282 165.5,154C 167.405,154.826 167.739,155.993 166.5,157.5C 165.817,157.137 165.15,156.804 164.5,156.5 Z"/></g>
<g><path style="opacity:0.509" fill="#263d7e" d="M 155.5,152.5 C 156.873,152.343 158.207,152.51 159.5,153C 159.167,153.333 158.833,153.667 158.5,154C 159.861,155.584 160.528,157.418 160.5,159.5C 158.669,160.052 157.003,160.052 155.5,159.5C 153.522,156.829 153.522,154.496 155.5,152.5 Z"/></g>
<g><path style="opacity:0.519" fill="#263d7e" d="M 41.5,153.5 C 43.9815,154.696 43.9815,156.196 41.5,158C 42.91,158.368 43.91,159.201 44.5,160.5C 42.9974,161.052 41.3307,161.052 39.5,160.5C 39.767,158.035 40.4336,155.701 41.5,153.5 Z"/></g>
<g><path style="opacity:0.511" fill="#263d7e" d="M 150.5,154.5 C 151.376,154.369 152.043,154.702 152.5,155.5C 153.167,157.167 153.833,158.833 154.5,160.5C 152.993,161.739 151.826,161.405 151,159.5C 150.751,160.624 150.251,161.624 149.5,162.5C 147.28,160.449 146.614,158.116 147.5,155.5C 149.738,158.433 150.738,158.099 150.5,154.5 Z"/></g>
<g><path style="opacity:0.623" fill="#263d7e" d="M 47.5,156.5 C 52.478,156.952 53.478,159.119 50.5,163C 45.3608,162.886 44.3608,160.719 47.5,156.5 Z M 48.5,158.5 C 47.105,159.648 47.2716,160.648 49,161.5C 51.1399,159.947 50.9732,158.947 48.5,158.5 Z"/></g>
<g><path style="opacity:0.535" fill="#263d7e" d="M 144.5,156.5 C 144.037,158.902 144.704,161.235 146.5,163.5C 146.167,163.833 145.833,164.167 145.5,164.5C 144.061,162.64 142.395,160.973 140.5,159.5C 141.901,158.479 143.235,157.479 144.5,156.5 Z"/></g>
<g><path style="opacity:0.586" fill="#263d7e" d="M 59.5,162.5 C 54.0857,167.983 52.4191,166.65 54.5,158.5C 55.2811,159.729 55.7811,161.062 56,162.5C 57.5545,160.073 58.7211,160.073 59.5,162.5 Z"/></g>
<g><path style="opacity:0.603" fill="#263d7e" d="M 135.5,160.5 C 141.016,160.473 142.349,162.64 139.5,167C 134.791,167.082 133.458,164.915 135.5,160.5 Z M 136.5,162.5 C 136.461,163.756 136.961,164.756 138,165.5C 138.725,163.843 138.225,162.843 136.5,162.5 Z"/></g>
<g><path style="opacity:0.464" fill="#263d7e" d="M 59.5,162.5 C 66.3374,162.196 67.1707,164.53 62,169.5C 60.3651,169.122 58.8651,168.456 57.5,167.5C 58.4565,165.925 59.1231,164.258 59.5,162.5 Z"/></g>
<g><path style="opacity:0.521" fill="#263d7e" d="M 130.5,162.5 C 133.482,164.116 134.482,166.45 133.5,169.5C 132.914,169.291 132.414,168.957 132,168.5C 131.751,169.624 131.251,170.624 130.5,171.5C 127.679,172.074 125.346,173.408 123.5,175.5C 122.451,172.92 121.784,170.254 121.5,167.5C 124.115,168.643 126.782,169.476 129.5,170C 128.624,168.414 127.624,166.914 126.5,165.5C 127.651,164.269 128.817,164.269 130,165.5C 130.483,164.552 130.649,163.552 130.5,162.5 Z"/></g>
<g><path style="opacity:0.503" fill="#263d7e" d="M 73.5,169.5 C 71.3023,169.409 70.9689,170.075 72.5,171.5C 71.5416,171.953 70.7083,172.619 70,173.5C 65.5174,170.914 65.5174,168.247 70,165.5C 72.0736,166.072 73.2402,167.405 73.5,169.5 Z"/></g>
<g><path style="opacity:0.677" fill="#263d7e" d="M 235.5,166.5 C 236.995,166.415 237.995,167.081 238.5,168.5C 236.114,170.411 235.114,172.911 235.5,176C 235.34,178.47 236.007,180.636 237.5,182.5C 240.897,177.74 243.063,172.74 244,167.5C 245.796,168.767 247.629,168.767 249.5,167.5C 250.605,173.076 252.939,178.409 256.5,183.5C 254.167,184.833 251.833,184.833 249.5,183.5C 249.833,182.833 250.167,182.167 250.5,181.5C 248.235,180.353 245.902,180.186 243.5,181C 242.359,181.741 242.359,182.575 243.5,183.5C 235.891,187.083 231.891,184.583 231.5,176C 231.339,172.16 232.672,168.994 235.5,166.5 Z M 246.5,174.5 C 249.481,177.122 249.148,177.789 245.5,176.5C 245.863,175.817 246.196,175.15 246.5,174.5 Z"/></g>
<g><path style="opacity:0.624" fill="#263d7e" d="M 537.5,166.5 C 541.621,168.204 543.955,171.371 544.5,176C 543.724,178.995 542.557,181.828 541,184.5C 539.989,185.337 538.822,185.67 537.5,185.5C 537.312,183.897 537.812,182.563 539,181.5C 541.11,169.541 539.11,168.541 533,178.5C 532.349,180.235 532.515,181.902 533.5,183.5C 531.5,184.833 529.5,184.833 527.5,183.5C 529.146,179.57 528.313,176.236 525,173.5C 523.301,174.406 521.467,174.739 519.5,174.5C 519.26,177.579 519.593,180.579 520.5,183.5C 518.5,184.833 516.5,184.833 514.5,183.5C 515.407,180.579 515.74,177.579 515.5,174.5C 513.856,174.286 512.356,174.62 511,175.5C 510.502,178.482 510.335,181.482 510.5,184.5C 508.712,184.785 507.045,184.452 505.5,183.5C 506.833,179.5 506.833,175.5 505.5,171.5C 507.341,170.77 509.175,170.103 511,169.5C 517.076,170.476 523.242,170.81 529.5,170.5C 529.233,173.775 530.233,174.608 532.5,173C 532.043,172.586 531.709,172.086 531.5,171.5C 533.766,170.686 536.1,170.186 538.5,170C 537.663,168.989 537.33,167.822 537.5,166.5 Z"/></g>
<g><path style="opacity:0.533" fill="#263d7e" d="M 78.5,173.5 C 77.7321,174.263 77.2321,175.263 77,176.5C 74.3301,175.776 72.8301,174.109 72.5,171.5C 73.3382,171.158 73.6716,170.492 73.5,169.5C 74.2216,169.082 74.7216,168.416 75,167.5C 78.8041,169.832 82.9708,171.332 87.5,172C 88.1258,172.75 88.6258,173.584 89,174.5C 89.5354,172.729 90.3687,172.396 91.5,173.5C 90.9132,176.406 89.2465,178.072 86.5,178.5C 85.5873,173.26 84.5873,173.26 83.5,178.5C 82.2011,177.91 81.3678,176.91 81,175.5C 80.6924,176.308 80.1924,176.975 79.5,177.5C 78.5713,176.311 78.238,174.978 78.5,173.5 Z"/></g>
<g><path style="opacity:0.639" fill="#263d7e" d="M 280.5,182.5 C 277.307,183.011 274.141,183.678 271,184.5C 262.366,182.919 260.033,178.252 264,170.5C 266.289,169.014 268.789,168.014 271.5,167.5C 276.463,168.991 281.463,170.324 286.5,171.5C 285.754,172.736 285.421,174.07 285.5,175.5C 287.5,175.5 289.5,175.5 291.5,175.5C 291.579,174.07 291.246,172.736 290.5,171.5C 292.5,170.167 294.5,170.167 296.5,171.5C 294.604,183.793 296.104,184.793 301,174.5C 301.49,173.207 301.657,171.873 301.5,170.5C 303.604,170.201 305.604,170.534 307.5,171.5C 307.291,172.086 306.957,172.586 306.5,173C 312.343,186.101 314.343,185.601 312.5,171.5C 317.191,170.003 321.691,170.336 326,172.5C 326.333,171.5 326.667,170.5 327,169.5C 336,170.833 345,170.833 354,169.5C 354.494,171.134 354.66,172.801 354.5,174.5C 351.482,174.335 348.482,174.502 345.5,175C 347.473,175.495 349.473,175.662 351.5,175.5C 351.762,176.978 351.429,178.311 350.5,179.5C 348.71,179.289 347.044,179.289 345.5,179.5C 348.428,180.484 351.428,180.817 354.5,180.5C 354.5,181.833 354.5,183.167 354.5,184.5C 349.786,184.827 345.12,184.493 340.5,183.5C 341.593,179.892 341.76,176.225 341,172.5C 339.599,174.192 337.766,174.859 335.5,174.5C 335.26,177.579 335.593,180.579 336.5,183.5C 334.955,184.452 333.288,184.785 331.5,184.5C 331.5,181.167 331.5,177.833 331.5,174.5C 330.127,174.343 328.793,174.51 327.5,175C 326.833,177 325.5,178.333 323.5,179C 329.438,183.192 328.772,185.025 321.5,184.5C 321.756,182.088 320.756,180.421 318.5,179.5C 317.548,181.045 317.215,182.712 317.5,184.5C 313.774,184.823 310.107,184.489 306.5,183.5C 306.709,182.914 307.043,182.414 307.5,182C 306.333,181.833 305.167,181.667 304,181.5C 302.531,183.461 299.865,184.461 296,184.5C 294.167,184.167 292.333,183.833 290.5,183.5C 291.309,181.929 291.643,180.262 291.5,178.5C 289.5,178.5 287.5,178.5 285.5,178.5C 285.357,180.262 285.691,181.929 286.5,183.5C 285.5,183.833 284.5,184.167 283.5,184.5C 281.97,184.36 280.97,183.693 280.5,182.5 Z M 280.5,182.5 C 280.288,180.616 279.288,179.283 277.5,178.5C 273.894,181.032 270.394,181.032 267,178.5C 265.529,173.967 267.196,171.633 272,171.5C 274.333,171.583 276.166,172.583 277.5,174.5C 278.333,173.5 279.167,172.5 280,171.5C 281.088,173.288 281.588,175.288 281.5,177.5C 281.493,179.369 281.16,181.036 280.5,182.5 Z M 303.5,176.5 C 306.137,178.154 305.803,178.654 302.5,178C 303.056,177.617 303.389,177.117 303.5,176.5 Z"/></g>
<g><path style="opacity:0.669" fill="#263d7e" d="M 406.5,167.5 C 408.01,168.728 409.51,168.728 411,167.5C 411.333,171.5 411.667,175.5 412,179.5C 414,180.833 416,180.833 418,179.5C 418.76,175.775 418.593,172.108 417.5,168.5C 419.278,168.431 421.111,168.097 423,167.5C 422.854,172.123 422.52,176.79 422,181.5C 417.863,184.829 413.363,185.329 408.5,183C 407.874,182.25 407.374,181.416 407,180.5C 406.501,176.179 406.334,171.846 406.5,167.5 Z"/></g>
<g><path style="opacity:0.529" fill="#263d7e" d="M 114.5,176.5 C 112.923,177.722 111.256,178.722 109.5,179.5C 108.719,178.271 108.219,176.938 108,175.5C 106.741,179.223 104.408,180.223 101,178.5C 99.9343,172.44 101.934,171.106 107,174.5C 107.595,170.918 108.929,170.584 111,173.5C 112.917,171.214 115.417,169.88 118.5,169.5C 118.863,171.667 119.363,174 120,176.5C 118.172,177.752 116.339,177.752 114.5,176.5 Z M 102.5,174.5 C 102.281,175.675 102.614,176.675 103.5,177.5C 104.798,175.948 104.465,174.948 102.5,174.5 Z"/></g>
<g><path style="opacity:0.629" fill="#263d7e" d="M 383.5,169.5 C 388.199,170.065 392.865,170.898 397.5,172C 400.167,175.667 400.167,179.333 397.5,183C 392.996,183.998 388.496,184.831 384,185.5C 377.247,184.686 370.414,184.186 363.5,184C 364.331,180.978 362.998,179.478 359.5,179.5C 359.421,180.93 359.754,182.264 360.5,183.5C 358.955,184.452 357.288,184.785 355.5,184.5C 355.5,179.833 355.5,175.167 355.5,170.5C 359.967,170.133 364.3,170.633 368.5,172C 370.22,175.086 369.553,177.419 366.5,179C 367.219,181.556 368.886,182.723 371.5,182.5C 371.759,178.76 371.426,175.094 370.5,171.5C 374.982,170.833 379.316,170.166 383.5,169.5 Z M 383.5,171.5 C 384.117,171.611 384.617,171.944 385,172.5C 385.667,175.833 385.667,179.167 385,182.5C 384.667,181.5 384.333,180.5 384,179.5C 381.205,180.783 378.372,180.783 375.5,179.5C 377.22,179.254 379.22,179.254 381.5,179.5C 381.5,178.167 381.5,176.833 381.5,175.5C 379.473,175.662 377.473,175.495 375.5,175C 378.429,174.223 381.263,174.39 384,175.5C 384.195,174.181 384.028,172.847 383.5,171.5 Z M 389.5,174.5 C 394.667,173.492 396.334,175.325 394.5,180C 392.866,180.494 391.199,180.66 389.5,180.5C 389.5,178.5 389.5,176.5 389.5,174.5 Z"/></g>
<g><path style="opacity:0.656" fill="#263d7e" d="M 424.5,170.5 C 426.527,170.338 428.527,170.505 430.5,171C 430.167,171.333 429.833,171.667 429.5,172C 431.333,173.833 433.167,175.667 435,177.5C 435.687,175.432 435.52,173.432 434.5,171.5C 436.045,170.548 437.712,170.215 439.5,170.5C 439.5,175.167 439.5,179.833 439.5,184.5C 437.833,184.5 436.167,184.5 434.5,184.5C 434.649,183.448 434.483,182.448 434,181.5C 432,180.167 430.333,178.5 429,176.5C 428.289,178.899 428.456,181.232 429.5,183.5C 427.833,184.833 426.167,184.833 424.5,183.5C 424.583,179.169 424.583,174.836 424.5,170.5 Z"/></g>
<g><path style="opacity:0.624" fill="#263d7e" d="M 440.5,170.5 C 444.555,170.176 448.555,170.509 452.5,171.5C 452.291,172.086 451.957,172.586 451.5,173C 452.717,174.648 453.55,176.481 454,178.5C 455.707,176.091 456.54,173.425 456.5,170.5C 458.288,170.215 459.955,170.548 461.5,171.5C 460.119,175.146 458.452,178.646 456.5,182C 456.957,182.414 457.291,182.914 457.5,183.5C 455.604,184.466 453.604,184.799 451.5,184.5C 450.948,180.059 449.281,176.059 446.5,172.5C 445.236,176.18 445.236,179.847 446.5,183.5C 444.5,184.833 442.5,184.833 440.5,183.5C 441.767,179.168 441.767,174.835 440.5,170.5 Z"/></g>
<g><path style="opacity:0.633" fill="#263d7e" d="M 501.5,175.5 C 504.494,177.277 505.16,179.777 503.5,183C 501.801,183.958 499.967,184.458 498,184.5C 493.875,183.695 489.708,183.695 485.5,184.5C 485.756,182.088 484.756,180.421 482.5,179.5C 481.548,181.045 481.215,182.712 481.5,184.5C 475.321,184.832 468.988,184.832 462.5,184.5C 462.5,179.833 462.5,175.167 462.5,170.5C 466.833,170.5 471.167,170.5 475.5,170.5C 475.5,171.833 475.5,173.167 475.5,174.5C 472.482,174.335 469.482,174.502 466.5,175C 468.473,175.495 470.473,175.662 472.5,175.5C 472.762,176.978 472.429,178.311 471.5,179.5C 470.284,178.998 469.117,178.665 468,178.5C 467.5,179 467,179.5 466.5,180C 469.76,180.784 472.927,180.617 476,179.5C 475.923,180.738 476.089,181.738 476.5,182.5C 477.764,178.82 477.764,175.153 476.5,171.5C 480.917,170.13 485.25,170.297 489.5,172C 491.22,175.086 490.553,177.419 487.5,179C 488.667,180.167 489.833,181.333 491,182.5C 491.5,180.667 492.667,179.5 494.5,179C 491.447,177.419 490.78,175.086 492.5,172C 496.553,170.061 500.553,170.227 504.5,172.5C 504.121,174.213 503.121,175.213 501.5,175.5 Z M 501.5,175.5 C 499.473,175.662 497.473,175.495 495.5,175C 497.563,173.507 499.563,173.674 501.5,175.5 Z"/></g>
<g><path style="opacity:0.5" fill="#263d7e" d="M 92.5,172.5 C 94.288,172.215 95.9547,172.548 97.5,173.5C 97.0798,175.326 97.0798,177.326 97.5,179.5C 95.5,179.5 93.5,179.5 91.5,179.5C 91.6741,177.139 92.0074,174.806 92.5,172.5 Z"/></g>
<g><path style="opacity:0.538" fill="#263d7e" d="M 74.5,199.5 C 72.1667,199.5 69.8333,199.5 67.5,199.5C 67.5,196.5 67.5,193.5 67.5,190.5C 69.924,190.192 72.2573,190.526 74.5,191.5C 72.9223,192.298 71.2556,192.798 69.5,193C 71.2482,193.08 72.9149,193.913 74.5,195.5C 72.9223,196.298 71.2556,196.798 69.5,197C 71.744,197.05 73.4107,197.883 74.5,199.5 Z"/></g>
<g><path style="opacity:0.481" fill="#263d7e" d="M 86.5,198.5 C 86.5,198.833 86.5,199.167 86.5,199.5C 85.1667,199.5 83.8333,199.5 82.5,199.5C 82.6602,197.801 82.4935,196.134 82,194.5C 81.5,195 81,195.5 80.5,196C 81.3366,197.011 81.67,198.178 81.5,199.5C 79.5,199.5 77.5,199.5 75.5,199.5C 75.2011,197.396 75.5344,195.396 76.5,193.5C 77.8333,192.167 79.1667,192.167 80.5,193.5C 81.8333,192.5 83.1667,191.5 84.5,190.5C 85.3451,191.989 85.3451,193.822 84.5,196C 84.6387,197.301 85.3054,198.134 86.5,198.5 Z"/></g>
<g><path style="opacity:0.577" fill="#263d7e" d="M 92.5,199.5 C 90.8333,199.5 89.1667,199.5 87.5,199.5C 87.5,198.833 87.1667,198.5 86.5,198.5C 86.2148,196.712 86.5481,195.045 87.5,193.5C 89.1161,192.885 90.4495,191.885 91.5,190.5C 92.4841,193.428 92.8174,196.428 92.5,199.5 Z M 88.5,194.5 C 90.332,195.14 90.6653,196.14 89.5,197.5C 88.6143,196.675 88.281,195.675 88.5,194.5 Z"/></g>
<g><path style="opacity:0.413" fill="#263d7e" d="M 106.5,199.5 C 105.5,199.5 104.5,199.5 103.5,199.5C 103.771,197.179 103.104,195.179 101.5,193.5C 102.833,192.5 104.167,191.5 105.5,190.5C 106.484,193.428 106.817,196.428 106.5,199.5 Z"/></g>
<g><path style="opacity:0.578" fill="#263d7e" d="M 114.5,199.5 C 112.833,199.5 111.167,199.5 109.5,199.5C 108.89,197.288 108.557,195.121 108.5,193C 110.685,189.799 112.685,189.799 114.5,193C 114.005,195.009 114.005,197.176 114.5,199.5 Z"/></g>
<g><path style="opacity:0.508" fill="#263d7e" d="M 128.5,199.5 C 127.833,199.5 127.167,199.5 126.5,199.5C 124.833,198.167 123.167,198.167 121.5,199.5C 119.833,199.5 118.167,199.5 116.5,199.5C 114.583,195.608 115.417,192.608 119,190.5C 122.368,191.098 122.868,192.265 120.5,194C 121.025,194.692 121.692,195.192 122.5,195.5C 124.395,194.027 126.061,192.36 127.5,190.5C 129.041,193.486 129.374,196.486 128.5,199.5 Z M 118.5,195.5 C 121.137,197.154 120.803,197.654 117.5,197C 118.056,196.617 118.389,196.117 118.5,195.5 Z"/></g>
<g><path style="opacity:0.47" fill="#263d7e" d="M 96.5,199.5 C 95.8333,199.5 95.1667,199.5 94.5,199.5C 95.1667,196.833 95.8333,196.833 96.5,199.5 Z"/></g>
</svg>
