<?xml version="1.0" encoding="UTF-8"?>
<svg version="1.1" xmlns="http://www.w3.org/2000/svg" width="1200" height="600">
<path d="M0 0 C1.92706787 0.00845947 1.92706787 0.00845947 3.89306641 0.01708984 C29.49694424 0.34513648 50.49673251 9.44696531 68.75 27.3125 C70.11898437 28.64087891 70.11898437 28.64087891 71.515625 29.99609375 C78.37049861 36.74324792 78.37049861 36.74324792 80.75 40.3125 C81.08 28.7625 81.41 17.2125 81.75 5.3125 C99.9 5.3125 118.05 5.3125 136.75 5.3125 C136.79524071 33.40802753 136.8320437 61.50352531 136.85362434 89.59908009 C136.86391333 102.64590069 136.87792797 115.69269697 136.90087891 128.73950195 C136.92088583 140.11821294 136.93373369 151.49690629 136.93817699 162.87563437 C136.94077205 168.89408438 136.94682147 174.91248397 136.96146011 180.93091774 C136.97515969 186.6099435 136.97919794 192.28889866 136.97621536 197.96793938 C136.97676004 200.03854889 136.98066304 202.10916107 136.98841095 204.17975616 C137.04613519 220.41986085 136.2911411 236.54454796 133 252.5 C132.74730347 253.73387451 132.74730347 253.73387451 132.48950195 254.99267578 C126.90481075 280.73947043 112.95227971 305.97380451 90.55859375 320.6640625 C51.11505712 343.81451098 2.54339622 345.5548162 -41.0625 334.5 C-60.66865001 329.23296673 -79.18195446 321.40378683 -96.25 310.3125 C-94.73529442 305.42461011 -92.77245767 300.87700344 -90.625 296.24609375 C-90.27743652 295.48958023 -89.92987305 294.73306671 -89.57177734 293.95362854 C-88.46744542 291.55105886 -87.35896772 289.15043296 -86.25 286.75 C-85.14169431 284.34569945 -84.03429388 281.94098911 -82.92822266 279.53565979 C-82.24184589 278.04356794 -81.55408781 276.55211048 -80.86474609 275.06138611 C-79.22933937 271.51152141 -77.65793672 267.96078048 -76.25 264.3125 C-72.21462861 265.79213618 -68.69053008 267.74242168 -65 269.9375 C-53.59516149 276.52857846 -42.19034788 282.02574512 -29.5 285.6875 C-28.67363037 285.9261377 -27.84726074 286.16477539 -26.99584961 286.41064453 C-15.51963618 289.53528341 -4.18543531 290.68135499 7.6875 290.625 C8.91734619 290.62008545 10.14719238 290.6151709 11.41430664 290.61010742 C19.91889141 290.50006867 27.6208528 289.97920437 35.75 287.3125 C36.84828125 286.9721875 37.9465625 286.631875 39.078125 286.28125 C53.32414295 281.3779694 65.04898171 271.86838752 72.0625 258.4375 C81.1903071 238.61422918 81.03991731 219.76192101 80.75 198.3125 C80.29181885 198.90562988 79.8336377 199.49875977 79.36157227 200.10986328 C62.60766802 221.73646961 42.5806046 237.33213086 14.75 241.3125 C-0.7503523 242.17495245 -16.49474998 242.62439001 -31.25 237.3125 C-32.36632812 236.93867188 -33.48265625 236.56484375 -34.6328125 236.1796875 C-46.82960332 231.82575035 -57.47075075 225.77689221 -67.25 217.3125 C-68.35408203 216.42498047 -68.35408203 216.42498047 -69.48046875 215.51953125 C-79.69412727 207.04129081 -87.41670573 196.15968588 -93.25 184.3125 C-93.67667969 183.52875 -94.10335937 182.745 -94.54296875 181.9375 C-110.48006228 152.12287579 -111.73533838 111.82425764 -102.51855469 79.76855469 C-97.38701894 63.2766379 -89.7404023 48.23096377 -78.25 35.3125 C-77.57710937 34.45785156 -76.90421875 33.60320312 -76.2109375 32.72265625 C-58.01177372 10.35436133 -27.90388886 -0.12774835 0 0 Z M-34.55126953 70.80908203 C-43.15004975 81.38124911 -49.66413137 93.62183666 -51.25 107.3125 C-51.38277344 108.41851562 -51.51554687 109.52453125 -51.65234375 110.6640625 C-53.5124988 130.51965006 -49.81226215 150.32635833 -37.25 166.3125 C-25.88213811 179.34741184 -11.04548786 189.17423089 6.67431641 190.45117188 C27.51054895 191.39764069 45.94459401 186.25409607 61.92578125 172.171875 C75.91247675 158.53616911 82.48602565 139.97292045 83.0625 120.625 C82.99605062 119.18526342 82.88757286 117.74718835 82.75 116.3125 C82.6571875 115.2709375 82.564375 114.229375 82.46875 113.15625 C80.33020769 94.56738223 72.36839412 77.3582491 57.75 65.3125 C30.42376633 45.26512916 -10.81461697 43.50970488 -34.55126953 70.80908203 Z " fill="#414241" transform="translate(198.25,103.6875)"/>
<path d="M0 0 C4.29 0 8.58 0 13 0 C13 3.63 13 7.26 13 11 C13.99 11 14.98 11 16 11 C16 7.37 16 3.74 16 0 C17.97909398 -0.02686553 19.95828971 -0.04633375 21.9375 -0.0625 C23.03964844 -0.07410156 24.14179687 -0.08570312 25.27734375 -0.09765625 C28 0 28 0 29 1 C29.14115161 3.67058851 29.04247107 6.32432238 29 9 C29.66 9 30.32 9 31 9 C31 6.03 31 3.06 31 0 C35.29 0 39.58 0 44 0 C44 2.97 44 5.94 44 9 C44.99 9 45.98 9 47 9 C47 6.03 47 3.06 47 0 C50.96 0 54.92 0 59 0 C59.1953125 2.57161458 59.390625 5.14322917 59.5859375 7.71484375 C59.72257813 8.46894531 59.85921875 9.22304687 60 10 C60.99 10.495 60.99 10.495 62 11 C62 7.37 62 3.74 62 0 C66.29 0 70.58 0 75 0 C75 4.95 75 9.9 75 15 C79.95 15.66 84.9 16.32 90 17 C90 18.65 90 20.3 90 22 C90.66 22 91.32 22 92 22 C92.33 20.35 92.66 18.7 93 17 C97.29 17 101.58 17 106 17 C105.98259766 18.60681641 105.98259766 18.60681641 105.96484375 20.24609375 C105.95546701 21.64322743 105.94636669 23.04036299 105.9375 24.4375 C105.92912109 25.14455078 105.92074219 25.85160156 105.91210938 26.58007812 C105.90346412 28.38693559 105.94779989 30.19387603 106 32 C107.94090826 33.94090826 111.47293902 33.39919435 114.0625 33.5625 C115.35285156 33.64628906 116.64320313 33.73007813 117.97265625 33.81640625 C119.47119141 33.90728516 119.47119141 33.90728516 121 34 C121.06058594 35.07121094 121.12117187 36.14242187 121.18359375 37.24609375 C121.26798537 38.64324391 121.35263406 40.04037857 121.4375 41.4375 C121.47681641 42.14455078 121.51613281 42.85160156 121.55664062 43.58007812 C121.47624438 47.08690419 121.47624438 47.08690419 123 50 C125.34987262 50.23527773 127.70556039 50.41386417 130.0625 50.5625 C132.351875 50.706875 134.64125 50.85125 137 51 C137 55.62 137 60.24 137 65 C135.68 65.33 134.36 65.66 133 66 C134.32 66.33 135.64 66.66 137 67 C137.33 70.3 137.66 73.6 138 77 C138.33 73.7 138.66 70.4 139 67 C143.29 67 147.58 67 152 67 C152 71.62 152 76.24 152 81 C147.71 81 143.42 81 139 81 C139.33 81.66 139.66 82.32 140 83 C143.98565046 83.60613909 147.97274969 83.74564735 152 84 C152 88.62 152 93.24 152 98 C148.535 98.495 148.535 98.495 145 99 C145 99.66 145 100.32 145 101 C147.31 101 149.62 101 152 101 C152 105.62 152 110.24 152 115 C150.68 115 149.36 115 148 115 C148 115.99 148 116.98 148 118 C149.32 118 150.64 118 152 118 C152 122.62 152 127.24 152 132 C151.34 132 150.68 132 150 132 C150 132.99 150 133.98 150 135 C150.66 135 151.32 135 152 135 C152 139.29 152 143.58 152 148 C151.34 148 150.68 148 150 148 C150 148.99 150 149.98 150 151 C150.66 151 151.32 151 152 151 C152 155.95 152 160.9 152 166 C147.71 166 143.42 166 139 166 C139 165.34 139 164.68 139 164 C138.34 164 137.68 164 137 164 C137 164.66 137 165.32 137 166 C134.89611431 166.05402274 132.79183286 166.09280256 130.6875 166.125 C129.51574219 166.14820313 128.34398437 166.17140625 127.13671875 166.1953125 C124 166 124 166 121 164 C121 164.66 121 165.32 121 166 C116.71 166 112.42 166 108 166 C108 165.34 108 164.68 108 164 C107.34 164 106.68 164 106 164 C106 164.66 106 165.32 106 166 C101.71 166 97.42 166 93 166 C93 165.34 93 164.68 93 164 C87.06 164 81.12 164 75 164 C75 164.66 75 165.32 75 166 C70.71 166 66.42 166 62 166 C62 165.34 62 164.68 62 164 C61.01 164 60.02 164 59 164 C59 164.66 59 165.32 59 166 C55.04 166 51.08 166 47 166 C47 165.34 47 164.68 47 164 C46.01 164 45.02 164 44 164 C44 164.66 44 165.32 44 166 C39.71 166 35.42 166 31 166 C31 165.34 31 164.68 31 164 C30.35675781 164.0721875 29.71351563 164.144375 29.05078125 164.21875 C18.6239744 165.28969164 8.39502537 165.40949497 -2 164 C-2.33 165.65 -2.66 167.3 -3 169 C-6.96 169 -10.92 169 -15 169 C-15 167.35 -15 165.7 -15 164 C-16.32 164 -17.64 164 -19 164 C-19.48602357 175.82158787 -19.48602357 175.82158787 -16 187 C-15.67 186.34 -15.34 185.68 -15 185 C-10.71 185 -6.42 185 -2 185 C-2 189.62 -2 194.24 -2 199 C-4.31 199.33 -6.62 199.66 -9 200 C-6.36 202.97 -3.72 205.94 -1 209 C-0.67 206.69 -0.34 204.38 0 202 C4.29 202 8.58 202 13 202 C13 206.29 13 210.58 13 215 C11.02 215.33 9.04 215.66 7 216 C11.455 218.475 11.455 218.475 16 221 C16 220.34 16 219.68 16 219 C20.29 219 24.58 219 29 219 C29 221.31 29 223.62 29 226 C29.66 226 30.32 226 31 226 C31 223.69 31 221.38 31 219 C35.29 219 39.58 219 44 219 C44 221.64 44 224.28 44 227 C44.99 227 45.98 227 47 227 C47 224.36 47 221.72 47 219 C50.96 219 54.92 219 59 219 C59 221.31 59 223.62 59 226 C59.66 225.67 60.32 225.34 61 225 C61.65772428 221.97065509 61.65772428 221.97065509 62 219 C67.33333333 219 72.66666667 219 78 219 C79.69719127 218.05273046 81.36935236 217.05771739 83 216 C81.35 215.67 79.7 215.34 78 215 C78 210.71 78 206.42 78 202 C81.96 202 85.92 202 90 202 C90.33 204.97 90.66 207.94 91 211 C92.49743119 209.50256881 92.33202693 208.01175761 92.5625 205.9375 C92.706875 204.638125 92.85125 203.33875 93 202 C93.63808594 201.93941406 94.27617188 201.87882813 94.93359375 201.81640625 C95.75988281 201.73261719 96.58617187 201.64882813 97.4375 201.5625 C98.67306641 201.44068359 98.67306641 201.44068359 99.93359375 201.31640625 C101.98662025 201.21069185 101.98662025 201.21069185 103 200 C99.7 199.67 96.4 199.34 93 199 C93 194.38 93 189.76 93 185 C97.29 185 101.58 185 106 185 C106 188.96 106 192.92 106 197 C106.66 197 107.32 197 108 197 C108 193.04 108 189.08 108 185 C112.29 185 116.58 185 121 185 C121 189.62 121 194.24 121 199 C118.03 199.33 115.06 199.66 112 200 C113.49743119 201.49743119 114.98824239 201.33202693 117.0625 201.5625 C118.361875 201.706875 119.66125 201.85125 121 202 C121.33 204.64 121.66 207.28 122 210 C122.33 207.36 122.66 204.72 123 202 C127.62 202 132.24 202 137 202 C137 206.29 137 210.58 137 215 C134.03 215.33 131.06 215.66 128 216 C130.76223278 218.76223278 133.20706617 218.57856291 137 219 C137.33 220.98 137.66 222.96 138 225 C138.33 223.02 138.66 221.04 139 219 C143.29 219 147.58 219 152 219 C152 223.29 152 227.58 152 232 C147 232 142 232 137 232 C137 232.99 137 233.98 137 235 C137 240 137 245 137 250 C134.87527424 250.05386629 132.75016348 250.09273071 130.625 250.125 C129.44164062 250.14820313 128.25828125 250.17140625 127.0390625 250.1953125 C124 250 124 250 122 248 C121.01 248.99 120.02 249.98 119 251 C119.66 251.33 120.32 251.66 121 252 C121 256.62 121 261.24 121 266 C116.71 266 112.42 266 108 266 C108 263.69 108 261.38 108 259 C107.34 259 106.68 259 106 259 C106 261.31 106 263.62 106 266 C105.09636719 266.04898437 104.19273437 266.09796875 103.26171875 266.1484375 C102.08222656 266.22320312 100.90273438 266.29796875 99.6875 266.375 C98.51574219 266.44460938 97.34398437 266.51421875 96.13671875 266.5859375 C92.84300113 266.78613747 92.84300113 266.78613747 90 269 C89.63441883 272.35503476 89.63441883 272.35503476 89.8125 276.125 C89.85310547 278.04699219 89.85310547 278.04699219 89.89453125 280.0078125 C89.92933594 280.99523437 89.96414063 281.98265625 90 283 C86.04 283 82.08 283 78 283 C78 279.37 78 275.74 78 272 C77.34 272.33 76.68 272.66 76 273 C75.53248212 275.35599235 75.53248212 275.35599235 75.375 278.0625 C75.25125 279.691875 75.1275 281.32125 75 283 C70.71 283 66.42 283 62 283 C61.67 280.69 61.34 278.38 61 276 C60.34 276 59.68 276 59 276 C59 278.31 59 280.62 59 283 C55.04 283 51.08 283 47 283 C47 281.02 47 279.04 47 277 C46.01 277 45.02 277 44 277 C44 278.98 44 280.96 44 283 C39.71 283 35.42 283 31 283 C31 280.69 31 278.38 31 276 C30.34 276 29.68 276 29 276 C29 278.31 29 280.62 29 283 C24.71 283 20.42 283 16 283 C15.8046875 280.68880208 15.609375 278.37760417 15.4140625 276.06640625 C15.27742187 275.38449219 15.14078125 274.70257813 15 274 C14.34 273.67 13.68 273.34 13 273 C13 276.3 13 279.6 13 283 C8.71 283 4.42 283 0 283 C-0.33 278.38 -0.66 273.76 -1 269 C-4.80936706 267.47625318 -6.94732215 266.72113533 -10.8125 266.375 C-11.60269531 266.30023438 -12.39289063 266.22546875 -13.20703125 266.1484375 C-13.79871094 266.09945313 -14.39039063 266.05046875 -15 266 C-15.05027344 265.41734375 -15.10054687 264.8346875 -15.15234375 264.234375 C-16.40661083 260.92819635 -18.57363638 260.03644722 -21.5625 258.25 C-22.57441406 257.63640625 -23.58632813 257.0228125 -24.62890625 256.390625 C-25.41136719 255.93171875 -26.19382812 255.4728125 -27 255 C-27 258.63 -27 262.26 -27 266 C-31.29 266 -35.58 266 -40 266 C-40 261.38 -40 256.76 -40 252 C-37.36 251.67 -34.72 251.34 -32 251 C-36.52084209 246.50664023 -39.54972485 244.26327654 -46 244 C-46.04125 242.824375 -46.0825 241.64875 -46.125 240.4375 C-46.64789941 235.90838666 -48.58167225 233.62324925 -51.72265625 230.4453125 C-53 229 -53 229 -53 227 C-55.64 227 -58.28 227 -61 227 C-61.00257813 226.21238281 -61.00515625 225.42476562 -61.0078125 224.61328125 C-61.29297954 216.58107633 -63.05293743 210.72287235 -66.72265625 203.58203125 C-68 201 -68 201 -68 199 C-71.63 199 -75.26 199 -79 199 C-79 194.38 -79 189.76 -79 185 C-77.02 185 -75.04 185 -73 185 C-73.19335938 184.3915625 -73.38671875 183.783125 -73.5859375 183.15625 C-84.82345948 145.32696809 -78.33455501 101.55358445 -60 67 C-63.63 66.67 -67.26 66.34 -71 66 C-71 61.71 -71 57.42 -71 53 C-66.71 53 -62.42 53 -58 53 C-57.67 55.97 -57.34 58.94 -57 62 C-49.26960847 52.76842536 -45.35754318 46.43342908 -46 34 C-45.01257813 33.95101562 -44.02515625 33.90203125 -43.0078125 33.8515625 C-41.72648438 33.77679688 -40.44515625 33.70203125 -39.125 33.625 C-37.21074219 33.52058594 -37.21074219 33.52058594 -35.2578125 33.4140625 C-31.91938301 33.32758894 -31.91938301 33.32758894 -30 31 C-29.75622117 27.64255888 -29.75622117 27.64255888 -29.875 23.875 C-29.89304687 22.59367187 -29.91109375 21.31234375 -29.9296875 19.9921875 C-29.95289063 19.00476563 -29.97609375 18.01734375 -30 17 C-26.04 17 -22.08 17 -18 17 C-18 18.98 -18 20.96 -18 23 C-17.34 22.67 -16.68 22.34 -16 22 C-15.34444881 19.47266765 -15.34444881 19.47266765 -15 17 C-14.25234375 16.95101562 -13.5046875 16.90203125 -12.734375 16.8515625 C-11.74953125 16.77679688 -10.7646875 16.70203125 -9.75 16.625 C-8.28820312 16.52058594 -8.28820312 16.52058594 -6.796875 16.4140625 C-3.68415798 16.1015826 -3.68415798 16.1015826 0 14 C0 9.38 0 4.76 0 0 Z M29 58 C28.67 59.98 28.34 61.96 28 64 C22.06 64.495 22.06 64.495 16 65 C15.505 63.515 15.505 63.515 15 62 C14.34 62.33 13.68 62.66 13 63 C13 63.66 13 64.32 13 65 C12.2575 65.0825 11.515 65.165 10.75 65.25 C7.48778646 66.1396946 6.19045122 67.48503749 4 70 C5.98 70 7.96 70 10 70 C10 74.62 10 79.24 10 84 C6.04 84 2.08 84 -2 84 C-2 81.03 -2 78.06 -2 75 C-14.18691451 85.70971275 -19.85539006 102.50532981 -23 118 C-23.06119582 119.99906355 -23.08249853 122.00170223 -23 124 C-21.68 124 -20.36 124 -19 124 C-19 122.02 -19 120.04 -19 118 C-15.04 118 -11.08 118 -7 118 C-7 119.98 -7 121.96 -7 124 C-2.38 124 2.24 124 7 124 C7 122.02 7 120.04 7 118 C11.29 118 15.58 118 20 118 C20 119.98 20 121.96 20 124 C23.63 124 27.26 124 31 124 C31 122.02 31 120.04 31 118 C35.29 118 39.58 118 44 118 C44 119.98 44 121.96 44 124 C44.99 124 45.98 124 47 124 C47 122.02 47 120.04 47 118 C50.96 118 54.92 118 59 118 C59 119.98 59 121.96 59 124 C59.99 124 60.98 124 62 124 C62 122.02 62 120.04 62 118 C66.29 118 70.58 118 75 118 C75 119.98 75 121.96 75 124 C75.99 124 76.98 124 78 124 C78 122.02 78 120.04 78 118 C81.96 118 85.92 118 90 118 C90 119.98 90 121.96 90 124 C90.99 124 91.98 124 93 124 C93 122.02 93 120.04 93 118 C93.66 118 94.32 118 95 118 C94.35737498 115.04093596 93.7110539 112.08276484 93.0625 109.125 C92.78889648 107.86236328 92.78889648 107.86236328 92.50976562 106.57421875 C92.33251953 105.76855469 92.15527344 104.96289062 91.97265625 104.1328125 C91.81031494 103.38918457 91.64797363 102.64555664 91.48071289 101.87939453 C91.05224081 99.92812876 91.05224081 99.92812876 90 98 C86.04 98 82.08 98 78 98 C78 93.38 78 88.76 78 84 C79.32 84 80.64 84 82 84 C81.505 82.515 81.505 82.515 81 81 C80.01 81 79.02 81 78 81 C77.87625 80.21625 77.7525 79.4325 77.625 78.625 C77.20882007 75.85942178 77.20882007 75.85942178 75 74 C75 76.31 75 78.62 75 81 C70.71 81 66.42 81 62 81 C62 76.38 62 71.76 62 67 C63.32 66.67 64.64 66.34 66 66 C62.74602492 63.74114676 62.74602492 63.74114676 59 63 C59 63.66 59 64.32 59 65 C55.04 65 51.08 65 47 65 C47 63.02 47 61.04 47 59 C45.78571012 57.55611429 45.78571012 57.55611429 42.18359375 57.90234375 C40.60153318 57.90901911 39.01948841 57.92098125 37.4375 57.9375 C36.63119141 57.94201172 35.82488281 57.94652344 34.99414062 57.95117188 C32.99606244 57.96299482 30.99802217 57.98093086 29 58 Z " fill="#424342" transform="translate(893,95)"/>
<path d="M0 0 C0.886875 0.26554687 1.77375 0.53109375 2.6875 0.8046875 C20.53738512 6.81186038 34.03410814 22.4315068 42.625 38.5 C46.58753241 46.66548813 48.98206699 55.17231022 51 64 C51.17535215 64.73033101 51.35070431 65.46066202 51.53137016 66.21312428 C53.42709561 75.11987752 53.26696458 83.99459373 53.22705078 93.04760742 C53.22648574 94.85216261 53.22680504 96.65671827 53.22793579 98.46127319 C53.22850667 103.33034213 53.21679547 108.19931135 53.20278788 113.06835723 C53.19023613 118.16790615 53.18910653 123.26745767 53.18673706 128.36701965 C53.18053531 138.01044312 53.16414222 147.65382093 53.14403808 157.29722434 C53.12163837 168.28154457 53.11067543 179.26586704 53.10064721 190.25020444 C53.07977478 212.83350073 53.04311492 235.41673447 53 258 C34.85 258 16.7 258 -2 258 C-2.0093457 253.24215088 -2.01869141 248.48430176 -2.02832031 243.58227539 C-2.06216528 227.82029833 -2.11755755 212.05845056 -2.18390274 196.29657841 C-2.22358624 186.74499826 -2.25603274 177.19349922 -2.27099609 167.6418457 C-2.28406833 159.30939611 -2.31117376 150.97712581 -2.35461307 142.64477724 C-2.3771035 138.23938517 -2.39291822 133.83421319 -2.39188385 129.42875862 C-2.39112981 125.26798968 -2.40937382 121.10770494 -2.44116783 116.94706154 C-2.44957042 115.43358323 -2.45148383 113.92004997 -2.44580269 112.40655899 C-2.38866987 94.82072841 -5.45128621 75.98958526 -18.0390625 62.7421875 C-28.35252628 53.57922964 -41.47928759 50.01459748 -55.0703125 50.6171875 C-65.23287123 51.60717831 -73.64258274 55.27099833 -82 61 C-83.3303125 61.86625 -83.3303125 61.86625 -84.6875 62.75 C-99.22424115 76.89385625 -102.87415439 97.50814286 -103.15821838 116.94145203 C-103.17865297 119.57262555 -103.19422117 122.20351761 -103.20532227 124.8347168 C-103.21492365 126.29445153 -103.22493497 127.75418361 -103.23532104 129.21391296 C-103.26213165 133.14287123 -103.28326879 137.07184122 -103.30332303 141.00083899 C-103.3253314 145.11946174 -103.35264677 149.23804937 -103.37937927 153.35664368 C-103.42910688 161.14068765 -103.47411885 168.92475133 -103.51740164 176.70883352 C-103.5669454 185.5771414 -103.62179945 194.445414 -103.67708123 203.31368768 C-103.79059493 221.54242704 -103.8967987 239.77119914 -104 258 C-121.82 258 -139.64 258 -158 258 C-158 173.19 -158 88.38 -158 1 C-140.18 1 -122.36 1 -104 1 C-103.505 18.82 -103.505 18.82 -103 37 C-100.36 33.37 -97.72 29.74 -95 26 C-71.73503621 -2.05480928 -34.546805 -12.10831646 0 0 Z " fill="#414241" transform="translate(524,108)"/>
<path d="M0 0 C18.48 0 36.96 0 56 0 C56 13.53 56 27.06 56 41 C58.64 41 61.28 41 64 41 C64 45.62 64 50.24 64 55 C62.35 54.67 60.7 54.34 59 54 C58.34 53.01 57.68 52.02 57 51 C56.67 57.27 56.34 63.54 56 70 C71.51 70 87.02 70 103 70 C103 65.38 103 60.76 103 56 C107.29 56 111.58 56 116 56 C116 60.62 116 65.24 116 70 C116.99 70 117.98 70 119 70 C119 73.96 119 77.92 119 82 C122.96 82 126.92 82 131 82 C131 86.62 131 91.24 131 96 C127.04 96 123.08 96 119 96 C119.01160156 97.79308594 119.02320313 99.58617187 119.03515625 101.43359375 C119.04453229 103.76822813 119.05363269 106.10286363 119.0625 108.4375 C119.07087891 109.62150391 119.07925781 110.80550781 119.08789062 112.02539062 C119.09111328 113.15009766 119.09433594 114.27480469 119.09765625 115.43359375 C119.10289307 116.47572021 119.10812988 117.51784668 119.11352539 118.59155273 C119 121 119 121 118 122 C116.06693502 122.09396057 114.13041162 122.11743517 112.19506836 122.11352539 C110.95385727 122.11344986 109.71264618 122.11337433 108.43382263 122.11329651 C107.0691626 122.10818911 105.70450298 122.1029731 104.33984375 122.09765625 C102.95121817 122.095792 101.56259193 122.09436813 100.17396545 122.09336853 C96.51278885 122.08954387 92.8516517 122.07971403 89.19049072 122.06866455 C85.45707737 122.05844932 81.72365766 122.05387067 77.99023438 122.04882812 C70.66013615 122.0380917 63.33007862 122.02049534 56 122 C56 129.59 56 137.18 56 145 C58.64 145 61.28 145 64 145 C64 149.62 64 154.24 64 159 C61.36 159 58.72 159 56 159 C56.33 188.7 56.66 218.4 57 249 C61.29 249 65.58 249 70 249 C70 253.62 70 258.24 70 263 C66.37 263 62.74 263 59 263 C59.495 263.78375 59.99 264.5675 60.5 265.375 C62 268 62 268 62 270 C62.556875 270.268125 63.11375 270.53625 63.6875 270.8125 C66 272 66 272 68.0625 273.5 C78.22978571 278.69180547 91.26638087 277.52517828 101.99951172 274.421875 C104.82868158 273.45347665 107.56503195 272.3262539 110.30078125 271.12109375 C113 270 113 270 118 269 C118 273.62 118 278.24 118 283 C118.99 283 119.98 283 121 283 C121 287.62 121 292.24 121 297 C120.01 297 119.02 297 118 297 C118 300.63 118 304.26 118 308 C122.29 308 126.58 308 131 308 C131 312.62 131 317.24 131 322 C126.71 322 122.42 322 118 322 C117.67 321.01 117.34 320.02 117 319 C109.28564888 321.63000201 109.28564888 321.63000201 103.98046875 327.1796875 C103.66145805 329.61026747 103.66145805 329.61026747 104 333 C99.71 333 95.42 333 91 333 C91 331.68 91 330.36 91 329 C90.37738281 329.144375 89.75476563 329.28875 89.11328125 329.4375 C68.57975526 333.56138807 45.30477053 332.22817927 27.09765625 321.25 C13.58454706 312.05589553 5.80120812 298.60242951 2.5012207 282.76025391 C0.27618126 270.87123715 -0.14806195 258.94903909 -0.11352539 246.87792969 C-0.11324255 245.50671897 -0.11340315 244.13550811 -0.1139679 242.76429749 C-0.11425207 239.08122764 -0.10841727 235.39819108 -0.10139394 231.7151289 C-0.09509667 227.85144919 -0.0945516 223.98776852 -0.09336853 220.12408447 C-0.09027386 212.82524597 -0.08208587 205.52642265 -0.07201904 198.2275908 C-0.06079967 189.91066512 -0.05533284 181.59373868 -0.05032361 173.27680731 C-0.03990149 156.18452795 -0.02157947 139.09226947 0 122 C-9.57 122 -19.14 122 -29 122 C-29 104.84 -29 87.68 -29 70 C-19.43 70 -9.86 70 0 70 C0 67.03 0 64.06 0 61 C-0.99 61 -1.98 61 -3 61 C-3 56.38 -3 51.76 -3 47 C-2.01 47 -1.02 47 0 47 C0 31.49 0 15.98 0 0 Z " fill="#F59221" transform="translate(698,39)"/>
<path d="M0 0 C18.48 0 36.96 0 56 0 C56 107.58 56 215.16 56 326 C37.52 326 19.04 326 0 326 C0 218.42 0 110.84 0 0 Z " fill="#414341" transform="translate(16,40)"/>
<path d="M0 0 C4.29 0 8.58 0 13 0 C13 0.99 13 1.98 13 3 C15.97 3 18.94 3 22 3 C22 32.7 22 62.4 22 93 C26.29 93 30.58 93 35 93 C35 97.62 35 102.24 35 107 C30.71 107 26.42 107 22 107 C22 157.49 22 207.98 22 260 C12.43 260 2.86 260 -7 260 C-7 263.3 -7 266.6 -7 270 C-10.96 270 -14.92 270 -19 270 C-19 266.7 -19 263.4 -19 260 C-23.62 260 -28.24 260 -33 260 C-33 175.19 -33 90.38 -33 3 C-22.11 3 -11.22 3 0 3 C0 2.01 0 1.02 0 0 Z " fill="#F49321" transform="translate(632,106)"/>
<path d="M0 0 C18.15 0 36.3 0 55 0 C55 16.83 55 33.66 55 51 C36.85 51 18.7 51 0 51 C0 34.17 0 17.34 0 0 Z " fill="#F49320" transform="translate(599,40)"/>
<path d="M0 0 C1.98 0 3.96 0 6 0 C10 8 14 16 18 24 C18.33 16.08 18.66 8.16 19 0 C20.32 0 21.64 0 23 0 C23 11.22 23 22.44 23 34 C21.35 34 19.7 34 18 34 C16.01683656 30.39801864 14.03916011 26.79305369 12.0625 23.1875 C11.49853516 22.16333984 10.93457031 21.13917969 10.35351562 20.08398438 C9.81533203 19.10107422 9.27714844 18.11816406 8.72265625 17.10546875 C7.97640991 15.74651489 7.97640991 15.74651489 7.21508789 14.36010742 C6 12 6 12 5 9 C4.67 17.25 4.34 25.5 4 34 C2.68 34 1.36 34 0 34 C0 22.78 0 11.56 0 0 Z " fill="#59595C" transform="translate(1114,443)"/>
<path d="M0 0 C1.65 0 3.3 0 5 0 C6.41912551 2.49863124 7.8353384 4.99884281 9.25 7.5 C9.64574219 8.19609375 10.04148437 8.8921875 10.44921875 9.609375 C10.84238281 10.30546875 11.23554688 11.0015625 11.640625 11.71875 C12.17478027 12.66137695 12.17478027 12.66137695 12.71972656 13.62304688 C14.56014686 17.03996755 16.26434486 20.52868973 18 24 C18.33 16.08 18.66 8.16 19 0 C20.32 0 21.64 0 23 0 C23 11.22 23 22.44 23 34 C21.35 34 19.7 34 18 34 C16.4453125 32.3046875 16.4453125 32.3046875 15.125 29.875 C14.63 28.9778125 14.135 28.080625 13.625 27.15625 C10.69349467 21.46236465 7.81921478 15.75119815 5 10 C4.67 17.92 4.34 25.84 4 34 C2.68 34 1.36 34 0 34 C0 22.78 0 11.56 0 0 Z " fill="#59595D" transform="translate(423,443)"/>
<path d="M0 0 C1.65 0 3.3 0 5 0 C6.23278843 2.12296568 7.46122182 4.24827697 8.6875 6.375 C9.19700195 7.25091797 9.19700195 7.25091797 9.71679688 8.14453125 C12.71082983 13.34911191 15.29960233 18.59920467 18 24 C18.33 16.08 18.66 8.16 19 0 C20.32 0 21.64 0 23 0 C23 11.22 23 22.44 23 34 C21.35 34 19.7 34 18 34 C16.02026561 30.37530978 14.04130876 26.75019562 12.0625 23.125 C11.49853516 22.09246094 10.93457031 21.05992187 10.35351562 19.99609375 C9.81533203 19.00996094 9.27714844 18.02382813 8.72265625 17.0078125 C8.22515869 16.09660645 7.72766113 15.18540039 7.21508789 14.24658203 C6.45556443 12.84229533 5.71398838 11.42797676 5 10 C4.67 17.92 4.34 25.84 4 34 C2.68 34 1.36 34 0 34 C0 22.78 0 11.56 0 0 Z " fill="#5A5A5D" transform="translate(576,443)"/>
<path d="M0 0 C1.2684375 -0.00773437 1.2684375 -0.00773437 2.5625 -0.015625 C5.18531799 0.27019491 6.77693787 0.84850431 9 2.25 C11.50095273 5.64415013 12 6.92409946 12 11.25 C10.68 11.25 9.36 11.25 8 11.25 C7.319375 10.074375 7.319375 10.074375 6.625 8.875 C5.17824225 6.02460372 5.17824225 6.02460372 2.125 4.8125 C-1.51699589 4.15694074 -2.90141438 4.24010662 -6 6.25 C-9.60203882 11.21832941 -9.69012344 16.34561061 -9 22.25 C-7.67706889 26.36578567 -6.96306764 27.74752993 -3.125 29.75 C0.52818334 30.33450933 1.93039111 30.32406006 5 28.25 C6.31733749 25.95783277 7.11507782 23.76504197 8 21.25 C5.36 21.25 2.72 21.25 0 21.25 C0 19.93 0 18.61 0 17.25 C3.96 17.25 7.92 17.25 12 17.25 C12 22.86 12 28.47 12 34.25 C11.01 34.25 10.02 34.25 9 34.25 C8.67 33.26 8.34 32.27 8 31.25 C7.44054687 31.7346875 6.88109375 32.219375 6.3046875 32.71875 C2.42705868 35.29507287 -1.51146346 35.00752904 -6 34.25 C-9.33874697 32.59425405 -11.44254718 30.36104783 -13.12890625 27 C-15.04421839 20.95345406 -15.25333683 13.60055383 -13.01953125 7.62890625 C-9.72444714 2.10330366 -6.5383826 -0.03986819 0 0 Z " fill="#59595C" transform="translate(980,442.75)"/>
<path d="M0 0 C1.98 0 3.96 0 6 0 C10.29 8.25 14.58 16.5 19 25 C19.33 16.75 19.66 8.5 20 0 C20.99 0 21.98 0 23 0 C23 11.22 23 22.44 23 34 C21.35 34 19.7 34 18 34 C11.565 21.625 11.565 21.625 5 9 C4.67 17.25 4.34 25.5 4 34 C2.68 33.67 1.36 33.34 0 33 C0 22.11 0 11.22 0 0 Z " fill="#58585B" transform="translate(827,443)"/>
<path d="M0 0 C4.03346679 2.10285724 6.34692148 4.75063241 8.4375 8.75 C9.81562128 16.71247849 9.70921179 23.18030534 5 30 C2.58284347 32.76897985 0.66063498 33.83829023 -3.0859375 34.203125 C-7.89115222 34.3015253 -11.19367016 34.26256844 -15 31 C-19.51871143 25.10057119 -20.72497513 20.39743142 -20 13 C-18.93657206 8.10642908 -17.11047181 3.9074021 -12.93359375 0.85546875 C-8.70815272 -1.0139688 -4.46412662 -0.91223457 0 0 Z M-12 6 C-14.96535647 9.81260118 -15.83978218 13.19346542 -16 18 C-15.1450879 22.23923357 -14.10574532 25.85858547 -11.0625 29 C-7.73634417 30.61268161 -6.08544761 31.31769198 -2.4375 30.25 C1.26626476 28.35063345 2.67719033 26.96842901 4 23 C5.00719464 14.18073918 5.00719464 14.18073918 1.875 6.25 C-3.1711434 2.3008443 -6.94370241 1.90029925 -12 6 Z " fill="#59595D" transform="translate(881,443)"/>
<path d="M0 0 C15.67741935 0 15.67741935 0 21 3 C25.5417251 8.22298386 25.55357389 13.1886188 25.3203125 19.96875 C24.78063651 25.07592764 23.25486747 27.77815536 19.625 31.3125 C13.50996149 35.24359618 7.27079112 34 0 34 C0 22.78 0 11.56 0 0 Z M4 4 C4 12.58 4 21.16 4 30 C12.15879627 30.56439504 12.15879627 30.56439504 18 27 C21.30326086 22.21596702 21.7714961 17.64026199 21 12 C19.20306657 7.86705312 17.74425978 6.80819483 14 4 C10.7 4 7.4 4 4 4 Z " fill="#59595C" transform="translate(1150,443)"/>
<path d="M0 0 C4.0348753 1.77339277 6.1679645 4.8424679 7.875 8.8125 C9.93127502 15.33627731 9.54509823 20.94007077 6.921875 27.23828125 C4.9815822 30.94621368 2.92362577 32.69212474 -1 34 C-5.19756604 34.40875175 -8.86971366 34.45211454 -12.8125 32.875 C-17.32303991 29.00882293 -19.64177426 24.72692551 -20.203125 18.88671875 C-20.3490675 12.03958329 -19.04427294 7.40202071 -14.5 2.0625 C-10.19031283 -1.18053959 -5.11232617 -0.92813064 0 0 Z M-13.75 7.625 C-16.0123716 11.92350603 -16.56029643 16.50883586 -15.4921875 21.2578125 C-14.21738803 24.89434573 -12.96184024 27.45161462 -10 30 C-7.12623973 30.98312851 -5.40843065 31.08965551 -2.4375 30.4375 C0.88573399 28.47764406 2.74007405 26.6122345 4 23 C4.77935268 17.32082812 5.48949833 11.0693311 1.875 6.25 C-4.22061967 1.47951504 -8.34449593 2.60560336 -13.75 7.625 Z " fill="#59595C" transform="translate(556,443)"/>
<path d="M0 0 C3.71333707 3.44162948 5.3318518 6.71817708 6.03125 11.7421875 C6.09059618 18.40379673 5.95022723 23.38007862 2.046875 28.921875 C-1.10498379 32.00737887 -4.04181404 32.66746986 -8.375 32.6875 C-12.57180928 32.5704084 -15.27295614 32.35339422 -18.4375 29.375 C-23.01918785 23.34168828 -23.41265455 16.71328427 -22.4375 9.375 C-21.19268371 5.21451775 -19.46926728 2.34607509 -16.3125 -0.625 C-10.63833647 -2.5986221 -5.43880342 -2.57107071 0 0 Z M-15.4375 4.375 C-18.80914342 9.09530079 -19.19192177 13.76210202 -18.4375 19.375 C-17.04525855 22.95504944 -15.58355278 26.07596143 -12.4375 28.375 C-9.13117967 29.62604013 -7.68980716 29.46078444 -4.3125 28.3125 C-0.7425639 25.9066735 0.2229762 24.46798939 1.5625 20.375 C2.22206425 15.4404823 2.20015244 10.91755611 0 6.375 C-2.2507252 3.16994733 -2.2507252 3.16994733 -5.8125 1.75 C-10.19223919 1.29692353 -11.89035103 1.7952553 -15.4375 4.375 Z " fill="#5A5A5D" transform="translate(950.4375,444.625)"/>
<path d="M0 0 C2.475 0.495 2.475 0.495 5 1 C5.33 10.24 5.66 19.48 6 29 C11.73886755 29.97928639 11.73886755 29.97928639 17 29 C17.80929482 25.39129392 18.17814083 21.95538062 18.31640625 18.26171875 C18.35830078 17.19501953 18.40019531 16.12832031 18.44335938 15.02929688 C18.48267578 13.92650391 18.52199219 12.82371094 18.5625 11.6875 C18.60568359 10.56537109 18.64886719 9.44324219 18.69335938 8.28710938 C18.79914787 5.52485431 18.90123672 2.7625137 19 0 C20.32 0 21.64 0 23 0 C23.05847045 3.85410207 23.09375405 7.70808865 23.125 11.5625 C23.14175781 12.64853516 23.15851563 13.73457031 23.17578125 14.85351562 C23.21082173 20.61767486 23.12691029 25.60491049 21 31 C18.03780892 33.78266435 15.43394777 34.21135825 11.5 34.375 C7.5752815 34.21827247 4.99332966 33.72120878 2 31 C0.31297167 26.86246529 -0.24117723 23.39419166 -0.1953125 18.9453125 C-0.18886719 17.83671875 -0.18242188 16.728125 -0.17578125 15.5859375 C-0.15902344 14.44382812 -0.14226562 13.30171875 -0.125 12.125 C-0.11597656 10.9596875 -0.10695313 9.794375 -0.09765625 8.59375 C-0.07417432 5.72895423 -0.04133141 2.86458465 0 0 Z " fill="#5B5B5E" transform="translate(1079,443)"/>
<path d="M0 0 C6.6 0 13.2 0 20 0 C20 1.32 20 2.64 20 4 C14.72 4 9.44 4 4 4 C4 7.63 4 11.26 4 15 C8.95 15 13.9 15 19 15 C19 16.32 19 17.64 19 19 C14.05 19 9.1 19 4 19 C4 22.63 4 26.26 4 30 C9.28 30 14.56 30 20 30 C20 31.32 20 32.64 20 34 C13.4 34 6.8 34 0 34 C0 22.78 0 11.56 0 0 Z " fill="#5A5A5D" transform="translate(724,443)"/>
<path d="M0 0 C1.65 0 3.3 0 5 0 C6.43188298 4.19663574 7.85580167 8.39586415 9.27246094 12.59765625 C9.75531504 14.02612663 10.24032259 15.453871 10.72753906 16.88085938 C11.42823134 18.93431674 12.12109036 20.9902764 12.8125 23.046875 C13.23144531 24.28276367 13.65039062 25.51865234 14.08203125 26.79199219 C15 30 15 30 15 34 C13.68 34 12.36 34 11 34 C10.49440092 32.56445975 9.9957251 31.1264798 9.5 29.6875 C9.2215625 28.88699219 8.943125 28.08648437 8.65625 27.26171875 C8 25 8 25 8 22 C4.37 22 0.74 22 -3 22 C-4.485 27.445 -4.485 27.445 -6 33 C-8.475 33.495 -8.475 33.495 -11 34 C-10.29224481 29.89231078 -9.08394234 26.10196091 -7.71484375 22.16796875 C-7.49429825 21.53135818 -7.27375275 20.89474762 -7.04652405 20.23884583 C-6.34656706 18.22065538 -5.64210815 16.2040707 -4.9375 14.1875 C-4.45998747 12.81325489 -3.9827708 11.43890695 -3.50585938 10.06445312 C-2.34066087 6.70843854 -1.17142161 3.35384822 0 0 Z M2 6 C1.49166409 7.24663331 0.99368855 8.49749387 0.5 9.75 C0.2215625 10.44609375 -0.056875 11.1421875 -0.34375 11.859375 C-1.19540327 14.26422695 -1.19540327 14.26422695 -1 18 C1.31 18 3.62 18 6 18 C5.01 14.04 4.02 10.08 3 6 C2.67 6 2.34 6 2 6 Z " fill="#59595C" transform="translate(620,443)"/>
<path d="M0 0 C1.65 0 3.3 0 5 0 C6.43413798 4.03503875 7.85794765 8.07353086 9.27246094 12.11547852 C9.75468976 13.48885973 10.23968522 14.86127285 10.72753906 16.23266602 C11.42989977 18.20859302 12.12210662 20.18783346 12.8125 22.16796875 C13.23144531 23.35672607 13.65039062 24.5454834 14.08203125 25.77026367 C14.9208205 28.72141874 15.20041922 30.96114355 15 34 C13.68 34 12.36 34 11 34 C10.49440092 32.56445975 9.9957251 31.1264798 9.5 29.6875 C9.2215625 28.88699219 8.943125 28.08648437 8.65625 27.26171875 C8 25 8 25 8 22 C4.37 22.33 0.74 22.66 -3 23 C-3.99 26.3 -4.98 29.6 -6 33 C-8.475 33.495 -8.475 33.495 -11 34 C-9.52240282 26.34409815 -7.07301905 19.2432297 -4.375 11.9375 C-3.95476562 10.78572266 -3.53453125 9.63394531 -3.1015625 8.44726562 C-2.07271705 5.62963206 -1.03876545 2.81398816 0 0 Z M2 6 C0.68 9.96 -0.64 13.92 -2 18 C0.64 18 3.28 18 6 18 C5.01 14.04 4.02 10.08 3 6 C2.67 6 2.34 6 2 6 Z " fill="#59595C" transform="translate(467,443)"/>
<path d="M0 0 C2.89495027 2.19229244 3.99801471 3.90877889 4.921875 7.40625 C4.963125 8.293125 5.004375 9.18 5.046875 10.09375 C2.734375 9.90625 2.734375 9.90625 0.046875 9.09375 C-0.4275 8.26875 -0.901875 7.44375 -1.390625 6.59375 C-2.75792511 3.82495907 -2.75792511 3.82495907 -5.828125 3.09375 C-9.72203567 3.09375 -11.07324152 3.44737059 -13.953125 6.09375 C-17.16631811 11.7887751 -17.16071762 16.66778368 -15.7890625 22.9296875 C-14.86398732 25.3245083 -13.93716925 26.48761894 -11.953125 28.09375 C-8.83202064 29.19035423 -7.03282267 29.10937699 -3.765625 28.46875 C-0.75153026 27.33903047 -0.75153026 27.33903047 0.421875 24.46875 C0.628125 23.685 0.834375 22.90125 1.046875 22.09375 C2.366875 22.42375 3.686875 22.75375 5.046875 23.09375 C2.78653017 29.39892241 2.78653017 29.39892241 -0.015625 32.03125 C-4.41674001 33.62314266 -8.34086158 33.97022373 -12.953125 33.09375 C-17.31920432 30.838742 -19.50741149 28.15958666 -21.390625 23.65625 C-22.52655486 16.46202757 -21.97563025 10.71508566 -18.953125 4.09375 C-14.50059989 -1.47190638 -6.57000991 -3.0484846 0 0 Z " fill="#58585B" transform="translate(774.953125,443.90625)"/>
<path d="M0 0 C1.32 0 2.64 0 4 0 C4 4.95 4 9.9 4 15 C9.28 15 14.56 15 20 15 C20 10.05 20 5.1 20 0 C20.99 0 21.98 0 23 0 C23 11.22 23 22.44 23 34 C22.01 34 21.02 34 20 34 C20 29.05 20 24.1 20 19 C14.72 19 9.44 19 4 19 C4 23.95 4 28.9 4 34 C2.68 34 1.36 34 0 34 C0 22.78 0 11.56 0 0 Z " fill="#5A5A5D" transform="translate(791,443)"/>
<path d="M0 0 C6.6 0 13.2 0 20 0 C20 1.32 20 2.64 20 4 C14.72 4 9.44 4 4 4 C4 7.63 4 11.26 4 15 C8.95 15 13.9 15 19 15 C19 16.32 19 17.64 19 19 C14.05 19 9.1 19 4 19 C4 23.95 4 28.9 4 34 C2.68 34 1.36 34 0 34 C0 22.78 0 11.56 0 0 Z " fill="#59595C" transform="translate(1049,443)"/>
<path d="M0 0 C2.29296875 0.12890625 2.29296875 0.12890625 5 1 C6.80078125 3.65234375 6.80078125 3.65234375 8.3125 6.9375 C8.82425781 8.01902344 9.33601562 9.10054688 9.86328125 10.21484375 C11 13 11 13 11 15 C11.66 15 12.32 15 13 15 C13.226875 14.195625 13.45375 13.39125 13.6875 12.5625 C15.33631588 8.08714261 17.60544412 4.11278682 20 0 C21.32 0 22.64 0 24 0 C23.5263219 3.91524552 22.13095563 6.70226351 20.1171875 10.06420898 C15.29717312 18.14637033 13.76514474 24.47368336 14 34 C12.68 34 11.36 34 10 34 C10.03222656 33.1028125 10.06445312 32.205625 10.09765625 31.28125 C10.00349639 21.15383399 7.3086982 14.77953166 1.93359375 6.265625 C0 3 0 3 0 0 Z " fill="#59595C" transform="translate(1000,443)"/>
<path d="M0 0 C8.25 0 16.5 0 25 0 C25 1.32 25 2.64 25 4 C21.7 4 18.4 4 15 4 C15 13.9 15 23.8 15 34 C13.68 34 12.36 34 11 34 C11 24.1 11 14.2 11 4 C7.37 4 3.74 4 0 4 C0 2.68 0 1.36 0 0 Z " fill="#5B5B5C" transform="translate(689,443)"/>
<path d="M0 0 C8.25 0 16.5 0 25 0 C25 1.32 25 2.64 25 4 C21.37 4 17.74 4 14 4 C14 13.9 14 23.8 14 34 C12.68 34 11.36 34 10 34 C10 24.1 10 14.2 10 4 C6.7 4 3.4 4 0 4 C0 2.68 0 1.36 0 0 Z " fill="#5A5A5C" transform="translate(487,443)"/>
<path d="M0 0 C1.32 0 2.64 0 4 0 C4 9.9 4 19.8 4 30 C9.61 30 15.22 30 21 30 C20.67 31.32 20.34 32.64 20 34 C13.4 34 6.8 34 0 34 C0 22.78 0 11.56 0 0 Z " fill="#5A5A5D" transform="translate(901,443)"/>
<path d="M0 0 C1.32 0 2.64 0 4 0 C4 9.9 4 19.8 4 30 C9.28 30 14.56 30 20 30 C20 31.32 20 32.64 20 34 C13.4 34 6.8 34 0 34 C0 22.78 0 11.56 0 0 Z " fill="#5B5B5D" transform="translate(646,443)"/>
<path d="M0 0 C4.62 0 9.24 0 14 0 C14 4.62 14 9.24 14 14 C9.38 14 4.76 14 0 14 C0 9.38 0 4.76 0 0 Z " fill="#CDCED1" transform="translate(1016,381)"/>
<path d="M0 0 C4.62 0 9.24 0 14 0 C14 4.62 14 9.24 14 14 C9.38 14 4.76 14 0 14 C0 9.38 0 4.76 0 0 Z " fill="#CDCED1" transform="translate(1016,364)"/>
<path d="M0 0 C4.62 0 9.24 0 14 0 C14 4.62 14 9.24 14 14 C9.38 14 4.76 14 0 14 C0 9.38 0 4.76 0 0 Z " fill="#CDCED2" transform="translate(1016,347)"/>
<path d="M0 0 C4.62 0 9.24 0 14 0 C14 4.62 14 9.24 14 14 C9.38 14 4.76 14 0 14 C0 9.38 0 4.76 0 0 Z " fill="#CDCED2" transform="translate(1016,280)"/>
<path d="M0 0 C4.62 0 9.24 0 14 0 C14 4.62 14 9.24 14 14 C9.38 14 4.76 14 0 14 C0 9.38 0 4.76 0 0 Z " fill="#CECED2" transform="translate(1016,263)"/>
<path d="M0 0 C4.62 0 9.24 0 14 0 C14 4.62 14 9.24 14 14 C9.38 14 4.76 14 0 14 C0 9.38 0 4.76 0 0 Z " fill="#CDCED1" transform="translate(1016,129)"/>
<path d="M0 0 C4.62 0 9.24 0 14 0 C14 4.62 14 9.24 14 14 C9.38 14 4.76 14 0 14 C0 9.38 0 4.76 0 0 Z " fill="#CDCED2" transform="translate(1016,112)"/>
<path d="M0 0 C4.29 0 8.58 0 13 0 C13 4.95 13 9.9 13 15 C8.71 15 4.42 15 0 15 C0 10.05 0 5.1 0 0 Z " fill="#D0D1D2" transform="translate(1063,330)"/>
<path d="M0 0 C4.29 0 8.58 0 13 0 C13 4.95 13 9.9 13 15 C8.71 15 4.42 15 0 15 C0 10.05 0 5.1 0 0 Z " fill="#D1D2D3" transform="translate(1032,330)"/>
<path d="M0 0 C4.29 0 8.58 0 13 0 C13 4.95 13 9.9 13 15 C8.71 15 4.42 15 0 15 C0 10.05 0 5.1 0 0 Z " fill="#D1D2D3" transform="translate(679,263)"/>
<path d="M0 0 C4.29 0 8.58 0 13 0 C13 4.95 13 9.9 13 15 C8.71 15 4.42 15 0 15 C0 10.05 0 5.1 0 0 Z " fill="#CFD0D1" transform="translate(1140,246)"/>
<path d="M0 0 C4.29 0 8.58 0 13 0 C13 4.95 13 9.9 13 15 C8.71 15 4.42 15 0 15 C0 10.05 0 5.1 0 0 Z " fill="#D0D0D1" transform="translate(1109,246)"/>
<path d="M0 0 C4.29 0 8.58 0 13 0 C13 4.95 13 9.9 13 15 C8.71 15 4.42 15 0 15 C0 10.05 0 5.1 0 0 Z " fill="#CFD0D1" transform="translate(1094,246)"/>
<path d="M0 0 C4.29 0 8.58 0 13 0 C13 4.95 13 9.9 13 15 C8.71 15 4.42 15 0 15 C0 10.05 0 5.1 0 0 Z " fill="#CFD0D1" transform="translate(1063,246)"/>
<path d="M0 0 C3.35286458 0.03255208 6.70572917 0.06510417 10.05859375 0.09765625 C10.05859375 4.71765625 10.05859375 9.33765625 10.05859375 14.09765625 C5.43859375 14.09765625 0.81859375 14.09765625 -3.94140625 14.09765625 C-4.0390625 4.0390625 -4.0390625 4.0390625 -3.94140625 1.09765625 C-2.94140625 0.09765625 -2.94140625 0.09765625 0 0 Z " fill="#CDCED1" transform="translate(1019.94140625,94.90234375)"/>
<path d="M0 0 C4.29 0 8.58 0 13 0 C13 4.95 13 9.9 13 15 C3.72265625 15.09765625 3.72265625 15.09765625 1 15 C0 14 0 14 -0.09765625 10.83984375 C-0.08025391 8.90818359 -0.08025391 8.90818359 -0.0625 6.9375 C-0.05347656 5.64714844 -0.04445313 4.35679687 -0.03515625 3.02734375 C-0.02355469 2.02832031 -0.01195312 1.02929688 0 0 Z " fill="#D1D2D3" transform="translate(1078,330)"/>
<path d="M0 0 C4.29 0 8.58 0 13 0 C13 4.95 13 9.9 13 15 C3.72265625 15.09765625 3.72265625 15.09765625 1 15 C0 14 0 14 -0.09765625 10.83984375 C-0.08025391 8.90818359 -0.08025391 8.90818359 -0.0625 6.9375 C-0.05347656 5.64714844 -0.04445313 4.35679687 -0.03515625 3.02734375 C-0.02355469 2.02832031 -0.01195312 1.02929688 0 0 Z " fill="#D2D3D4" transform="translate(672,328)"/>
<path d="M0 0 C4.29 0 8.58 0 13 0 C13 4.95 13 9.9 13 15 C3.72265625 15.09765625 3.72265625 15.09765625 1 15 C0 14 0 14 -0.09765625 10.83984375 C-0.08025391 8.90818359 -0.08025391 8.90818359 -0.0625 6.9375 C-0.05347656 5.64714844 -0.04445313 4.35679687 -0.03515625 3.02734375 C-0.02355469 2.02832031 -0.01195312 1.02929688 0 0 Z " fill="#CFD0D1" transform="translate(1078,246)"/>
<path d="M0 0 C4.29 0 8.58 0 13 0 C13 4.62 13 9.24 13 14 C8.71 14 4.42 14 0 14 C0 9.38 0 4.76 0 0 Z " fill="#CFD1D1" transform="translate(1032,381)"/>
<path d="M0 0 C4.29 0 8.58 0 13 0 C13 4.62 13 9.24 13 14 C8.71 14 4.42 14 0 14 C0 9.38 0 4.76 0 0 Z " fill="#D0D1D2" transform="translate(1001,381)"/>
<path d="M0 0 C4.29 0 8.58 0 13 0 C13 4.62 13 9.24 13 14 C8.71 14 4.42 14 0 14 C0 9.38 0 4.76 0 0 Z " fill="#D0D1D2" transform="translate(986,381)"/>
<path d="M0 0 C4.29 0 8.58 0 13 0 C13 4.62 13 9.24 13 14 C8.71 14 4.42 14 0 14 C0 9.38 0 4.76 0 0 Z " fill="#D0D1D2" transform="translate(955,381)"/>
<path d="M0 0 C4.29 0 8.58 0 13 0 C13 4.62 13 9.24 13 14 C8.71 14 4.42 14 0 14 C0 9.38 0 4.76 0 0 Z " fill="#D0D1D1" transform="translate(924,381)"/>
<path d="M0 0 C4.29 0 8.58 0 13 0 C13 4.62 13 9.24 13 14 C8.71 14 4.42 14 0 14 C0 9.38 0 4.76 0 0 Z " fill="#CFD0D1" transform="translate(909,381)"/>
<path d="M0 0 C4.29 0 8.58 0 13 0 C13 4.62 13 9.24 13 14 C8.71 14 4.42 14 0 14 C0 9.38 0 4.76 0 0 Z " fill="#D0D1D2" transform="translate(893,381)"/>
<path d="M0 0 C4.29 0 8.58 0 13 0 C13 4.62 13 9.24 13 14 C8.71 14 4.42 14 0 14 C0 9.38 0 4.76 0 0 Z " fill="#D0D1D2" transform="translate(878,381)"/>
<path d="M0 0 C4.29 0 8.58 0 13 0 C13 4.62 13 9.24 13 14 C8.71 14 4.42 14 0 14 C0 9.38 0 4.76 0 0 Z " fill="#CFD1D1" transform="translate(847,381)"/>
<path d="M0 0 C4.29 0 8.58 0 13 0 C13 4.62 13 9.24 13 14 C8.71 14 4.42 14 0 14 C0 9.38 0 4.76 0 0 Z " fill="#CFD1D2" transform="translate(801,381)"/>
<path d="M0 0 C4.29 0 8.58 0 13 0 C13 4.62 13 9.24 13 14 C8.71 14 4.42 14 0 14 C0 9.38 0 4.76 0 0 Z " fill="#D0D1D2" transform="translate(844,364)"/>
<path d="M0 0 C4.29 0 8.58 0 13 0 C13 4.62 13 9.24 13 14 C8.71 14 4.42 14 0 14 C0 9.38 0 4.76 0 0 Z " fill="#CFD0D1" transform="translate(1032,364)"/>
<path d="M0 0 C4.29 0 8.58 0 13 0 C13 4.62 13 9.24 13 14 C8.71 14 4.42 14 0 14 C0 9.38 0 4.76 0 0 Z " fill="#D0D1D2" transform="translate(1001,364)"/>
<path d="M0 0 C4.29 0 8.58 0 13 0 C13 4.62 13 9.24 13 14 C8.71 14 4.42 14 0 14 C0 9.38 0 4.76 0 0 Z " fill="#D0D1D2" transform="translate(986,364)"/>
<path d="M0 0 C4.29 0 8.58 0 13 0 C13 4.62 13 9.24 13 14 C8.71 14 4.42 14 0 14 C0 9.38 0 4.76 0 0 Z " fill="#D0D0D2" transform="translate(878,364)"/>
<path d="M0 0 C4.29 0 8.58 0 13 0 C13 4.62 13 9.24 13 14 C8.71 14 4.42 14 0 14 C0 9.38 0 4.76 0 0 Z " fill="#CFD0D1" transform="translate(1063,347)"/>
<path d="M0 0 C4.29 0 8.58 0 13 0 C13 4.62 13 9.24 13 14 C8.71 14 4.42 14 0 14 C0 9.38 0 4.76 0 0 Z " fill="#D0D0D1" transform="translate(1032,347)"/>
<path d="M0 0 C4.29 0 8.58 0 13 0 C13 4.62 13 9.24 13 14 C8.71 14 4.42 14 0 14 C0 9.38 0 4.76 0 0 Z " fill="#CFD0D1" transform="translate(816,347)"/>
<path d="M0 0 C4.29 0 8.58 0 13 0 C13 4.62 13 9.24 13 14 C8.71 14 4.42 14 0 14 C0 9.38 0 4.76 0 0 Z " fill="#D0D0D2" transform="translate(1109,280)"/>
<path d="M0 0 C4.29 0 8.58 0 13 0 C13 4.62 13 9.24 13 14 C8.71 14 4.42 14 0 14 C0 9.38 0 4.76 0 0 Z " fill="#CFD0D2" transform="translate(1094,280)"/>
<path d="M0 0 C4.29 0 8.58 0 13 0 C13 4.62 13 9.24 13 14 C8.71 14 4.42 14 0 14 C0 9.38 0 4.76 0 0 Z " fill="#D0D1D2" transform="translate(1078,280)"/>
<path d="M0 0 C4.29 0 8.58 0 13 0 C13 4.62 13 9.24 13 14 C8.71 14 4.42 14 0 14 C0 9.38 0 4.76 0 0 Z " fill="#CFD0D2" transform="translate(1063,280)"/>
<path d="M0 0 C4.29 0 8.58 0 13 0 C13 4.62 13 9.24 13 14 C8.71 14 4.42 14 0 14 C0 9.38 0 4.76 0 0 Z " fill="#D0D0D2" transform="translate(1032,280)"/>
<path d="M0 0 C4.29 0 8.58 0 13 0 C13 4.62 13 9.24 13 14 C8.71 14 4.42 14 0 14 C0 9.38 0 4.76 0 0 Z " fill="#D0D0D2" transform="translate(955,280)"/>
<path d="M0 0 C4.29 0 8.58 0 13 0 C13 4.62 13 9.24 13 14 C8.71 14 4.42 14 0 14 C0 9.38 0 4.76 0 0 Z " fill="#D0D0D2" transform="translate(924,280)"/>
<path d="M0 0 C4.29 0 8.58 0 13 0 C13 4.62 13 9.24 13 14 C8.71 14 4.42 14 0 14 C0 9.38 0 4.76 0 0 Z " fill="#D0D0D2" transform="translate(909,280)"/>
<path d="M0 0 C4.29 0 8.58 0 13 0 C13 4.62 13 9.24 13 14 C8.71 14 4.42 14 0 14 C0 9.38 0 4.76 0 0 Z " fill="#D0D0D1" transform="translate(1109,263)"/>
<path d="M0 0 C4.29 0 8.58 0 13 0 C13 4.62 13 9.24 13 14 C8.71 14 4.42 14 0 14 C0 9.38 0 4.76 0 0 Z " fill="#CFD0D2" transform="translate(1094,263)"/>
<path d="M0 0 C4.29 0 8.58 0 13 0 C13 4.62 13 9.24 13 14 C8.71 14 4.42 14 0 14 C0 9.38 0 4.76 0 0 Z " fill="#D0D1D2" transform="translate(1078,263)"/>
<path d="M0 0 C4.29 0 8.58 0 13 0 C13 4.62 13 9.24 13 14 C8.71 14 4.42 14 0 14 C0 9.38 0 4.76 0 0 Z " fill="#D0D0D1" transform="translate(1063,263)"/>
<path d="M0 0 C4.29 0 8.58 0 13 0 C13 4.62 13 9.24 13 14 C8.71 14 4.42 14 0 14 C0 9.38 0 4.76 0 0 Z " fill="#D0D0D1" transform="translate(1032,263)"/>
<path d="M0 0 C4.29 0 8.58 0 13 0 C13 4.62 13 9.24 13 14 C8.71 14 4.42 14 0 14 C0 9.38 0 4.76 0 0 Z " fill="#D0D1D2" transform="translate(1001,263)"/>
<path d="M0 0 C4.29 0 8.58 0 13 0 C13 4.62 13 9.24 13 14 C8.71 14 4.42 14 0 14 C0 9.38 0 4.76 0 0 Z " fill="#D0D1D2" transform="translate(986,263)"/>
<path d="M0 0 C4.29 0 8.58 0 13 0 C13 4.62 13 9.24 13 14 C8.71 14 4.42 14 0 14 C0 9.38 0 4.76 0 0 Z " fill="#D0D1D2" transform="translate(955,263)"/>
<path d="M0 0 C4.29 0 8.58 0 13 0 C13 4.62 13 9.24 13 14 C8.71 14 4.42 14 0 14 C0 9.38 0 4.76 0 0 Z " fill="#D0D1D2" transform="translate(909,263)"/>
<path d="M0 0 C4.29 0 8.58 0 13 0 C13 4.62 13 9.24 13 14 C8.71 14 4.42 14 0 14 C0 9.38 0 4.76 0 0 Z " fill="#D0D0D1" transform="translate(893,263)"/>
<path d="M0 0 C4.29 0 8.58 0 13 0 C13 4.62 13 9.24 13 14 C8.71 14 4.42 14 0 14 C0 9.38 0 4.76 0 0 Z " fill="#D0D0D2" transform="translate(1140,213)"/>
<path d="M0 0 C4.29 0 8.58 0 13 0 C13 4.62 13 9.24 13 14 C8.71 14 4.42 14 0 14 C0 9.38 0 4.76 0 0 Z " fill="#D0D1D2" transform="translate(1109,213)"/>
<path d="M0 0 C4.29 0 8.58 0 13 0 C13 4.62 13 9.24 13 14 C8.71 14 4.42 14 0 14 C0 9.38 0 4.76 0 0 Z " fill="#CFD0D1" transform="translate(1094,213)"/>
<path d="M0 0 C4.29 0 8.58 0 13 0 C13 4.62 13 9.24 13 14 C8.71 14 4.42 14 0 14 C0 9.38 0 4.76 0 0 Z " fill="#D0D1D2" transform="translate(1078,213)"/>
<path d="M0 0 C4.29 0 8.58 0 13 0 C13 4.62 13 9.24 13 14 C8.71 14 4.42 14 0 14 C0 9.38 0 4.76 0 0 Z " fill="#CFD0D1" transform="translate(1063,213)"/>
<path d="M0 0 C4.29 0 8.58 0 13 0 C13 4.62 13 9.24 13 14 C8.71 14 4.42 14 0 14 C0 9.38 0 4.76 0 0 Z " fill="#D0D0D2" transform="translate(654,199)"/>
<path d="M0 0 C4.29 0 8.58 0 13 0 C13 4.62 13 9.24 13 14 C8.71 14 4.42 14 0 14 C0 9.38 0 4.76 0 0 Z " fill="#D0D1D2" transform="translate(1109,196)"/>
<path d="M0 0 C4.29 0 8.58 0 13 0 C13 4.62 13 9.24 13 14 C8.71 14 4.42 14 0 14 C0 9.38 0 4.76 0 0 Z " fill="#CFD0D2" transform="translate(1094,196)"/>
<path d="M0 0 C4.29 0 8.58 0 13 0 C13 4.62 13 9.24 13 14 C8.71 14 4.42 14 0 14 C0 9.38 0 4.76 0 0 Z " fill="#D0D0D2" transform="translate(1078,196)"/>
<path d="M0 0 C4.29 0 8.58 0 13 0 C13 4.62 13 9.24 13 14 C8.71 14 4.42 14 0 14 C0 9.38 0 4.76 0 0 Z " fill="#D0D0D2" transform="translate(1063,196)"/>
<path d="M0 0 C4.29 0 8.58 0 13 0 C13 4.62 13 9.24 13 14 C8.71 14 4.42 14 0 14 C0 9.38 0 4.76 0 0 Z " fill="#D0D1D2" transform="translate(924,196)"/>
<path d="M0 0 C4.29 0 8.58 0 13 0 C13 4.62 13 9.24 13 14 C8.71 14 4.42 14 0 14 C0 9.38 0 4.76 0 0 Z " fill="#CFD0D1" transform="translate(909,196)"/>
<path d="M0 0 C4.29 0 8.58 0 13 0 C13 4.62 13 9.24 13 14 C8.71 14 4.42 14 0 14 C0 9.38 0 4.76 0 0 Z " fill="#D0D0D2" transform="translate(878,196)"/>
<path d="M0 0 C4.29 0 8.58 0 13 0 C13 4.62 13 9.24 13 14 C8.71 14 4.42 14 0 14 C0 9.38 0 4.76 0 0 Z " fill="#CFD0D2" transform="translate(894,186)"/>
<path d="M0 0 C4.29 0 8.58 0 13 0 C13 4.62 13 9.24 13 14 C8.71 14 4.42 14 0 14 C0 9.38 0 4.76 0 0 Z " fill="#D0D0D1" transform="translate(1109,179)"/>
<path d="M0 0 C4.29 0 8.58 0 13 0 C13 4.62 13 9.24 13 14 C8.71 14 4.42 14 0 14 C0 9.38 0 4.76 0 0 Z " fill="#CFD0D1" transform="translate(1094,179)"/>
<path d="M0 0 C4.29 0 8.58 0 13 0 C13 4.62 13 9.24 13 14 C8.71 14 4.42 14 0 14 C0 9.38 0 4.76 0 0 Z " fill="#D0D0D2" transform="translate(1078,179)"/>
<path d="M0 0 C4.29 0 8.58 0 13 0 C13 4.62 13 9.24 13 14 C8.71 14 4.42 14 0 14 C0 9.38 0 4.76 0 0 Z " fill="#CFD0D1" transform="translate(1063,179)"/>
<path d="M0 0 C4.29 0 8.58 0 13 0 C13 4.62 13 9.24 13 14 C8.71 14 4.42 14 0 14 C0 9.38 0 4.76 0 0 Z " fill="#D0D0D1" transform="translate(955,179)"/>
<path d="M0 0 C4.29 0 8.58 0 13 0 C13 4.62 13 9.24 13 14 C8.71 14 4.42 14 0 14 C0 9.38 0 4.76 0 0 Z " fill="#D0D1D1" transform="translate(924,179)"/>
<path d="M0 0 C4.29 0 8.58 0 13 0 C13 4.62 13 9.24 13 14 C8.71 14 4.42 14 0 14 C0 9.38 0 4.76 0 0 Z " fill="#D0D0D1" transform="translate(909,179)"/>
<path d="M0 0 C4.29 0 8.58 0 13 0 C13 4.62 13 9.24 13 14 C8.71 14 4.42 14 0 14 C0 9.38 0 4.76 0 0 Z " fill="#D0D1D2" transform="translate(802,169)"/>
<path d="M0 0 C4.29 0 8.58 0 13 0 C13 4.62 13 9.24 13 14 C8.71 14 4.42 14 0 14 C0 9.38 0 4.76 0 0 Z " fill="#CFD0D2" transform="translate(1109,162)"/>
<path d="M0 0 C4.29 0 8.58 0 13 0 C13 4.62 13 9.24 13 14 C8.71 14 4.42 14 0 14 C0 9.38 0 4.76 0 0 Z " fill="#CFD0D2" transform="translate(1094,162)"/>
<path d="M0 0 C4.29 0 8.58 0 13 0 C13 4.62 13 9.24 13 14 C8.71 14 4.42 14 0 14 C0 9.38 0 4.76 0 0 Z " fill="#D0D0D2" transform="translate(1078,162)"/>
<path d="M0 0 C4.29 0 8.58 0 13 0 C13 4.62 13 9.24 13 14 C8.71 14 4.42 14 0 14 C0 9.38 0 4.76 0 0 Z " fill="#CFD0D2" transform="translate(1063,162)"/>
<path d="M0 0 C4.29 0 8.58 0 13 0 C13 4.62 13 9.24 13 14 C8.71 14 4.42 14 0 14 C0 9.38 0 4.76 0 0 Z " fill="#CFD0D2" transform="translate(1032,162)"/>
<path d="M0 0 C4.29 0 8.58 0 13 0 C13 4.62 13 9.24 13 14 C8.71 14 4.42 14 0 14 C0 9.38 0 4.76 0 0 Z " fill="#CFD0D2" transform="translate(924,162)"/>
<path d="M0 0 C4.29 0 8.58 0 13 0 C13 4.62 13 9.24 13 14 C8.71 14 4.42 14 0 14 C0 9.38 0 4.76 0 0 Z " fill="#CFD0D1" transform="translate(1094,146)"/>
<path d="M0 0 C4.29 0 8.58 0 13 0 C13 4.62 13 9.24 13 14 C8.71 14 4.42 14 0 14 C0 9.38 0 4.76 0 0 Z " fill="#D0D0D1" transform="translate(1078,146)"/>
<path d="M0 0 C4.29 0 8.58 0 13 0 C13 4.62 13 9.24 13 14 C8.71 14 4.42 14 0 14 C0 9.38 0 4.76 0 0 Z " fill="#CFD0D1" transform="translate(1063,146)"/>
<path d="M0 0 C4.29 0 8.58 0 13 0 C13 4.62 13 9.24 13 14 C8.71 14 4.42 14 0 14 C0 9.38 0 4.76 0 0 Z " fill="#CFD0D1" transform="translate(1032,146)"/>
<path d="M0 0 C4.29 0 8.58 0 13 0 C13 4.62 13 9.24 13 14 C8.71 14 4.42 14 0 14 C0 9.38 0 4.76 0 0 Z " fill="#CFD0D1" transform="translate(1078,129)"/>
<path d="M0 0 C4.29 0 8.58 0 13 0 C13 4.62 13 9.24 13 14 C8.71 14 4.42 14 0 14 C0 9.38 0 4.76 0 0 Z " fill="#CFD0D1" transform="translate(1063,129)"/>
<path d="M0 0 C4.29 0 8.58 0 13 0 C13 4.62 13 9.24 13 14 C8.71 14 4.42 14 0 14 C0 9.38 0 4.76 0 0 Z " fill="#CFD0D1" transform="translate(1032,129)"/>
<path d="M0 0 C4.29 0 8.58 0 13 0 C13 4.62 13 9.24 13 14 C8.71 14 4.42 14 0 14 C0 9.38 0 4.76 0 0 Z " fill="#D0CFCE" transform="translate(816,121)"/>
<path d="M0 0 C4.29 0 8.58 0 13 0 C13 4.62 13 9.24 13 14 C8.71 14 4.42 14 0 14 C0 9.38 0 4.76 0 0 Z " fill="#CFD0D2" transform="translate(1063,112)"/>
<path d="M0 0 C4.29 0 8.58 0 13 0 C13 4.62 13 9.24 13 14 C8.71 14 4.42 14 0 14 C0 9.38 0 4.76 0 0 Z " fill="#CFD0D1" transform="translate(1032,112)"/>
<path d="M0 0 C4.29 0 8.58 0 13 0 C13 4.62 13 9.24 13 14 C8.71 14 4.42 14 0 14 C0 9.38 0 4.76 0 0 Z " fill="#D0D1D2" transform="translate(1001,112)"/>
<path d="M0 0 C4.29 0 8.58 0 13 0 C13 4.62 13 9.24 13 14 C8.71 14 4.42 14 0 14 C0 9.38 0 4.76 0 0 Z " fill="#CFD0D2" transform="translate(847,112)"/>
<path d="M0 0 C4.29 0 8.58 0 13 0 C13 4.62 13 9.24 13 14 C8.71 14 4.42 14 0 14 C0 9.38 0 4.76 0 0 Z " fill="#CFD0D1" transform="translate(1032,95)"/>
<path d="M0 0 C4.29 0 8.58 0 13 0 C13 4.62 13 9.24 13 14 C8.71 14 4.42 14 0 14 C0 9.38 0 4.76 0 0 Z " fill="#D0D1D2" transform="translate(1001,95)"/>
<path d="M0 0 C4.29 0 8.58 0 13 0 C13 4.62 13 9.24 13 14 C8.71 14 4.42 14 0 14 C0 9.38 0 4.76 0 0 Z " fill="#D0D1D2" transform="translate(986,95)"/>
<path d="M0 0 C4.29 0 8.58 0 13 0 C13 4.62 13 9.24 13 14 C8.71 14 4.42 14 0 14 C0 9.38 0 4.76 0 0 Z " fill="#D0D0D1" transform="translate(878,95)"/>
<path d="M0 0 C4.29 0 8.58 0 13 0 C13 4.62 13 9.24 13 14 C8.71 14 4.42 14 0 14 C0 9.38 0 4.76 0 0 Z " fill="#CFD0D1" transform="translate(847,95)"/>
<path d="M0 0 C4.29 0 8.58 0 13 0 C13 4.62 13 9.24 13 14 C8.71 14 4.42 14 0 14 C0 9.38 0 4.76 0 0 Z " fill="#CFD0D1" transform="translate(801,95)"/>
<path d="M0 0 C4.29 0 8.58 0 13 0 C13 4.62 13 9.24 13 14 C8.71 14 4.42 14 0 14 C0 9.38 0 4.76 0 0 Z " fill="#D0D1D2" transform="translate(831,89)"/>
<path d="M0 0 C4.62 0 9.24 0 14 0 C14 4.29 14 8.58 14 13 C9.38 13 4.76 13 0 13 C0 8.71 0 4.42 0 0 Z " fill="#CDCED1" transform="translate(1016,79)"/>
<path d="M0 0 C3.09244792 0.03255208 6.18489583 0.06510417 9.27734375 0.09765625 C9.27734375 4.71765625 9.27734375 9.33765625 9.27734375 14.09765625 C4.98734375 14.09765625 0.69734375 14.09765625 -3.72265625 14.09765625 C-3.8203125 4.0390625 -3.8203125 4.0390625 -3.72265625 1.09765625 C-2.72265625 0.09765625 -2.72265625 0.09765625 0 0 Z " fill="#D3D4D5" transform="translate(699.72265625,376.90234375)"/>
<path d="M0 0 C4.29 0 8.58 0 13 0 C13 4.62 13 9.24 13 14 C3.72265625 14.09765625 3.72265625 14.09765625 1 14 C0 13 0 13 -0.09765625 10.05859375 C-0.06510417 6.70572917 -0.03255208 3.35286458 0 0 Z " fill="#D0D1D2" transform="translate(755,288)"/>
<path d="M0 0 C4.29 0 8.58 0 13 0 C13 4.62 13 9.24 13 14 C3.72265625 14.09765625 3.72265625 14.09765625 1 14 C0 13 0 13 -0.09765625 10.05859375 C-0.06510417 6.70572917 -0.03255208 3.35286458 0 0 Z " fill="#D0D0D2" transform="translate(1001,280)"/>
<path d="M0 0 C4.29 0 8.58 0 13 0 C13.09765625 10.05859375 13.09765625 10.05859375 13 13 C12 14 12 14 9.27734375 14.09765625 C6.18489583 14.06510417 3.09244792 14.03255208 0 14 C0 9.38 0 4.76 0 0 Z " fill="#D0D1D2" transform="translate(986,280)"/>
<path d="M0 0 C9.27734375 -0.09765625 9.27734375 -0.09765625 12 0 C13 1 13 1 13.09765625 3.94140625 C13.06510417 7.29427083 13.03255208 10.64713542 13 14 C8.71 14 4.42 14 0 14 C0 9.38 0 4.76 0 0 Z " fill="#CFD0D1" transform="translate(909,162)"/>
<path d="M0 0 C3.09244792 0.03255208 6.18489583 0.06510417 9.27734375 0.09765625 C9.27734375 4.71765625 9.27734375 9.33765625 9.27734375 14.09765625 C4.98734375 14.09765625 0.69734375 14.09765625 -3.72265625 14.09765625 C-3.8203125 4.0390625 -3.8203125 4.0390625 -3.72265625 1.09765625 C-2.72265625 0.09765625 -2.72265625 0.09765625 0 0 Z " fill="#D2D3D4" transform="translate(576.72265625,142.90234375)"/>
<path d="M0 0 C4.29 0 8.58 0 13 0 C13 4.62 13 9.24 13 14 C3.72265625 14.09765625 3.72265625 14.09765625 1 14 C0 13 0 13 -0.09765625 10.05859375 C-0.06510417 6.70572917 -0.03255208 3.35286458 0 0 Z " fill="#D2D4D5" transform="translate(529,91)"/>
<path d="M0 0 C3.96 0 7.92 0 12 0 C12 4.95 12 9.9 12 15 C8.04 15 4.08 15 0 15 C0 10.05 0 5.1 0 0 Z " fill="#D1D2D2" transform="translate(1048,330)"/>
<path d="M0 0 C3.96 0 7.92 0 12 0 C12 4.95 12 9.9 12 15 C8.04 15 4.08 15 0 15 C0 10.05 0 5.1 0 0 Z " fill="#D0D1D2" transform="translate(832,330)"/>
<path d="M0 0 C4.29 0 8.58 0 13 0 C13.125 11.75 13.125 11.75 12 14 C8.04 14 4.08 14 0 14 C0 9.38 0 4.76 0 0 Z " fill="#D0D1D2" transform="translate(1140,263)"/>
<path d="M0 0 C3.96 0 7.92 0 12 0 C12 4.95 12 9.9 12 15 C8.04 15 4.08 15 0 15 C0 10.05 0 5.1 0 0 Z " fill="#CFD0D1" transform="translate(1125,246)"/>
<path d="M0 0 C3.96 0 7.92 0 12 0 C12 4.95 12 9.9 12 15 C8.04 15 4.08 15 0 15 C0 10.05 0 5.1 0 0 Z " fill="#CFD0D1" transform="translate(1048,246)"/>
<path d="M0 0 C8.3984375 -0.1953125 8.3984375 -0.1953125 11 0 C13 2 13 2 13.1953125 4.8203125 C13.13020833 7.88020833 13.06510417 10.94010417 13 14 C8.71 14 4.42 14 0 14 C0 9.38 0 4.76 0 0 Z " fill="#CFD0D1" transform="translate(853,347)"/>
<path d="M0 0 C8.3984375 -0.1953125 8.3984375 -0.1953125 11 0 C13 2 13 2 13.1953125 4.8203125 C13.13020833 7.88020833 13.06510417 10.94010417 13 14 C8.71 14 4.42 14 0 14 C0 9.38 0 4.76 0 0 Z " fill="#D0D0D2" transform="translate(1140,196)"/>
<path d="M0 0 C4.62 0 9.24 0 14 0 C14 4.29 14 8.58 14 13 C4.8203125 13.29296875 4.8203125 13.29296875 2 13 C-0.92332269 8.61501596 -0.1356502 5.2225328 0 0 Z " fill="#CDCED1" transform="translate(1016,297)"/>
<path d="M0 0 C3.96 0 7.92 0 12 0 C12.25 11.625 12.25 11.625 10 15 C7.6171875 15.29296875 7.6171875 15.29296875 4.875 15.1875 C2.461875 15.0946875 2.461875 15.0946875 0 15 C0 10.05 0 5.1 0 0 Z " fill="#CFD0D1" transform="translate(1156,246)"/>
<path d="M0 0 C4.29 0 8.58 0 13 0 C13 4.62 13 9.24 13 14 C3.375 13.125 3.375 13.125 0 12 C0 8.04 0 4.08 0 0 Z " fill="#CECECF" transform="translate(955,95)"/>
<path d="M0 0 C4.29 0 8.58 0 13 0 C13 3.96 13 7.92 13 12 C8.13112025 13.90005063 5.57710066 14 0 14 C0 9.38 0 4.76 0 0 Z " fill="#CFCFD0" transform="translate(893,95)"/>
<path d="M0 0 C4.29 0 8.58 0 13 0 C13 4.29 13 8.58 13 13 C8.71 13 4.42 13 0 13 C0 8.71 0 4.42 0 0 Z " fill="#CFD1D2" transform="translate(529,383)"/>
<path d="M0 0 C4.29 0 8.58 0 13 0 C13 4.29 13 8.58 13 13 C8.71 13 4.42 13 0 13 C0 8.71 0 4.42 0 0 Z " fill="#CFD0D2" transform="translate(1094,314)"/>
<path d="M0 0 C4.29 0 8.58 0 13 0 C13 4.29 13 8.58 13 13 C8.71 13 4.42 13 0 13 C0 8.71 0 4.42 0 0 Z " fill="#D0D0D1" transform="translate(1078,314)"/>
<path d="M0 0 C4.29 0 8.58 0 13 0 C13 4.29 13 8.58 13 13 C8.71 13 4.42 13 0 13 C0 8.71 0 4.42 0 0 Z " fill="#CFD0D2" transform="translate(1063,314)"/>
<path d="M0 0 C4.29 0 8.58 0 13 0 C13 4.29 13 8.58 13 13 C8.71 13 4.42 13 0 13 C0 8.71 0 4.42 0 0 Z " fill="#D0D0D1" transform="translate(1032,314)"/>
<path d="M0 0 C4.29 0 8.58 0 13 0 C13 4.29 13 8.58 13 13 C8.71 13 4.42 13 0 13 C0 8.71 0 4.42 0 0 Z " fill="#D0D1D1" transform="translate(1109,297)"/>
<path d="M0 0 C4.29 0 8.58 0 13 0 C13 4.29 13 8.58 13 13 C8.71 13 4.42 13 0 13 C0 8.71 0 4.42 0 0 Z " fill="#CFD0D2" transform="translate(1094,297)"/>
<path d="M0 0 C4.29 0 8.58 0 13 0 C13 4.29 13 8.58 13 13 C8.71 13 4.42 13 0 13 C0 8.71 0 4.42 0 0 Z " fill="#D0D0D1" transform="translate(1078,297)"/>
<path d="M0 0 C4.29 0 8.58 0 13 0 C13 4.29 13 8.58 13 13 C8.71 13 4.42 13 0 13 C0 8.71 0 4.42 0 0 Z " fill="#CFD0D1" transform="translate(1063,297)"/>
<path d="M0 0 C4.29 0 8.58 0 13 0 C13 4.29 13 8.58 13 13 C8.71 13 4.42 13 0 13 C0 8.71 0 4.42 0 0 Z " fill="#CFD0D1" transform="translate(1032,297)"/>
<path d="M0 0 C4.29 0 8.58 0 13 0 C13 4.29 13 8.58 13 13 C8.71 13 4.42 13 0 13 C0 8.71 0 4.42 0 0 Z " fill="#D0D1D2" transform="translate(955,297)"/>
<path d="M0 0 C4.29 0 8.58 0 13 0 C13 4.29 13 8.58 13 13 C8.71 13 4.42 13 0 13 C0 8.71 0 4.42 0 0 Z " fill="#D0D0D1" transform="translate(909,297)"/>
<path d="M0 0 C4.29 0 8.58 0 13 0 C13 4.29 13 8.58 13 13 C8.71 13 4.42 13 0 13 C0 8.71 0 4.42 0 0 Z " fill="#D0D1D1" transform="translate(779,250)"/>
<path d="M0 0 C4.29 0 8.58 0 13 0 C13 4.29 13 8.58 13 13 C8.71 13 4.42 13 0 13 C0 8.71 0 4.42 0 0 Z " fill="#CFD0D1" transform="translate(1140,230)"/>
<path d="M0 0 C4.29 0 8.58 0 13 0 C13 4.29 13 8.58 13 13 C8.71 13 4.42 13 0 13 C0 8.71 0 4.42 0 0 Z " fill="#D0D0D1" transform="translate(1109,230)"/>
<path d="M0 0 C4.29 0 8.58 0 13 0 C13 4.29 13 8.58 13 13 C8.71 13 4.42 13 0 13 C0 8.71 0 4.42 0 0 Z " fill="#CFD0D2" transform="translate(1094,230)"/>
<path d="M0 0 C4.29 0 8.58 0 13 0 C13 4.29 13 8.58 13 13 C8.71 13 4.42 13 0 13 C0 8.71 0 4.42 0 0 Z " fill="#D0D0D1" transform="translate(1078,230)"/>
<path d="M0 0 C4.29 0 8.58 0 13 0 C13 4.29 13 8.58 13 13 C8.71 13 4.42 13 0 13 C0 8.71 0 4.42 0 0 Z " fill="#CFD0D1" transform="translate(1063,230)"/>
<path d="M0 0 C4.29 0 8.58 0 13 0 C13 4.29 13 8.58 13 13 C8.71 13 4.42 13 0 13 C0 8.71 0 4.42 0 0 Z " fill="#D0D0D2" transform="translate(822,148)"/>
<path d="M0 0 C4.29 0 8.58 0 13 0 C13 4.29 13 8.58 13 13 C8.71 13 4.42 13 0 13 C0 8.71 0 4.42 0 0 Z " fill="#D0D1D1" transform="translate(1032,79)"/>
<path d="M0 0 C4.29 0 8.58 0 13 0 C13 4.29 13 8.58 13 13 C8.71 13 4.42 13 0 13 C0 8.71 0 4.42 0 0 Z " fill="#D0D1D2" transform="translate(1001,79)"/>
<path d="M0 0 C4.29 0 8.58 0 13 0 C13 4.29 13 8.58 13 13 C8.71 13 4.42 13 0 13 C0 8.71 0 4.42 0 0 Z " fill="#D0D1D2" transform="translate(986,79)"/>
<path d="M0 0 C4.29 0 8.58 0 13 0 C13 4.29 13 8.58 13 13 C8.71 13 4.42 13 0 13 C0 8.71 0 4.42 0 0 Z " fill="#D0D1D2" transform="translate(955,79)"/>
<path d="M0 0 C4.29 0 8.58 0 13 0 C13 4.29 13 8.58 13 13 C8.71 13 4.42 13 0 13 C0 8.71 0 4.42 0 0 Z " fill="#D0D1D1" transform="translate(924,79)"/>
<path d="M0 0 C4.29 0 8.58 0 13 0 C13 4.29 13 8.58 13 13 C8.71 13 4.42 13 0 13 C0 8.71 0 4.42 0 0 Z " fill="#CFD0D1" transform="translate(909,79)"/>
<path d="M0 0 C4.29 0 8.58 0 13 0 C13 4.29 13 8.58 13 13 C8.71 13 4.42 13 0 13 C0 8.71 0 4.42 0 0 Z " fill="#D0D1D1" transform="translate(893,79)"/>
<path d="M0 0 C4.29 0 8.58 0 13 0 C13 4.29 13 8.58 13 13 C8.71 13 4.42 13 0 13 C0 8.71 0 4.42 0 0 Z " fill="#D0D1D2" transform="translate(878,79)"/>
<path d="M0 0 C4.29 0 8.58 0 13 0 C13 4.29 13 8.58 13 13 C8.71 13 4.42 13 0 13 C0 8.71 0 4.42 0 0 Z " fill="#CFD1D1" transform="translate(847,79)"/>
<path d="M0 0 C4.29 0 8.58 0 13 0 C13 4.29 13 8.58 13 13 C8.71 13 4.42 13 0 13 C0 8.71 0 4.42 0 0 Z " fill="#CFD1D2" transform="translate(816,79)"/>
<path d="M0 0 C4.29 0 8.58 0 13 0 C13 4.29 13 8.58 13 13 C8.71 13 4.42 13 0 13 C0 8.71 0 4.42 0 0 Z " fill="#D2D3D4" transform="translate(785,79)"/>
<path d="M0 0 C3.96 0 7.92 0 12 0 C12 4.62 12 9.24 12 14 C8.04 14 4.08 14 0 14 C0 9.38 0 4.76 0 0 Z " fill="#CFD1D1" transform="translate(971,381)"/>
<path d="M0 0 C3.96 0 7.92 0 12 0 C12 4.62 12 9.24 12 14 C8.04 14 4.08 14 0 14 C0 9.38 0 4.76 0 0 Z " fill="#CFD1D2" transform="translate(940,381)"/>
<path d="M0 0 C3.96 0 7.92 0 12 0 C12 4.62 12 9.24 12 14 C8.04 14 4.08 14 0 14 C0 9.38 0 4.76 0 0 Z " fill="#CFD1D1" transform="translate(863,381)"/>
<path d="M0 0 C3.96 0 7.92 0 12 0 C12 4.62 12 9.24 12 14 C8.04 14 4.08 14 0 14 C0 9.38 0 4.76 0 0 Z " fill="#CFD1D1" transform="translate(832,381)"/>
<path d="M0 0 C3.96 0 7.92 0 12 0 C12 4.62 12 9.24 12 14 C8.04 14 4.08 14 0 14 C0 9.38 0 4.76 0 0 Z " fill="#CFD1D2" transform="translate(1048,364)"/>
<path d="M0 0 C3.96 0 7.92 0 12 0 C12 4.62 12 9.24 12 14 C8.04 14 4.08 14 0 14 C0 9.38 0 4.76 0 0 Z " fill="#CFD0D2" transform="translate(863,364)"/>
<path d="M0 0 C3.96 0 7.92 0 12 0 C12 4.62 12 9.24 12 14 C8.04 14 4.08 14 0 14 C0 9.38 0 4.76 0 0 Z " fill="#CFD0D2" transform="translate(826,364)"/>
<path d="M0 0 C3.96 0 7.92 0 12 0 C12 4.62 12 9.24 12 14 C8.04 14 4.08 14 0 14 C0 9.38 0 4.76 0 0 Z " fill="#CFD0D1" transform="translate(1048,347)"/>
<path d="M0 0 C3.96 0 7.92 0 12 0 C12 4.62 12 9.24 12 14 C8.04 14 4.08 14 0 14 C0 9.38 0 4.76 0 0 Z " fill="#CFD0D2" transform="translate(1125,280)"/>
<path d="M0 0 C3.96 0 7.92 0 12 0 C12 4.62 12 9.24 12 14 C8.04 14 4.08 14 0 14 C0 9.38 0 4.76 0 0 Z " fill="#D0D0D2" transform="translate(971,280)"/>
<path d="M0 0 C3.96 0 7.92 0 12 0 C12 4.62 12 9.24 12 14 C8.04 14 4.08 14 0 14 C0 9.38 0 4.76 0 0 Z " fill="#CFD0D2" transform="translate(940,280)"/>
<path d="M0 0 C3.96 0 7.92 0 12 0 C12 4.62 12 9.24 12 14 C8.04 14 4.08 14 0 14 C0 9.38 0 4.76 0 0 Z " fill="#D0D0D1" transform="translate(1125,263)"/>
<path d="M0 0 C3.96 0 7.92 0 12 0 C12 4.62 12 9.24 12 14 C8.04 14 4.08 14 0 14 C0 9.38 0 4.76 0 0 Z " fill="#D0D0D1" transform="translate(1048,263)"/>
<path d="M0 0 C3.96 0 7.92 0 12 0 C12 4.62 12 9.24 12 14 C8.04 14 4.08 14 0 14 C0 9.38 0 4.76 0 0 Z " fill="#D0D0D1" transform="translate(971,263)"/>
<path d="M0 0 C3.96 0 7.92 0 12 0 C12 4.62 12 9.24 12 14 C8.04 14 4.08 14 0 14 C0 9.38 0 4.76 0 0 Z " fill="#D0D0D2" transform="translate(940,263)"/>
<path d="M0 0 C3.96 0 7.92 0 12 0 C12 4.62 12 9.24 12 14 C8.04 14 4.08 14 0 14 C0 9.38 0 4.76 0 0 Z " fill="#CFD0D1" transform="translate(1125,213)"/>
<path d="M0 0 C3.96 0 7.92 0 12 0 C12 4.62 12 9.24 12 14 C8.04 14 4.08 14 0 14 C0 9.38 0 4.76 0 0 Z " fill="#D0D1D1" transform="translate(1048,213)"/>
<path d="M0 0 C3.96 0 7.92 0 12 0 C12 4.62 12 9.24 12 14 C8.04 14 4.08 14 0 14 C0 9.38 0 4.76 0 0 Z " fill="#CFD0D1" transform="translate(790,202)"/>
<path d="M0 0 C3.96 0 7.92 0 12 0 C12 4.62 12 9.24 12 14 C8.04 14 4.08 14 0 14 C0 9.38 0 4.76 0 0 Z " fill="#D0D0D2" transform="translate(1125,196)"/>
<path d="M0 0 C3.96 0 7.92 0 12 0 C12 4.62 12 9.24 12 14 C8.04 14 4.08 14 0 14 C0 9.38 0 4.76 0 0 Z " fill="#D0D1D2" transform="translate(1048,196)"/>
<path d="M0 0 C3.96 0 7.92 0 12 0 C12 4.62 12 9.24 12 14 C8.04 14 4.08 14 0 14 C0 9.38 0 4.76 0 0 Z " fill="#D0D1D2" transform="translate(971,196)"/>
<path d="M0 0 C3.96 0 7.92 0 12 0 C12 4.62 12 9.24 12 14 C8.04 14 4.08 14 0 14 C0 9.38 0 4.76 0 0 Z " fill="#D0D1D2" transform="translate(940,196)"/>
<path d="M0 0 C3.96 0 7.92 0 12 0 C12 4.62 12 9.24 12 14 C8.04 14 4.08 14 0 14 C0 9.38 0 4.76 0 0 Z " fill="#CFD0D1" transform="translate(1048,179)"/>
<path d="M0 0 C3.96 0 7.92 0 12 0 C12 4.62 12 9.24 12 14 C8.04 14 4.08 14 0 14 C0 9.38 0 4.76 0 0 Z " fill="#CFD0D1" transform="translate(940,179)"/>
<path d="M0 0 C3.96 0 7.92 0 12 0 C12 4.62 12 9.24 12 14 C8.04 14 4.08 14 0 14 C0 9.38 0 4.76 0 0 Z " fill="#CFD0D2" transform="translate(1048,162)"/>
<path d="M0 0 C3.96 0 7.92 0 12 0 C12 4.62 12 9.24 12 14 C8.04 14 4.08 14 0 14 C0 9.38 0 4.76 0 0 Z " fill="#CFD0D2" transform="translate(940,162)"/>
<path d="M0 0 C3.96 0 7.92 0 12 0 C12 4.62 12 9.24 12 14 C8.04 14 4.08 14 0 14 C0 9.38 0 4.76 0 0 Z " fill="#CFD0D1" transform="translate(1048,146)"/>
<path d="M0 0 C3.96 0 7.92 0 12 0 C12 4.62 12 9.24 12 14 C8.04 14 4.08 14 0 14 C0 9.38 0 4.76 0 0 Z " fill="#CFD0D1" transform="translate(1048,129)"/>
<path d="M0 0 C3.96 0 7.92 0 12 0 C12 4.62 12 9.24 12 14 C8.04 14 4.08 14 0 14 C0 9.38 0 4.76 0 0 Z " fill="#CFD1D2" transform="translate(1048,112)"/>
<path d="M0 0 C3.96 0 7.92 0 12 0 C12 4.62 12 9.24 12 14 C8.04 14 4.08 14 0 14 C0 9.38 0 4.76 0 0 Z " fill="#CFD0D2" transform="translate(832,112)"/>
<path d="M0 0 C3.96 0 7.92 0 12 0 C12 4.62 12 9.24 12 14 C8.04 14 4.08 14 0 14 C0 9.38 0 4.76 0 0 Z " fill="#CFD0D1" transform="translate(1048,95)"/>
<path d="M0 0 C4.29 0 8.58 0 13 0 C13 4.62 13 9.24 13 14 C10.03 14 7.06 14 4 14 C0.75099398 9.02495953 -0.49940808 6.11774896 0 0 Z " fill="#CFD0D1" transform="translate(878,280)"/>
<path d="M0 0 C8.49609375 -0.09765625 8.49609375 -0.09765625 11 0 C12 1 12 1 12.09765625 3.94140625 C12.08605469 5.13636719 12.07445312 6.33132812 12.0625 7.5625 C12.05347656 8.76003906 12.04445313 9.95757812 12.03515625 11.19140625 C12.02355469 12.11824219 12.01195312 13.04507813 12 14 C8.04 14 4.08 14 0 14 C0 9.38 0 4.76 0 0 Z " fill="#CFD0D1" transform="translate(1125,179)"/>
<path d="M0 0 C4.29 0 8.58 0 13 0 C13 4.29 13 8.58 13 13 C11.411875 13.061875 9.82375 13.12375 8.1875 13.1875 C7.29417969 13.22230469 6.40085937 13.25710938 5.48046875 13.29296875 C3 13 3 13 1.1875 11.8125 C-1.12564632 8.28190825 -0.15870024 4.07330615 0 0 Z " fill="#CFD0D1" transform="translate(893,297)"/>
<path d="M0 0 C1.60875 -0.061875 3.2175 -0.12375 4.875 -0.1875 C5.77992187 -0.22230469 6.68484375 -0.25710937 7.6171875 -0.29296875 C8.79667969 -0.14794922 8.79667969 -0.14794922 10 0 C13.04424687 4.56637031 12.12783166 8.56715459 12 14 C8.04 14 4.08 14 0 14 C0 9.38 0 4.76 0 0 Z " fill="#D0D0D1" transform="translate(1156,213)"/>
<path d="M0 0 C4.29 0.99 8.58 1.98 13 3 C13 6.63 13 10.26 13 14 C8.71 14 4.42 14 0 14 C0 9.38 0 4.76 0 0 Z " fill="#CECFD0" transform="translate(893,364)"/>
<path d="M0 0 C6.1683564 0 7.41855919 0.37746541 12 4 C13.60725635 7.21451269 13.05748185 10.43612536 13 14 C8.71 14 4.42 14 0 14 C0 9.38 0 4.76 0 0 Z " fill="#CFD0D1" transform="translate(955,162)"/>
<path d="M0 0 C0 4.62 0 9.24 0 14 C-3.96 14 -7.92 14 -12 14 C-12.390625 5.69921875 -12.390625 5.69921875 -12 3 C-8.31543475 -0.88195267 -5.02818414 -0.25140921 0 0 Z " fill="#CFD0D1" transform="translate(903,165)"/>
<path d="M0 0 C0 4.62 0 9.24 0 14 C-4.29 14 -8.58 14 -13 14 C-13.49048626 6.64270613 -13.49048626 6.64270613 -11.1875 3.625 C-6.7054939 0.29550976 -6.13013757 0 0 0 Z " fill="#CFCFD0" transform="translate(1014,347)"/>
<path d="M0 0 C0 4.62 0 9.24 0 14 C-3.96 14 -7.92 14 -12 14 C-12 10.04 -12 6.08 -12 2 C-7.69214025 0.64851459 -4.58042408 0 0 0 Z " fill="#CFD0D1" transform="translate(983,364)"/>
<path d="M0 0 C3.96 0 7.92 0 12 0 C12 4.29 12 8.58 12 13 C8.04 13 4.08 13 0 13 C0 8.71 0 4.42 0 0 Z " fill="#CFD1D1" transform="translate(1048,314)"/>
<path d="M0 0 C3.96 0 7.92 0 12 0 C12 4.29 12 8.58 12 13 C8.04 13 4.08 13 0 13 C0 8.71 0 4.42 0 0 Z " fill="#CFD1D1" transform="translate(1048,297)"/>
<path d="M0 0 C3.96 0 7.92 0 12 0 C12 4.29 12 8.58 12 13 C8.04 13 4.08 13 0 13 C0 8.71 0 4.42 0 0 Z " fill="#CFD0D2" transform="translate(940,297)"/>
<path d="M0 0 C3.96 0 7.92 0 12 0 C12 4.29 12 8.58 12 13 C8.04 13 4.08 13 0 13 C0 8.71 0 4.42 0 0 Z " fill="#CFD0D1" transform="translate(1156,230)"/>
<path d="M0 0 C3.96 0 7.92 0 12 0 C12 4.29 12 8.58 12 13 C8.04 13 4.08 13 0 13 C0 8.71 0 4.42 0 0 Z " fill="#CFD0D1" transform="translate(1125,230)"/>
<path d="M0 0 C3.96 0 7.92 0 12 0 C12 4.29 12 8.58 12 13 C8.04 13 4.08 13 0 13 C0 8.71 0 4.42 0 0 Z " fill="#CFD1D1" transform="translate(1048,230)"/>
<path d="M0 0 C3.96 0 7.92 0 12 0 C12 4.29 12 8.58 12 13 C8.04 13 4.08 13 0 13 C0 8.71 0 4.42 0 0 Z " fill="#D0D1D2" transform="translate(971,79)"/>
<path d="M0 0 C3.96 0 7.92 0 12 0 C12 4.29 12 8.58 12 13 C8.04 13 4.08 13 0 13 C0 8.71 0 4.42 0 0 Z " fill="#D0D1D2" transform="translate(940,79)"/>
<path d="M0 0 C3.96 0 7.92 0 12 0 C12 4.29 12 8.58 12 13 C8.04 13 4.08 13 0 13 C0 8.71 0 4.42 0 0 Z " fill="#D0D1D1" transform="translate(863,79)"/>
<path d="M0 0 C7.51953125 -0.390625 7.51953125 -0.390625 10 0 C12.4060767 2.43739223 12.95421099 3.6260564 13.375 7.0625 C13 10 13 10 11.80078125 11.671875 C9.37203174 13.46314362 7.79539917 13.30371685 4.8125 13.1875 C3.224375 13.125625 1.63625 13.06375 0 13 C0 8.71 0 4.42 0 0 Z " fill="#D0D1D2" transform="translate(1171,230)"/>
<path d="M0 0 C0 4.95 0 9.9 0 15 C-4.29 15 -8.58 15 -13 15 C-13.33 13.68 -13.66 12.36 -14 11 C-12.671875 8.96484375 -12.671875 8.96484375 -10.75 6.9375 C-10.12609375 6.26589844 -9.5021875 5.59429687 -8.859375 4.90234375 C-8.24578125 4.27457031 -7.6321875 3.64679688 -7 3 C-6.26523437 2.13568359 -6.26523437 2.13568359 -5.515625 1.25390625 C-4 0 -4 0 0 0 Z " fill="#CECFD0" transform="translate(1030,330)"/>
<path d="M0 0 C3.96 0 7.92 0 12 0 C12.1953125 8.3984375 12.1953125 8.3984375 12 11 C10 13 10 13 7.6171875 13.1953125 C6.71226562 13.17210937 5.80734375 13.14890625 4.875 13.125 C2.461875 13.063125 2.461875 13.063125 0 13 C0 8.71 0 4.42 0 0 Z " fill="#CFD0D1" transform="translate(971,297)"/>
<path d="M0 0 C4.29 0 8.58 0 13 0 C13 4.62 13 9.24 13 14 C7.4196403 12.88392806 3.84068214 11.22381588 0 7 C-0.5 3.125 -0.5 3.125 0 0 Z " fill="#CECFD0" transform="translate(986,112)"/>
<path d="M0 0 C4.62 0 9.24 0 14 0 C14 4.62 14 9.24 14 14 C8 14 8 14 5.91796875 11.953125 C5.34691406 11.06109375 4.77585937 10.1690625 4.1875 9.25 C3.60355469 8.36828125 3.01960937 7.4865625 2.41796875 6.578125 C1 4 1 4 0 0 Z " fill="#CDCECF" transform="translate(1016,146)"/>
<path d="M0 0 C3.96 0 7.92 0 12 0 C12 4.62 12 9.24 12 14 C9.36 14 6.72 14 4 14 C2.13459373 9.29593201 0.63156995 5.05255964 0 0 Z " fill="#CFCFD0" transform="translate(1033,179)"/>
<path d="M0 0 C0 4.62 0 9.24 0 14 C-4.29 14 -8.58 14 -13 14 C-12.0704128 9.35206401 -11.48248731 7.76943445 -8.75 4.1875 C-8.16734375 3.39730469 -7.5846875 2.60710937 -6.984375 1.79296875 C-5 0 -5 0 0 0 Z " fill="#D0D1D2" transform="translate(770,380)"/>
<path d="M0 0 C3.96 0 7.92 0 12 0 C12.78705728 5.07214692 12.78705728 5.07214692 12 8 C8.56991878 11.37361897 4.88333838 14 0 14 C0 9.38 0 4.76 0 0 Z " fill="#CECFD0" transform="translate(863,112)"/>
<path d="M0 0 C3.96 0 7.92 0 12 0 C12 3.63 12 7.26 12 11 C8.04 11 4.08 11 0 11 C0 7.37 0 3.74 0 0 Z " fill="#D0D0CF" transform="translate(613,365)"/>
<path d="M0 0 C1.98 0 3.96 0 6 0 C7.0076952 1.7664657 8.00591714 3.53833823 9 5.3125 C9.8353125 6.79169922 9.8353125 6.79169922 10.6875 8.30078125 C12 11 12 11 12 14 C8.04 14 4.08 14 0 14 C0 9.38 0 4.76 0 0 Z " fill="#CCCDCE" transform="translate(971,179)"/>
<path d="M0 0 C1.97909398 -0.02686553 3.95828971 -0.04633375 5.9375 -0.0625 C7.03964844 -0.07410156 8.14179687 -0.08570312 9.27734375 -0.09765625 C12 0 12 0 13 1 C13.1328125 2.8125 13.1328125 2.8125 13.125 5 C13.12757813 5.721875 13.13015625 6.44375 13.1328125 7.1875 C13 9 13 9 12 10 C9.98405418 10.23427778 7.961526 10.41336124 5.9375 10.5625 C4.28041016 10.68818359 4.28041016 10.68818359 2.58984375 10.81640625 C1.73519531 10.87699219 0.88054688 10.93757813 0 11 C0 7.37 0 3.74 0 0 Z " fill="#CCCDCE" transform="translate(909,95)"/>
<path d="M0 0 C2.31 0 4.62 0 7 0 C7.67260351 1.76858691 8.33788395 3.53996016 9 5.3125 C9.37125 6.29863281 9.7425 7.28476562 10.125 8.30078125 C11 11 11 11 11 14 C7.37 14 3.74 14 0 14 C0 9.38 0 4.76 0 0 Z " fill="#CCCCCD" transform="translate(814,280)"/>
<path d="M0 0 C2.97 0 5.94 0 9 0 C9 4.62 9 9.24 9 14 C6.03 14 3.06 14 0 14 C0 9.38 0 4.76 0 0 Z " fill="#D0D0D1" transform="translate(753,184)"/>
<path d="M0 0 C3.96 0 7.92 0 12 0 C12.33 3.63 12.66 7.26 13 11 C8.71 10.67 4.42 10.34 0 10 C0 6.7 0 3.4 0 0 Z " fill="#CACBCC" transform="translate(940,95)"/>
<path d="M0 0 C0 3.3 0 6.6 0 10 C-4.29 10 -8.58 10 -13 10 C-13 7.36 -13 4.72 -13 2 C-8.46298506 0.54815522 -4.81938524 -0.23509196 0 0 Z " fill="#CECFD0" transform="translate(968,368)"/>
<path d="M0 0 C4.29 0 8.58 0 13 0 C13 2.97 13 5.94 13 9 C8.71 9 4.42 9 0 9 C0 6.03 0 3.06 0 0 Z " fill="#D0D0D1" transform="translate(924,95)"/>
<path d="M0 0 C4.29 0 8.58 0 13 0 C13 2.97 13 5.94 13 9 C11.20866022 9.05391993 9.41686101 9.09275571 7.625 9.125 C6.62726562 9.14820313 5.62953125 9.17140625 4.6015625 9.1953125 C2 9 2 9 0 7 C-0.125 3.375 -0.125 3.375 0 0 Z " fill="#CACBCC" transform="translate(924,314)"/>
<path d="M0 0 C1.97993541 0.30759178 3.95893599 0.6212068 5.9375 0.9375 C7.03964844 1.11152344 8.14179687 1.28554688 9.27734375 1.46484375 C12 2 12 2 13 3 C13.04092937 5.33297433 13.04241723 7.66705225 13 10 C8.71 10 4.42 10 0 10 C0 6.7 0 3.4 0 0 Z " fill="#CFD0D1" transform="translate(909,368)"/>
<path d="M0 0 C2.97 0 5.94 0 9 0 C9 4.62 9 9.24 9 14 C4 13 4 13 1.6875 10.375 C-0.20564042 6.58871916 -0.33406575 4.17582188 0 0 Z " fill="#D0D1D2" transform="translate(753,80)"/>
<path d="M0 0 C4.29 0 8.58 0 13 0 C13 4.62 13 9.24 13 14 C9.64050745 12.88016915 8.76133691 11.8882264 6.5 9.25 C5.9121875 8.57453125 5.324375 7.8990625 4.71875 7.203125 C3 5 3 5 0 0 Z " fill="#CCCCCD" transform="translate(1001,129)"/>
<path d="M0 0 C4.29 0 8.58 0 13 0 C11.00205931 3.99588138 9.08986847 6.14752513 5.9375 9.25 C5.03902344 10.14203125 4.14054688 11.0340625 3.21484375 11.953125 C1 14 1 14 0 14 C0 9.38 0 4.76 0 0 Z " fill="#CBCCCD" transform="translate(847,129)"/>
<path d="M0 0 C0.99 0 1.98 0 3 0 C3 11.22 3 22.44 3 34 C2.01 34 1.02 34 0 34 C0 22.78 0 11.56 0 0 Z " fill="#5A5A5C" transform="translate(522,443)"/>
<path d="M0 0 C3.96 0 7.92 0 12 0 C12 2.64 12 5.28 12 8 C6.06 8.495 6.06 8.495 0 9 C0 6.03 0 3.06 0 0 Z " fill="#CCCDCE" transform="translate(940,314)"/>
<path d="M0 0 C3.96 0 7.92 0 12 0 C10.23158984 3.53682033 8.44299028 6.17829898 6 9.25 C5.29875 10.14203125 4.5975 11.0340625 3.875 11.953125 C3.25625 12.62859375 2.6375 13.3040625 2 14 C1.34 14 0.68 14 0 14 C0 9.38 0 4.76 0 0 Z " fill="#D0D1D2" transform="translate(1048,381)"/>
<path d="M0 0 C3.96 0 7.92 0 12 0 C10.109488 3.781024 8.25697673 6.15445894 5.4375 9.25 C4.63183594 10.14203125 3.82617188 11.0340625 2.99609375 11.953125 C2.33738281 12.62859375 1.67867187 13.3040625 1 14 C0.67 14 0.34 14 0 14 C0 9.38 0 4.76 0 0 Z " fill="#CFD0D2" transform="translate(1063,364)"/>
<path d="M0 0 C3.85345878 1.92672939 5.4791507 3.33917932 8.25 6.5 C8.95640625 7.2940625 9.6628125 8.088125 10.390625 8.90625 C12 11 12 11 12 13 C8.04 13 4.08 13 0 13 C0 8.71 0 4.42 0 0 Z " fill="#D1D2D3" transform="translate(1048,79)"/>
<path d="M0 0 C1.21236328 0.01353516 1.21236328 0.01353516 2.44921875 0.02734375 C3.37154297 0.04474609 3.37154297 0.04474609 4.3125 0.0625 C4.3125 2.7025 4.3125 5.3425 4.3125 8.0625 C0.3525 8.0625 -3.6075 8.0625 -7.6875 8.0625 C-7.6875 5.7525 -7.6875 3.4425 -7.6875 1.0625 C-4.80538698 0.10179566 -2.98899956 -0.04331883 0 0 Z " fill="#C9CACB" transform="translate(947.6875,369.9375)"/>
<path d="M0 0 C4.29 0 8.58 0 13 0 C13 2.31 13 4.62 13 7 C8.71 7 4.42 7 0 7 C0 4.69 0 2.38 0 0 Z " fill="#CFD0D1" transform="translate(924,371)"/>
<path d="M0 0 C3.63 0 7.26 0 11 0 C9.33032732 4.17418171 8.34003535 6.11746023 5.5 9.3125 C4.8915625 10.00988281 4.283125 10.70726562 3.65625 11.42578125 C2 13 2 13 0 13 C0 8.71 0 4.42 0 0 Z " fill="#D1D1D2" transform="translate(1078,347)"/>
<path d="M0 0 C3.74502433 1.24834144 4.76484276 2.86174026 7.1875 5.9375 C7.90292969 6.83339844 8.61835937 7.72929688 9.35546875 8.65234375 C11 11 11 11 11 13 C7.37 13 3.74 13 0 13 C0 8.71 0 4.42 0 0 Z " fill="#CDCECF" transform="translate(1063,96)"/>
<path d="M0 0 C0 2.64 0 5.28 0 8 C-4.29 8 -8.58 8 -13 8 C-13 6.35 -13 4.7 -13 3 C-11.58603098 2.49242138 -10.16868271 1.99425075 -8.75 1.5 C-7.96109375 1.2215625 -7.1721875 0.943125 -6.359375 0.65625 C-4 0 -4 0 0 0 Z " fill="#D0CECC" transform="translate(802,364)"/>
<path d="M0 0 C2.31 0 4.62 0 7 0 C7 4.62 7 9.24 7 14 C5.35 14 3.7 14 2 14 C-0.29612756 4.58997722 -0.29612756 4.58997722 0 0 Z " fill="#CDCDCE" transform="translate(1038,196)"/>
<path d="M0 0 C3.59476701 3.49205938 6.92026191 7.04033675 10 11 C10 11.66 10 12.32 10 13 C6.37 13 2.74 13 -1 13 C-1.02686553 11.02090602 -1.04633375 9.04171029 -1.0625 7.0625 C-1.07410156 5.96035156 -1.08570313 4.85820313 -1.09765625 3.72265625 C-1 1 -1 1 0 0 Z " fill="#CECFD1" transform="translate(1079,113)"/>
<path d="M0 0 C4.29 0 8.58 0 13 0 C13 1.98 13 3.96 13 6 C8.71 6 4.42 6 0 6 C0 4.02 0 2.04 0 0 Z " fill="#D0D0D1" transform="translate(955,213)"/>
<path d="M0 0 C4.29 0 8.58 0 13 0 C13 1.98 13 3.96 13 6 C8.71 6 4.42 6 0 6 C0 4.02 0 2.04 0 0 Z " fill="#CFD0D1" transform="translate(924,213)"/>
<path d="M0 0 C4.29 0 8.58 0 13 0 C13 1.98 13 3.96 13 6 C8.71 6 4.42 6 0 6 C0 4.02 0 2.04 0 0 Z " fill="#CFD1D2" transform="translate(900,213)"/>
<path d="M0 0 C0.04254356 1.99954746 0.04080783 4.00041636 0 6 C-1 7 -1 7 -3.72265625 7.09765625 C-5.37587891 7.08025391 -5.37587891 7.08025391 -7.0625 7.0625 C-8.16722656 7.05347656 -9.27195312 7.04445312 -10.41015625 7.03515625 C-11.69212891 7.01775391 -11.69212891 7.01775391 -13 7 C-12.67 5.35 -12.34 3.7 -12 2 C-7.82262526 0.40861915 -4.46839215 -0.21278058 0 0 Z " fill="#C9C9CA" transform="translate(922,153)"/>
<path d="M0 0 C3.96 0 7.92 0 12 0 C12.33 1.65 12.66 3.3 13 5 C12 6 12 6 9.27734375 6.09765625 C7.62412109 6.08025391 7.62412109 6.08025391 5.9375 6.0625 C4.83277344 6.05347656 3.72804688 6.04445313 2.58984375 6.03515625 C1.30787109 6.01775391 1.30787109 6.01775391 0 6 C0 4.02 0 2.04 0 0 Z " fill="#CFD0D0" transform="translate(878,258)"/>
<path d="M0 0 C0.66 0 1.32 0 2 0 C2 4.95 2 9.9 2 15 C-2.29 15 -6.58 15 -11 15 C-11 14.01 -11 13.02 -11 12 C-7.7 12 -4.4 12 -1 12 C-1.01160156 11.21753906 -1.02320313 10.43507813 -1.03515625 9.62890625 C-1.04417969 8.61699219 -1.05320312 7.60507813 -1.0625 6.5625 C-1.07410156 5.55316406 -1.08570313 4.54382813 -1.09765625 3.50390625 C-1 1 -1 1 0 0 Z " fill="#C8C9CA" transform="translate(1043,246)"/>
<path d="M0 0 C4.29 0 8.58 0 13 0 C13 2.31 13 4.62 13 7 C8.02693484 6.50269348 4.36200187 5.44697666 0 3 C0 2.01 0 1.02 0 0 Z " fill="#CCCDCE" transform="translate(909,314)"/>
<path d="M0 0 C3.96 0 7.92 0 12 0 C12 1.98 12 3.96 12 6 C8.04 6 4.08 6 0 6 C0 4.02 0 2.04 0 0 Z " fill="#CFD0D1" transform="translate(971,213)"/>
<path d="M0 0 C3.96 0 7.92 0 12 0 C12 1.98 12 3.96 12 6 C8.04 6 4.08 6 0 6 C0 4.02 0 2.04 0 0 Z " fill="#CFD0D1" transform="translate(940,213)"/>
<path d="M0 0 C3.96 0 7.92 0 12 0 C12 1.98 12 3.96 12 6 C8.04 6 4.08 6 0 6 C0 4.02 0 2.04 0 0 Z " fill="#D0D1D2" transform="translate(874,213)"/>
<path d="M0 0 C3.3 0 6.6 0 10 0 C8.31243615 3.3751277 6.88864186 5.48670855 4.4375 8.25 C3.81746094 8.95640625 3.19742187 9.6628125 2.55859375 10.390625 C1.78708984 11.18726563 1.78708984 11.18726563 1 12 C0.67 12 0.34 12 0 12 C0 8.04 0 4.08 0 0 Z " fill="#D0D1D2" transform="translate(1094,330)"/>
<path d="M0 0 C3.54386609 1.77193305 4.84126206 2.62897902 7.25 5.5 C8.03117187 6.41265625 8.03117187 6.41265625 8.828125 7.34375 C10 9 10 9 10 11 C6.7 11 3.4 11 0 11 C0 7.37 0 3.74 0 0 Z " fill="#D0D1D1" transform="translate(1094,132)"/>
<path d="M0 0 C4.29 0 8.58 0 13 0 C13 0.99 13 1.98 13 3 C11.2097939 3.67057887 9.41778511 4.3363469 7.625 5 C6.62726562 5.37125 5.62953125 5.7425 4.6015625 6.125 C2 7 2 7 0 7 C0 4.69 0 2.38 0 0 Z " fill="#CBCCCD" transform="translate(955,314)"/>
<path d="M0 0 C5.94 1.485 5.94 1.485 12 3 C12 4.32 12 5.64 12 7 C8.04 7 4.08 7 0 7 C0 4.69 0 2.38 0 0 Z " fill="#CBCCCD" transform="translate(940,153)"/>
<path d="M0 0 C3.3 0 6.6 0 10 0 C8.63875 1.918125 8.63875 1.918125 7.25 3.875 C6.48429687 4.95394531 6.48429687 4.95394531 5.703125 6.0546875 C4 8 4 8 0 10 C0 6.7 0 3.4 0 0 Z " fill="#D1D2D3" transform="translate(1109,314)"/>
<path d="M0 0 C4.57269026 2.28634513 5.9952155 3.99362066 9 8 C9 8.66 9 9.32 9 10 C6.03 10 3.06 10 0 10 C0 6.7 0 3.4 0 0 Z " fill="#CECECF" transform="translate(1109,150)"/>
<path d="M0 0 C1.32 0 2.64 0 4 0 C4 4.62 4 9.24 4 14 C2.68 14 1.36 14 0 14 C0 9.38 0 4.76 0 0 Z " fill="#D1CFCE" transform="translate(695,86)"/>
<path d="M0 0 C1.32 0 2.64 0 4 0 C4 4.62 4 9.24 4 14 C2.68 13.67 1.36 13.34 0 13 C0 8.71 0 4.42 0 0 Z " fill="#D1CFCD" transform="translate(815,322)"/>
<path d="M0 0 C0.66 0 1.32 0 2 0 C3.98 3.63 5.96 7.26 8 11 C5.36 11 2.72 11 0 11 C0 7.37 0 3.74 0 0 Z " fill="#C3C4C5" transform="translate(832,311)"/>
<path d="M0 0 C0 1.98 0 3.96 0 6 C-3.96 6 -7.92 6 -12 6 C-8.4142816 2.4142816 -5.18781778 0 0 0 Z " fill="#C9C9CA" transform="translate(999,355)"/>
<path d="M0 0 C2.64 0 5.28 0 8 0 C5.51407086 4.70550874 4.39589917 6.70307562 0 10 C0 6.7 0 3.4 0 0 Z " fill="#D1D2D3" transform="translate(1125,297)"/>
<path d="M0 0 C1.32 0 2.64 0 4 0 C4 4.62 4 9.24 4 14 C3.01 13.67 2.02 13.34 1 13 C0.67 8.71 0.34 4.42 0 0 Z " fill="#D0D1D1" transform="translate(1041,213)"/>
<path d="M0 0 C2.97 0 5.94 0 9 0 C3.375 6.875 3.375 6.875 0 8 C0 5.36 0 2.72 0 0 Z " fill="#CCCDCE" transform="translate(986,297)"/>
<path d="M0 0 C1.32 0 2.64 0 4 0 C4 3.96 4 7.92 4 12 C3.01 11.67 2.02 11.34 1 11 C-0.47666292 7.50970582 -0.07164685 3.72563614 0 0 Z " fill="#C8C8CB" transform="translate(870,258)"/>
<path d="M0 0 C2.31 0 4.62 0 7 0 C5.64978174 4.41889613 3.73884332 6.34345343 0 9 C0 6.03 0 3.06 0 0 Z " fill="#D1D1D3" transform="translate(1140,280)"/>
<path d="M0 0 C3.63094642 2.64960955 5.89851796 5.01824456 8 9 C5.36 9 2.72 9 0 9 C0 6.03 0 3.06 0 0 Z " fill="#D0D1D4" transform="translate(1125,167)"/>
<path d="M0 0 C4.29 0 8.58 0 13 0 C13 0.99 13 1.98 13 3 C8.71 3 4.42 3 0 3 C0 2.01 0 1.02 0 0 Z " fill="#C6C7C8" transform="translate(1017,258)"/>
<path d="M0 0 C4.29 0 8.58 0 13 0 C13 0.99 13 1.98 13 3 C8.71 3 4.42 3 0 3 C0 2.01 0 1.02 0 0 Z " fill="#C7C8C9" transform="translate(955,258)"/>
<path d="M0 0 C4.29 0 8.58 0 13 0 C13 0.99 13 1.98 13 3 C8.71 3 4.42 3 0 3 C0 2.01 0 1.02 0 0 Z " fill="#C6C6C7" transform="translate(924,258)"/>
<path d="M0 0 C4.29 0 8.58 0 13 0 C13 0.99 13 1.98 13 3 C8.71 3 4.42 3 0 3 C0 2.01 0 1.02 0 0 Z " fill="#D0D1D1" transform="translate(632,106)"/>
<path d="M0 0 C3.96 0 7.92 0 12 0 C12 0.99 12 1.98 12 3 C7.71 3 3.42 3 -1 3 C-0.67 2.01 -0.34 1.02 0 0 Z " fill="#C7C8C9" transform="translate(1002,258)"/>
<path d="M0 0 C3.96 0 7.92 0 12 0 C12.33 0.99 12.66 1.98 13 3 C8.71 3 4.42 3 0 3 C0 2.01 0 1.02 0 0 Z " fill="#C2C2C3" transform="translate(986,258)"/>
<path d="M0 0 C2.64 0 5.28 0 8 0 C8 2.64 8 5.28 8 8 C6.85073734 7.04578192 5.70569459 6.08647955 4.5625 5.125 C3.92441406 4.59132813 3.28632812 4.05765625 2.62890625 3.5078125 C1 2 1 2 0 0 Z " fill="#CDCECF" transform="translate(1006,297)"/>
<path d="M0 0 C3.96 0 7.92 0 12 0 C12 0.99 12 1.98 12 3 C8.04 3 4.08 3 0 3 C0 2.01 0 1.02 0 0 Z " fill="#C6C6C7" transform="translate(940,258)"/>
<path d="M0 0 C1.1725131 0.95117134 2.33787015 1.91117009 3.5 2.875 C4.47453125 3.67550781 4.47453125 3.67550781 5.46875 4.4921875 C5.9740625 4.98976562 6.479375 5.48734375 7 6 C7 6.66 7 7.32 7 8 C4.69 8 2.38 8 0 8 C0 5.36 0 2.72 0 0 Z " fill="#CFD0D2" transform="translate(1140,185)"/>
<path d="M0 0 C1.98 0 3.96 0 6 0 C4.73058503 3.91402949 3.48832306 5.79072873 0 8 C0 5.36 0 2.72 0 0 Z " fill="#D1D2D3" transform="translate(1156,263)"/>
<path d="M0 0 C3.99996286 1.33332095 4.83782337 3.4957827 7 7 C4.69 7 2.38 7 0 7 C0 4.69 0 2.38 0 0 Z " fill="#CBCCCC" transform="translate(847,332)"/>
<path d="M0 0 C3.3 0 6.6 0 10 0 C6.43688534 2.672336 4.15414253 3.77263971 0 5 C0 3.35 0 1.7 0 0 Z " fill="#CACACC" transform="translate(878,112)"/>
<path d="M0 0 C2.31 0 4.62 0 7 0 C7 1.98 7 3.96 7 6 C3.63279613 4.60667426 2.0140476 3.0210714 0 0 Z " fill="#C1C2C3" transform="translate(1023,314)"/>
<path d="M0 0 C1.98 0 3.96 0 6 0 C4.60667426 3.36720387 3.0210714 4.9859524 0 7 C0 4.69 0 2.38 0 0 Z " fill="#D0D1D1" transform="translate(1171,246)"/>
<path d="M0 0 C2.04119788 1.61594832 4.04072937 3.2856382 6 5 C6 5.66 6 6.32 6 7 C4.02 7 2.04 7 0 7 C0 4.69 0 2.38 0 0 Z " fill="#D1D2D3" transform="translate(1156,203)"/>
<path d="M0 0 C2.97 0 5.94 0 9 0 C9 1.65 9 3.3 9 5 C4.545 3.02 4.545 3.02 0 1 C0 0.67 0 0.34 0 0 Z " fill="#CACACC" transform="translate(974,112)"/>
<path d="M0 0 C1.9375 0.75 1.9375 0.75 4 2 C4.75 4.125 4.75 4.125 5 6 C3.35 6 1.7 6 0 6 C0 4.02 0 2.04 0 0 Z " fill="#D4D5D6" transform="translate(1171,221)"/>
<path d="M0 0 C1.32 0 2.64 0 4 0 C4 2.64 4 5.28 4 8 C1.10067643 5.60490662 0.49831724 3.68754757 0 0 Z " fill="#C9CACC" transform="translate(1026,162)"/>
<path d="M0 0 C5.75 1.75 5.75 1.75 8 4 C5.36 4 2.72 4 0 4 C0 2.68 0 1.36 0 0 Z " fill="#CDCDCF" transform="translate(878,357)"/>
<path d="M0 0 C0.99 0 1.98 0 3 0 C3 1.98 3 3.96 3 6 C2.01 6 1.02 6 0 6 C0 4.02 0 2.04 0 0 Z " fill="#C5C5C6" transform="translate(986,213)"/>
</svg>
