<svg width="238" height="50" viewBox="0 0 238 50" fill="none" xmlns="http://www.w3.org/2000/svg">
<path d="M84.8503 3.46088L76.1599 27.9999H68.691L60.0005 3.46088H66.3526L72.4254 21.9875L78.5332 3.46088H84.8503Z" fill="url(#paint0_linear_13759_959)"/>
<path d="M90.3462 6.46708C89.2992 6.46708 88.4383 6.16413 87.7635 5.55823C87.112 4.92902 86.7863 4.15999 86.7863 3.25114C86.7863 2.31898 87.112 1.54996 87.7635 0.944053C88.4383 0.314847 89.2992 0.000244141 90.3462 0.000244141C91.37 0.000244141 92.2076 0.314847 92.8591 0.944053C93.5339 1.54996 93.8713 2.31898 93.8713 3.25114C93.8713 4.15999 93.5339 4.92902 92.8591 5.55823C92.2076 6.16413 91.37 6.46708 90.3462 6.46708ZM93.3128 8.49452V27.9999H87.3447V8.49452H93.3128Z" fill="url(#paint1_linear_13759_959)"/>
<path d="M115.996 17.9326C115.996 18.4919 115.961 19.0745 115.891 19.6804H102.385C102.478 20.8922 102.861 21.8244 103.536 22.4769C104.234 23.1061 105.084 23.4207 106.084 23.4207C107.573 23.4207 108.609 22.7915 109.19 21.5331H115.542C115.217 22.8148 114.623 23.9683 113.762 24.9937C112.925 26.0191 111.866 26.823 110.586 27.4056C109.307 27.9882 107.876 28.2795 106.293 28.2795C104.386 28.2795 102.687 27.8717 101.198 27.0561C99.7087 26.2405 98.5453 25.0753 97.7077 23.5605C96.8701 22.0457 96.4513 20.2746 96.4513 18.2472C96.4513 16.2198 96.8584 14.4487 97.6728 12.9339C98.5104 11.4192 99.6738 10.254 101.163 9.43833C102.652 8.62269 104.362 8.21487 106.293 8.21487C108.178 8.21487 109.853 8.61104 111.319 9.40337C112.785 10.1957 113.925 11.3259 114.74 12.7941C115.577 14.2622 115.996 15.9751 115.996 17.9326ZM109.888 16.3596C109.888 15.3342 109.539 14.5186 108.841 13.9127C108.143 13.3068 107.271 13.0038 106.224 13.0038C105.223 13.0038 104.374 13.2951 103.676 13.8777C103.001 14.4603 102.582 15.2876 102.419 16.3596H109.888Z" fill="url(#paint2_linear_13759_959)"/>
<path d="M125.113 11.7454C125.811 10.6734 126.683 9.8345 127.73 9.22859C128.777 8.59939 129.941 8.28479 131.22 8.28479V14.6118H129.58C128.091 14.6118 126.974 14.9381 126.23 15.5906C125.485 16.2198 125.113 17.3384 125.113 18.9463V27.9999H119.145V8.49452H125.113V11.7454Z" fill="url(#paint3_linear_13759_959)"/>
<path d="M142.938 28.2795C141.03 28.2795 139.308 27.8717 137.773 27.0561C136.26 26.2405 135.062 25.0753 134.178 23.5605C133.317 22.0457 132.886 20.2746 132.886 18.2472C132.886 16.2431 133.329 14.4836 134.213 12.9689C135.097 11.4308 136.307 10.254 137.842 9.43833C139.378 8.62269 141.1 8.21487 143.008 8.21487C144.916 8.21487 146.638 8.62269 148.173 9.43833C149.709 10.254 150.919 11.4308 151.803 12.9689C152.687 14.4836 153.129 16.2431 153.129 18.2472C153.129 20.2513 152.676 22.0224 151.768 23.5605C150.884 25.0753 149.662 26.2405 148.104 27.0561C146.568 27.8717 144.846 28.2795 142.938 28.2795ZM142.938 23.1061C144.078 23.1061 145.044 22.6866 145.835 21.8477C146.649 21.0087 147.056 19.8086 147.056 18.2472C147.056 16.6858 146.661 15.4857 145.87 14.6468C145.102 13.8078 144.148 13.3883 143.008 13.3883C141.845 13.3883 140.879 13.8078 140.111 14.6468C139.343 15.4624 138.959 16.6625 138.959 18.2472C138.959 19.8086 139.332 21.0087 140.076 21.8477C140.844 22.6866 141.798 23.1061 142.938 23.1061Z" fill="url(#paint4_linear_13759_959)"/>
<path d="M182.297 3.70557V27.9999H178.318V11.3609L170.919 27.9999H168.162L160.728 11.3609V27.9999H156.749V3.70557H161.042L169.558 22.7565L178.039 3.70557H182.297Z" fill="#505050"/>
<path d="M189.551 6.18743C188.83 6.18743 188.225 5.94274 187.736 5.45336C187.247 4.96398 187.003 4.35808 187.003 3.63566C187.003 2.91323 187.247 2.30733 187.736 1.81795C188.225 1.32857 188.83 1.08388 189.551 1.08388C190.249 1.08388 190.842 1.32857 191.331 1.81795C191.82 2.30733 192.064 2.91323 192.064 3.63566C192.064 4.35808 191.82 4.96398 191.331 5.45336C190.842 5.94274 190.249 6.18743 189.551 6.18743ZM191.505 8.73921V27.9999H187.527V8.73921H191.505Z" fill="#505050"/>
<path d="M206.432 8.42461C207.944 8.42461 209.294 8.73921 210.48 9.36842C211.69 9.99762 212.633 10.9298 213.307 12.1649C213.982 13.4 214.32 14.8914 214.32 16.6392V27.9999H210.376V17.2335C210.376 15.509 209.945 14.1923 209.084 13.2835C208.223 12.3513 207.048 11.8852 205.559 11.8852C204.07 11.8852 202.883 12.3513 201.999 13.2835C201.138 14.1923 200.708 15.509 200.708 17.2335V27.9999H196.729V8.73921H200.708V10.9414C201.359 10.1491 202.185 9.53155 203.186 9.08877C204.21 8.646 205.292 8.42461 206.432 8.42461Z" fill="#505050"/>
<path d="M218.068 18.2822C218.068 16.3479 218.464 14.6351 219.255 13.1437C220.069 11.6522 221.163 10.4987 222.536 9.68302C223.932 8.84408 225.479 8.42461 227.178 8.42461C228.434 8.42461 229.667 8.70426 230.877 9.26355C232.11 9.79954 233.088 10.522 233.809 11.4308V2.13255H237.823V27.9999H233.809V25.0986C233.157 26.0307 232.25 26.7997 231.087 27.4056C229.947 28.0115 228.632 28.3145 227.143 28.3145C225.468 28.3145 223.932 27.895 222.536 27.0561C221.163 26.1938 220.069 25.0053 219.255 23.4906C218.464 21.9525 218.068 20.2164 218.068 18.2822ZM233.809 18.3521C233.809 17.0238 233.53 15.8702 232.971 14.8914C232.436 13.9127 231.727 13.167 230.842 12.6543C229.958 12.1416 229.004 11.8852 227.98 11.8852C226.957 11.8852 226.003 12.1416 225.118 12.6543C224.234 13.1437 223.513 13.8777 222.955 14.8565C222.419 15.8119 222.152 16.9538 222.152 18.2822C222.152 19.6105 222.419 20.7757 222.955 21.7778C223.513 22.7798 224.234 23.5488 225.118 24.0848C226.026 24.5975 226.98 24.8539 227.98 24.8539C229.004 24.8539 229.958 24.5975 230.842 24.0848C231.727 23.5722 232.436 22.8264 232.971 21.8477C233.53 20.8456 233.809 19.6804 233.809 18.3521Z" fill="#505050"/>
<path d="M70.2441 34.6634V36.6952H63.8091V41.1739H68.8262V43.2057H63.8091V49.8473H61.3224V34.6634H70.2441Z" fill="#505050"/>
<path d="M83.8262 50.0002C82.4156 50.0002 81.114 49.6725 79.9216 49.0171C78.7436 48.3471 77.8057 47.4222 77.1076 46.2425C76.4241 45.0482 76.0824 43.7082 76.0824 42.2226C76.0824 40.7369 76.4241 39.4042 77.1076 38.2245C77.8057 37.0447 78.7436 36.1271 79.9216 35.4717C81.114 34.8017 82.4156 34.4667 83.8262 34.4667C85.2513 34.4667 86.5528 34.8017 87.7308 35.4717C88.9232 36.1271 89.8612 37.0447 90.5447 38.2245C91.2282 39.4042 91.5699 40.7369 91.5699 42.2226C91.5699 43.7082 91.2282 45.0482 90.5447 46.2425C89.8612 47.4222 88.9232 48.3471 87.7308 49.0171C86.5528 49.6725 85.2513 50.0002 83.8262 50.0002ZM83.8262 47.8373C84.8296 47.8373 85.7239 47.6116 86.5092 47.1601C87.2945 46.694 87.9053 46.0386 88.3415 45.1938C88.7923 44.3345 89.0178 43.3441 89.0178 42.2226C89.0178 41.1011 88.7923 40.1179 88.3415 39.2732C87.9053 38.4284 87.2945 37.7803 86.5092 37.3287C85.7239 36.8772 84.8296 36.6515 83.8262 36.6515C82.8227 36.6515 81.9284 36.8772 81.1431 37.3287C80.3578 37.7803 79.7398 38.4284 79.289 39.2732C78.8527 40.1179 78.6346 41.1011 78.6346 42.2226C78.6346 43.3441 78.8527 44.3345 79.289 45.1938C79.7398 46.0386 80.3578 46.694 81.1431 47.1601C81.9284 47.6116 82.8227 47.8373 83.8262 47.8373Z" fill="#505050"/>
<path d="M100.845 34.6634V44.3418C100.845 45.4924 101.143 46.359 101.739 46.9416C102.35 47.5242 103.193 47.8155 104.269 47.8155C105.36 47.8155 106.203 47.5242 106.8 46.9416C107.41 46.359 107.716 45.4924 107.716 44.3418V34.6634H110.203V44.2981C110.203 45.5361 109.933 46.5848 109.395 47.4441C108.857 48.3034 108.137 48.9443 107.236 49.3667C106.334 49.7891 105.338 50.0002 104.247 50.0002C103.157 50.0002 102.161 49.7891 101.259 49.3667C100.372 48.9443 99.6666 48.3034 99.1431 47.4441C98.6196 46.5848 98.3578 45.5361 98.3578 44.2981V34.6634H100.845Z" fill="#505050"/>
<path d="M130.258 49.8473H127.772L120.29 38.5085V49.8473H117.803V34.6415H120.29L127.772 45.9585V34.6415H130.258V49.8473Z" fill="#505050"/>
<path d="M142.838 34.6634C144.452 34.6634 145.863 34.9765 147.07 35.6028C148.292 36.2145 149.23 37.103 149.884 38.2682C150.553 39.4188 150.887 40.7661 150.887 42.31C150.887 43.8538 150.553 45.1938 149.884 46.3299C149.23 47.4659 148.292 48.3398 147.07 48.9516C145.863 49.5487 144.452 49.8473 142.838 49.8473H137.887V34.6634H142.838ZM142.838 47.8155C144.612 47.8155 145.972 47.3349 146.917 46.3736C147.863 45.4123 148.335 44.0577 148.335 42.31C148.335 40.5476 147.863 39.1712 146.917 38.1808C145.972 37.1904 144.612 36.6952 142.838 36.6952H140.373V47.8155H142.838Z" fill="#505050"/>
<path d="M166.854 46.745H160.507L159.416 49.8473H156.82L162.252 34.6415H165.131L170.563 49.8473H167.945L166.854 46.745ZM166.156 44.7132L163.692 37.6565L161.205 44.7132H166.156Z" fill="#505050"/>
<path d="M187.081 34.6634V36.6952H183.046V49.8473H180.559V36.6952H176.502V34.6634H187.081Z" fill="#505050"/>
<path d="M196.449 34.6634V49.8473H193.962V34.6634H196.449Z" fill="#505050"/>
<path d="M210.992 50.0002C209.581 50.0002 208.279 49.6725 207.087 49.0171C205.909 48.3471 204.971 47.4222 204.273 46.2425C203.59 45.0482 203.248 43.7082 203.248 42.2226C203.248 40.7369 203.59 39.4042 204.273 38.2245C204.971 37.0447 205.909 36.1271 207.087 35.4717C208.279 34.8017 209.581 34.4667 210.992 34.4667C212.417 34.4667 213.718 34.8017 214.896 35.4717C216.089 36.1271 217.027 37.0447 217.71 38.2245C218.394 39.4042 218.735 40.7369 218.735 42.2226C218.735 43.7082 218.394 45.0482 217.71 46.2425C217.027 47.4222 216.089 48.3471 214.896 49.0171C213.718 49.6725 212.417 50.0002 210.992 50.0002ZM210.992 47.8373C211.995 47.8373 212.889 47.6116 213.675 47.1601C214.46 46.694 215.071 46.0386 215.507 45.1938C215.958 44.3345 216.183 43.3441 216.183 42.2226C216.183 41.1011 215.958 40.1179 215.507 39.2732C215.071 38.4284 214.46 37.7803 213.675 37.3287C212.889 36.8772 211.995 36.6515 210.992 36.6515C209.988 36.6515 209.094 36.8772 208.309 37.3287C207.523 37.7803 206.905 38.4284 206.454 39.2732C206.018 40.1179 205.8 41.1011 205.8 42.2226C205.8 43.3441 206.018 44.3345 206.454 45.1938C206.905 46.0386 207.523 46.694 208.309 47.1601C209.094 47.6116 209.988 47.8373 210.992 47.8373Z" fill="#505050"/>
<path d="M238 49.8473H235.514L228.032 38.5085V49.8473H225.545V34.6415H228.032L235.514 45.9585V34.6415H238V49.8473Z" fill="#505050"/>
<path d="M34.5693 10.927C58.4725 19.8512 49.6845 55.3654 18.2686 49.3098C18.2686 49.3098 34.569 51.9051 40.6699 33.3743C45.9927 17.2068 34.6276 10.9589 34.5693 10.927ZM0.69043 18.2776C0.675772 18.3707 -1.85167 34.5946 16.626 40.678C32.835 46.0144 39.0732 34.5774 39.0732 34.5774C30.1492 58.4808 -5.36478 49.6933 0.69043 18.2776ZM15.3428 39.0735C-8.56037 30.1492 0.227626 -5.36488 31.6436 0.690674C31.6436 0.690674 15.3431 -1.90453 9.24219 16.6262C3.92096 32.7892 15.2782 39.0381 15.3428 39.0735ZM10.9268 15.3518C19.8508 -8.55176 55.3652 0.235535 49.3096 31.6516C49.3096 31.6516 51.905 15.3511 33.374 9.25024C17.165 3.91385 10.9268 15.3518 10.9268 15.3518Z" fill="url(#paint5_linear_13759_959)"/>
<defs>
<linearGradient id="paint0_linear_13759_959" x1="60.0005" y1="0.000244141" x2="240.417" y2="38.7468" gradientUnits="userSpaceOnUse">
<stop offset="0.0171203" stop-color="#83B1FF"/>
<stop offset="1" stop-color="#8B5CF6"/>
</linearGradient>
<linearGradient id="paint1_linear_13759_959" x1="60.0005" y1="0.000244141" x2="240.417" y2="38.7468" gradientUnits="userSpaceOnUse">
<stop offset="0.0171203" stop-color="#83B1FF"/>
<stop offset="1" stop-color="#8B5CF6"/>
</linearGradient>
<linearGradient id="paint2_linear_13759_959" x1="60.0005" y1="0.000244141" x2="240.417" y2="38.7468" gradientUnits="userSpaceOnUse">
<stop offset="0.0171203" stop-color="#83B1FF"/>
<stop offset="1" stop-color="#8B5CF6"/>
</linearGradient>
<linearGradient id="paint3_linear_13759_959" x1="60.0005" y1="0.000244141" x2="240.417" y2="38.7468" gradientUnits="userSpaceOnUse">
<stop offset="0.0171203" stop-color="#83B1FF"/>
<stop offset="1" stop-color="#8B5CF6"/>
</linearGradient>
<linearGradient id="paint4_linear_13759_959" x1="60.0005" y1="0.000244141" x2="240.417" y2="38.7468" gradientUnits="userSpaceOnUse">
<stop offset="0.0171203" stop-color="#83B1FF"/>
<stop offset="1" stop-color="#8B5CF6"/>
</linearGradient>
<linearGradient id="paint5_linear_13759_959" x1="0" y1="48.2246" x2="1.46505" y2="16.5386" gradientUnits="userSpaceOnUse">
<stop offset="0.0171203" stop-color="#86ADFF"/>
<stop offset="1" stop-color="#968FFF"/>
</linearGradient>
</defs>
</svg>
